<mxfile host="app.diagrams.net" modified="2023-10-01T03:51:11.886Z" agent="Mozilla/5.0 (Windows NT 10.0; Win64; x64) AppleWebKit/537.36 (KHTML, like Gecko) Chrome/116.0.0.0 Safari/537.36 OPR/102.0.0.0" etag="_1_Bfib2FZBifCPgvzuD" version="22.0.0" type="github">
  <diagram name="Page-1" id="6133507b-19e7-1e82-6fc7-422aa6c4b21f">
    <mxGraphModel dx="404" dy="2448" grid="1" gridSize="10" guides="1" tooltips="1" connect="1" arrows="1" fold="1" page="1" pageScale="1" pageWidth="850" pageHeight="1100" background="none" math="0" shadow="0">
      <root>
        <mxCell id="0" />
        <mxCell id="1" parent="0" />
        <mxCell id="I0qqI5XusfE8nYUbzfX7-13" value="FOOD" style="swimlane;html=1;fontStyle=1;align=center;verticalAlign=top;childLayout=stackLayout;horizontal=1;startSize=26;horizontalStack=0;resizeParent=1;resizeLast=0;collapsible=1;marginBottom=0;swimlaneFillColor=#ffffff;rounded=0;shadow=0;comic=0;labelBackgroundColor=none;strokeWidth=1;fillColor=none;fontFamily=Verdana;fontSize=12" parent="1" vertex="1">
          <mxGeometry x="760" y="780" width="160" height="182" as="geometry" />
        </mxCell>
        <mxCell id="I0qqI5XusfE8nYUbzfX7-14" value="- Food ID" style="text;html=1;strokeColor=none;fillColor=none;align=left;verticalAlign=top;spacingLeft=4;spacingRight=4;whiteSpace=wrap;overflow=hidden;rotatable=0;points=[[0,0.5],[1,0.5]];portConstraint=eastwest;" parent="I0qqI5XusfE8nYUbzfX7-13" vertex="1">
          <mxGeometry y="26" width="160" height="26" as="geometry" />
        </mxCell>
        <mxCell id="I0qqI5XusfE8nYUbzfX7-16" value="- Name" style="text;html=1;strokeColor=none;fillColor=none;align=left;verticalAlign=top;spacingLeft=4;spacingRight=4;whiteSpace=wrap;overflow=hidden;rotatable=0;points=[[0,0.5],[1,0.5]];portConstraint=eastwest;" parent="I0qqI5XusfE8nYUbzfX7-13" vertex="1">
          <mxGeometry y="52" width="160" height="26" as="geometry" />
        </mxCell>
        <mxCell id="I0qqI5XusfE8nYUbzfX7-54" value="- Category" style="text;html=1;strokeColor=none;fillColor=none;align=left;verticalAlign=top;spacingLeft=4;spacingRight=4;whiteSpace=wrap;overflow=hidden;rotatable=0;points=[[0,0.5],[1,0.5]];portConstraint=eastwest;" parent="I0qqI5XusfE8nYUbzfX7-13" vertex="1">
          <mxGeometry y="78" width="160" height="26" as="geometry" />
        </mxCell>
        <mxCell id="I0qqI5XusfE8nYUbzfX7-55" value="- Price" style="text;html=1;strokeColor=none;fillColor=none;align=left;verticalAlign=top;spacingLeft=4;spacingRight=4;whiteSpace=wrap;overflow=hidden;rotatable=0;points=[[0,0.5],[1,0.5]];portConstraint=eastwest;" parent="I0qqI5XusfE8nYUbzfX7-13" vertex="1">
          <mxGeometry y="104" width="160" height="26" as="geometry" />
        </mxCell>
        <mxCell id="V8HqpkSFx4EVLyuixHh1-19" value="- Food Information" style="text;html=1;strokeColor=none;fillColor=none;align=left;verticalAlign=top;spacingLeft=4;spacingRight=4;whiteSpace=wrap;overflow=hidden;rotatable=0;points=[[0,0.5],[1,0.5]];portConstraint=eastwest;" parent="I0qqI5XusfE8nYUbzfX7-13" vertex="1">
          <mxGeometry y="130" width="160" height="26" as="geometry" />
        </mxCell>
        <mxCell id="V8HqpkSFx4EVLyuixHh1-20" value="- Quantity" style="text;html=1;strokeColor=none;fillColor=none;align=left;verticalAlign=top;spacingLeft=4;spacingRight=4;whiteSpace=wrap;overflow=hidden;rotatable=0;points=[[0,0.5],[1,0.5]];portConstraint=eastwest;" parent="I0qqI5XusfE8nYUbzfX7-13" vertex="1">
          <mxGeometry y="156" width="160" height="26" as="geometry" />
        </mxCell>
        <mxCell id="I0qqI5XusfE8nYUbzfX7-45" value="ORDER / BASKET" style="swimlane;html=1;fontStyle=1;align=center;verticalAlign=top;childLayout=stackLayout;horizontal=1;startSize=26;horizontalStack=0;resizeParent=1;resizeLast=0;collapsible=1;marginBottom=0;swimlaneFillColor=#ffffff;rounded=0;shadow=0;comic=0;labelBackgroundColor=none;strokeWidth=1;fillColor=none;fontFamily=Verdana;fontSize=12" parent="1" vertex="1">
          <mxGeometry x="760" y="360" width="160" height="180" as="geometry">
            <mxRectangle x="510" y="60" width="90" height="30" as="alternateBounds" />
          </mxGeometry>
        </mxCell>
        <mxCell id="I0qqI5XusfE8nYUbzfX7-46" value="- Arrive hour" style="text;html=1;strokeColor=none;fillColor=none;align=left;verticalAlign=top;spacingLeft=4;spacingRight=4;whiteSpace=wrap;overflow=hidden;rotatable=0;points=[[0,0.5],[1,0.5]];portConstraint=eastwest;" parent="I0qqI5XusfE8nYUbzfX7-45" vertex="1">
          <mxGeometry y="26" width="160" height="26" as="geometry" />
        </mxCell>
        <mxCell id="I0qqI5XusfE8nYUbzfX7-47" value="- Completed status" style="text;html=1;strokeColor=none;fillColor=none;align=left;verticalAlign=top;spacingLeft=4;spacingRight=4;whiteSpace=wrap;overflow=hidden;rotatable=0;points=[[0,0.5],[1,0.5]];portConstraint=eastwest;" parent="I0qqI5XusfE8nYUbzfX7-45" vertex="1">
          <mxGeometry y="52" width="160" height="26" as="geometry" />
        </mxCell>
        <mxCell id="I0qqI5XusfE8nYUbzfX7-49" value="- Order ID" style="text;html=1;strokeColor=none;fillColor=none;align=left;verticalAlign=top;spacingLeft=4;spacingRight=4;whiteSpace=wrap;overflow=hidden;rotatable=0;points=[[0,0.5],[1,0.5]];portConstraint=eastwest;" parent="I0qqI5XusfE8nYUbzfX7-45" vertex="1">
          <mxGeometry y="78" width="160" height="26" as="geometry" />
        </mxCell>
        <mxCell id="I0qqI5XusfE8nYUbzfX7-62" value="- Delivered status" style="text;html=1;strokeColor=none;fillColor=none;align=left;verticalAlign=top;spacingLeft=4;spacingRight=4;whiteSpace=wrap;overflow=hidden;rotatable=0;points=[[0,0.5],[1,0.5]];portConstraint=eastwest;" parent="I0qqI5XusfE8nYUbzfX7-45" vertex="1">
          <mxGeometry y="104" width="160" height="26" as="geometry" />
        </mxCell>
        <mxCell id="V8HqpkSFx4EVLyuixHh1-18" value="- Turn&lt;br&gt;" style="text;html=1;strokeColor=none;fillColor=none;align=left;verticalAlign=top;spacingLeft=4;spacingRight=4;whiteSpace=wrap;overflow=hidden;rotatable=0;points=[[0,0.5],[1,0.5]];portConstraint=eastwest;" parent="I0qqI5XusfE8nYUbzfX7-45" vertex="1">
          <mxGeometry y="130" width="160" height="26" as="geometry" />
        </mxCell>
        <mxCell id="V8HqpkSFx4EVLyuixHh1-1" value="USER" style="swimlane;html=1;fontStyle=1;align=center;verticalAlign=top;childLayout=stackLayout;horizontal=1;startSize=26;horizontalStack=0;resizeParent=1;resizeLast=0;collapsible=1;marginBottom=0;swimlaneFillColor=#ffffff;rounded=0;shadow=0;comic=0;labelBackgroundColor=none;strokeWidth=1;fillColor=none;fontFamily=Verdana;fontSize=12" parent="1" vertex="1">
          <mxGeometry x="130" y="358" width="160" height="182" as="geometry" />
        </mxCell>
        <mxCell id="V8HqpkSFx4EVLyuixHh1-2" value="- First name" style="text;html=1;strokeColor=none;fillColor=none;align=left;verticalAlign=top;spacingLeft=4;spacingRight=4;whiteSpace=wrap;overflow=hidden;rotatable=0;points=[[0,0.5],[1,0.5]];portConstraint=eastwest;" parent="V8HqpkSFx4EVLyuixHh1-1" vertex="1">
          <mxGeometry y="26" width="160" height="26" as="geometry" />
        </mxCell>
        <mxCell id="V8HqpkSFx4EVLyuixHh1-3" value="- Last name" style="text;html=1;strokeColor=none;fillColor=none;align=left;verticalAlign=top;spacingLeft=4;spacingRight=4;whiteSpace=wrap;overflow=hidden;rotatable=0;points=[[0,0.5],[1,0.5]];portConstraint=eastwest;" parent="V8HqpkSFx4EVLyuixHh1-1" vertex="1">
          <mxGeometry y="52" width="160" height="26" as="geometry" />
        </mxCell>
        <mxCell id="V8HqpkSFx4EVLyuixHh1-4" value="- User ID (username)" style="text;html=1;strokeColor=none;fillColor=none;align=left;verticalAlign=top;spacingLeft=4;spacingRight=4;whiteSpace=wrap;overflow=hidden;rotatable=0;points=[[0,0.5],[1,0.5]];portConstraint=eastwest;" parent="V8HqpkSFx4EVLyuixHh1-1" vertex="1">
          <mxGeometry y="78" width="160" height="26" as="geometry" />
        </mxCell>
        <mxCell id="V8HqpkSFx4EVLyuixHh1-5" value="- Email" style="text;html=1;strokeColor=none;fillColor=none;align=left;verticalAlign=top;spacingLeft=4;spacingRight=4;whiteSpace=wrap;overflow=hidden;rotatable=0;points=[[0,0.5],[1,0.5]];portConstraint=eastwest;" parent="V8HqpkSFx4EVLyuixHh1-1" vertex="1">
          <mxGeometry y="104" width="160" height="26" as="geometry" />
        </mxCell>
        <mxCell id="V8HqpkSFx4EVLyuixHh1-6" value="- Password" style="text;html=1;strokeColor=none;fillColor=none;align=left;verticalAlign=top;spacingLeft=4;spacingRight=4;whiteSpace=wrap;overflow=hidden;rotatable=0;points=[[0,0.5],[1,0.5]];portConstraint=eastwest;" parent="V8HqpkSFx4EVLyuixHh1-1" vertex="1">
          <mxGeometry y="130" width="160" height="26" as="geometry" />
        </mxCell>
        <mxCell id="V8HqpkSFx4EVLyuixHh1-7" value="- Mobile" style="text;html=1;strokeColor=none;fillColor=none;align=left;verticalAlign=top;spacingLeft=4;spacingRight=4;whiteSpace=wrap;overflow=hidden;rotatable=0;points=[[0,0.5],[1,0.5]];portConstraint=eastwest;" parent="V8HqpkSFx4EVLyuixHh1-1" vertex="1">
          <mxGeometry y="156" width="160" height="26" as="geometry" />
        </mxCell>
        <mxCell id="V8HqpkSFx4EVLyuixHh1-8" value="TURN" style="swimlane;html=1;fontStyle=1;align=center;verticalAlign=top;childLayout=stackLayout;horizontal=1;startSize=26;horizontalStack=0;resizeParent=1;resizeLast=0;collapsible=1;marginBottom=0;swimlaneFillColor=#ffffff;rounded=0;shadow=0;comic=0;labelBackgroundColor=none;strokeWidth=1;fillColor=none;fontFamily=Verdana;fontSize=12" parent="1" vertex="1">
          <mxGeometry x="440" y="360" width="160" height="130" as="geometry">
            <mxRectangle x="520" y="285" width="80" height="30" as="alternateBounds" />
          </mxGeometry>
        </mxCell>
        <mxCell id="V8HqpkSFx4EVLyuixHh1-9" value="- User first name" style="text;html=1;strokeColor=none;fillColor=none;align=left;verticalAlign=top;spacingLeft=4;spacingRight=4;whiteSpace=wrap;overflow=hidden;rotatable=0;points=[[0,0.5],[1,0.5]];portConstraint=eastwest;" parent="V8HqpkSFx4EVLyuixHh1-8" vertex="1">
          <mxGeometry y="26" width="160" height="26" as="geometry" />
        </mxCell>
        <mxCell id="V8HqpkSFx4EVLyuixHh1-10" value="- User last name" style="text;html=1;strokeColor=none;fillColor=none;align=left;verticalAlign=top;spacingLeft=4;spacingRight=4;whiteSpace=wrap;overflow=hidden;rotatable=0;points=[[0,0.5],[1,0.5]];portConstraint=eastwest;" parent="V8HqpkSFx4EVLyuixHh1-8" vertex="1">
          <mxGeometry y="52" width="160" height="26" as="geometry" />
        </mxCell>
        <mxCell id="V8HqpkSFx4EVLyuixHh1-11" value="- User mobile" style="text;html=1;strokeColor=none;fillColor=none;align=left;verticalAlign=top;spacingLeft=4;spacingRight=4;whiteSpace=wrap;overflow=hidden;rotatable=0;points=[[0,0.5],[1,0.5]];portConstraint=eastwest;" parent="V8HqpkSFx4EVLyuixHh1-8" vertex="1">
          <mxGeometry y="78" width="160" height="26" as="geometry" />
        </mxCell>
        <mxCell id="V8HqpkSFx4EVLyuixHh1-15" value="- User" style="text;html=1;strokeColor=none;fillColor=none;align=left;verticalAlign=top;spacingLeft=4;spacingRight=4;whiteSpace=wrap;overflow=hidden;rotatable=0;points=[[0,0.5],[1,0.5]];portConstraint=eastwest;" parent="V8HqpkSFx4EVLyuixHh1-8" vertex="1">
          <mxGeometry y="104" width="160" height="26" as="geometry" />
        </mxCell>
        <mxCell id="V8HqpkSFx4EVLyuixHh1-12" value="FOOD CATEGORY" style="swimlane;html=1;fontStyle=1;align=center;verticalAlign=top;childLayout=stackLayout;horizontal=1;startSize=26;horizontalStack=0;resizeParent=1;resizeLast=0;collapsible=1;marginBottom=0;swimlaneFillColor=#ffffff;rounded=0;shadow=0;comic=0;labelBackgroundColor=none;strokeWidth=1;fillColor=none;fontFamily=Verdana;fontSize=12" parent="1" vertex="1">
          <mxGeometry x="265" y="810" width="160" height="90" as="geometry">
            <mxRectangle x="510" y="260" width="80" height="30" as="alternateBounds" />
          </mxGeometry>
        </mxCell>
        <mxCell id="V8HqpkSFx4EVLyuixHh1-13" value="&lt;span style=&quot;text-align: center;&quot;&gt;- Category ID&lt;/span&gt;" style="text;html=1;strokeColor=none;fillColor=none;align=left;verticalAlign=top;spacingLeft=4;spacingRight=4;whiteSpace=wrap;overflow=hidden;rotatable=0;points=[[0,0.5],[1,0.5]];portConstraint=eastwest;" parent="V8HqpkSFx4EVLyuixHh1-12" vertex="1">
          <mxGeometry y="26" width="160" height="24" as="geometry" />
        </mxCell>
        <mxCell id="V8HqpkSFx4EVLyuixHh1-14" value="&lt;span style=&quot;text-align: center;&quot;&gt;- Name&lt;/span&gt;" style="text;html=1;strokeColor=none;fillColor=none;align=left;verticalAlign=top;spacingLeft=4;spacingRight=4;whiteSpace=wrap;overflow=hidden;rotatable=0;points=[[0,0.5],[1,0.5]];portConstraint=eastwest;" parent="V8HqpkSFx4EVLyuixHh1-12" vertex="1">
          <mxGeometry y="50" width="160" height="24" as="geometry" />
        </mxCell>
        <mxCell id="V8HqpkSFx4EVLyuixHh1-21" value="ORDER &amp;amp;&amp;amp; FOOD———&lt;br&gt;&amp;nbsp;- Order ID&lt;br&gt;- Quantity&lt;br&gt;- Food ID&lt;br&gt;&amp;nbsp;- Price" style="rhombus;whiteSpace=wrap;html=1;fontSize=16;" parent="1" vertex="1">
          <mxGeometry x="760" y="590" width="160" height="160" as="geometry" />
        </mxCell>
        <mxCell id="V8HqpkSFx4EVLyuixHh1-24" value="CAETGORY &amp;amp;&amp;amp; FOOD&lt;br&gt;———&lt;br&gt;- Food ID&lt;br&gt;- Category ID" style="rhombus;whiteSpace=wrap;html=1;fontSize=16;" parent="1" vertex="1">
          <mxGeometry x="500" y="791" width="200" height="160" as="geometry" />
        </mxCell>
        <mxCell id="V8HqpkSFx4EVLyuixHh1-29" value="USER" style="swimlane;html=1;fontStyle=1;align=center;verticalAlign=top;childLayout=stackLayout;horizontal=1;startSize=26;horizontalStack=0;resizeParent=1;resizeLast=0;collapsible=1;marginBottom=0;swimlaneFillColor=#ffffff;rounded=0;shadow=0;comic=0;labelBackgroundColor=none;strokeWidth=1;fillColor=none;fontFamily=Verdana;fontSize=12" parent="1" vertex="1">
          <mxGeometry x="30" y="-670" width="160" height="342.9137423968337" as="geometry" />
        </mxCell>
        <mxCell id="V8HqpkSFx4EVLyuixHh1-30" value="- First name" style="text;html=1;strokeColor=none;fillColor=none;align=left;verticalAlign=top;spacingLeft=4;spacingRight=4;whiteSpace=wrap;overflow=hidden;rotatable=0;points=[[0,0.5],[1,0.5]];portConstraint=eastwest;" parent="V8HqpkSFx4EVLyuixHh1-29" vertex="1">
          <mxGeometry y="26" width="160" height="26" as="geometry" />
        </mxCell>
        <mxCell id="V8HqpkSFx4EVLyuixHh1-31" value="- Last name" style="text;html=1;strokeColor=none;fillColor=none;align=left;verticalAlign=top;spacingLeft=4;spacingRight=4;whiteSpace=wrap;overflow=hidden;rotatable=0;points=[[0,0.5],[1,0.5]];portConstraint=eastwest;" parent="V8HqpkSFx4EVLyuixHh1-29" vertex="1">
          <mxGeometry y="52" width="160" height="26" as="geometry" />
        </mxCell>
        <mxCell id="V8HqpkSFx4EVLyuixHh1-32" value="- User ID (username)" style="text;html=1;strokeColor=none;fillColor=none;align=left;verticalAlign=top;spacingLeft=4;spacingRight=4;whiteSpace=wrap;overflow=hidden;rotatable=0;points=[[0,0.5],[1,0.5]];portConstraint=eastwest;" parent="V8HqpkSFx4EVLyuixHh1-29" vertex="1">
          <mxGeometry y="78" width="160" height="26" as="geometry" />
        </mxCell>
        <mxCell id="V8HqpkSFx4EVLyuixHh1-33" value="- Email" style="text;html=1;strokeColor=none;fillColor=none;align=left;verticalAlign=top;spacingLeft=4;spacingRight=4;whiteSpace=wrap;overflow=hidden;rotatable=0;points=[[0,0.5],[1,0.5]];portConstraint=eastwest;" parent="V8HqpkSFx4EVLyuixHh1-29" vertex="1">
          <mxGeometry y="104" width="160" height="26" as="geometry" />
        </mxCell>
        <mxCell id="V8HqpkSFx4EVLyuixHh1-34" value="- Password" style="text;html=1;strokeColor=none;fillColor=none;align=left;verticalAlign=top;spacingLeft=4;spacingRight=4;whiteSpace=wrap;overflow=hidden;rotatable=0;points=[[0,0.5],[1,0.5]];portConstraint=eastwest;" parent="V8HqpkSFx4EVLyuixHh1-29" vertex="1">
          <mxGeometry y="130" width="160" height="26" as="geometry" />
        </mxCell>
        <mxCell id="V8HqpkSFx4EVLyuixHh1-35" value="- Mobile" style="text;html=1;strokeColor=none;fillColor=none;align=left;verticalAlign=top;spacingLeft=4;spacingRight=4;whiteSpace=wrap;overflow=hidden;rotatable=0;points=[[0,0.5],[1,0.5]];portConstraint=eastwest;" parent="V8HqpkSFx4EVLyuixHh1-29" vertex="1">
          <mxGeometry y="156" width="160" height="26" as="geometry" />
        </mxCell>
        <mxCell id="NxPwZrn8tIDm6cM4T6ja-19" value="" style="shape=link;html=1;rounded=0;entryX=0.995;entryY=-0.023;entryDx=0;entryDy=0;entryPerimeter=0;strokeColor=#000000;strokeWidth=3;" parent="V8HqpkSFx4EVLyuixHh1-29" edge="1">
          <mxGeometry width="100" relative="1" as="geometry">
            <mxPoint x="1" y="183" as="sourcePoint" />
            <mxPoint x="160" y="182" as="targetPoint" />
          </mxGeometry>
        </mxCell>
        <mxCell id="V8HqpkSFx4EVLyuixHh1-43" value="- firstName (string)" style="text;html=1;strokeColor=none;fillColor=none;align=left;verticalAlign=top;spacingLeft=4;spacingRight=4;whiteSpace=wrap;overflow=hidden;rotatable=0;points=[[0,0.5],[1,0.5]];portConstraint=eastwest;" parent="V8HqpkSFx4EVLyuixHh1-29" vertex="1">
          <mxGeometry y="182" width="160" height="26" as="geometry" />
        </mxCell>
        <mxCell id="V8HqpkSFx4EVLyuixHh1-44" value="- lastName (string)" style="text;html=1;strokeColor=none;fillColor=none;align=left;verticalAlign=top;spacingLeft=4;spacingRight=4;whiteSpace=wrap;overflow=hidden;rotatable=0;points=[[0,0.5],[1,0.5]];portConstraint=eastwest;" parent="V8HqpkSFx4EVLyuixHh1-29" vertex="1">
          <mxGeometry y="208" width="160" height="26" as="geometry" />
        </mxCell>
        <mxCell id="V8HqpkSFx4EVLyuixHh1-48" value="- mobile (int)" style="text;html=1;strokeColor=none;fillColor=none;align=left;verticalAlign=top;spacingLeft=4;spacingRight=4;whiteSpace=wrap;overflow=hidden;rotatable=0;points=[[0,0.5],[1,0.5]];portConstraint=eastwest;" parent="V8HqpkSFx4EVLyuixHh1-29" vertex="1">
          <mxGeometry y="234" width="160" height="26" as="geometry" />
        </mxCell>
        <mxCell id="V8HqpkSFx4EVLyuixHh1-47" value="- password (string)" style="text;html=1;strokeColor=none;fillColor=none;align=left;verticalAlign=top;spacingLeft=4;spacingRight=4;whiteSpace=wrap;overflow=hidden;rotatable=0;points=[[0,0.5],[1,0.5]];portConstraint=eastwest;" parent="V8HqpkSFx4EVLyuixHh1-29" vertex="1">
          <mxGeometry y="260" width="160" height="26" as="geometry" />
        </mxCell>
        <mxCell id="V8HqpkSFx4EVLyuixHh1-46" value="- email (string)" style="text;html=1;strokeColor=none;fillColor=none;align=left;verticalAlign=top;spacingLeft=4;spacingRight=4;whiteSpace=wrap;overflow=hidden;rotatable=0;points=[[0,0.5],[1,0.5]];portConstraint=eastwest;" parent="V8HqpkSFx4EVLyuixHh1-29" vertex="1">
          <mxGeometry y="286" width="160" height="26" as="geometry" />
        </mxCell>
        <mxCell id="V8HqpkSFx4EVLyuixHh1-45" value="- userID (string)" style="text;html=1;strokeColor=none;fillColor=none;align=left;verticalAlign=top;spacingLeft=4;spacingRight=4;whiteSpace=wrap;overflow=hidden;rotatable=0;points=[[0,0.5],[1,0.5]];portConstraint=eastwest;" parent="V8HqpkSFx4EVLyuixHh1-29" vertex="1">
          <mxGeometry y="312" width="160" height="26" as="geometry" />
        </mxCell>
        <mxCell id="V8HqpkSFx4EVLyuixHh1-49" value="TURN" style="swimlane;html=1;fontStyle=1;align=center;verticalAlign=top;childLayout=stackLayout;horizontal=1;startSize=26;horizontalStack=0;resizeParent=1;resizeLast=0;collapsible=1;marginBottom=0;swimlaneFillColor=#ffffff;rounded=0;shadow=0;comic=0;labelBackgroundColor=none;strokeWidth=1;fillColor=none;fontFamily=Verdana;fontSize=12" parent="1" vertex="1">
          <mxGeometry x="1390" y="-720" width="160" height="240" as="geometry">
            <mxRectangle x="520" y="285" width="80" height="30" as="alternateBounds" />
          </mxGeometry>
        </mxCell>
        <mxCell id="V8HqpkSFx4EVLyuixHh1-50" value="- User first name" style="text;html=1;strokeColor=none;fillColor=none;align=left;verticalAlign=top;spacingLeft=4;spacingRight=4;whiteSpace=wrap;overflow=hidden;rotatable=0;points=[[0,0.5],[1,0.5]];portConstraint=eastwest;" parent="V8HqpkSFx4EVLyuixHh1-49" vertex="1">
          <mxGeometry y="26" width="160" height="26" as="geometry" />
        </mxCell>
        <mxCell id="V8HqpkSFx4EVLyuixHh1-51" value="- User last name" style="text;html=1;strokeColor=none;fillColor=none;align=left;verticalAlign=top;spacingLeft=4;spacingRight=4;whiteSpace=wrap;overflow=hidden;rotatable=0;points=[[0,0.5],[1,0.5]];portConstraint=eastwest;" parent="V8HqpkSFx4EVLyuixHh1-49" vertex="1">
          <mxGeometry y="52" width="160" height="26" as="geometry" />
        </mxCell>
        <mxCell id="V8HqpkSFx4EVLyuixHh1-52" value="- User mobile" style="text;html=1;strokeColor=none;fillColor=none;align=left;verticalAlign=top;spacingLeft=4;spacingRight=4;whiteSpace=wrap;overflow=hidden;rotatable=0;points=[[0,0.5],[1,0.5]];portConstraint=eastwest;" parent="V8HqpkSFx4EVLyuixHh1-49" vertex="1">
          <mxGeometry y="78" width="160" height="26" as="geometry" />
        </mxCell>
        <mxCell id="V8HqpkSFx4EVLyuixHh1-53" value="- User ID" style="text;html=1;strokeColor=none;fillColor=none;align=left;verticalAlign=top;spacingLeft=4;spacingRight=4;whiteSpace=wrap;overflow=hidden;rotatable=0;points=[[0,0.5],[1,0.5]];portConstraint=eastwest;" parent="V8HqpkSFx4EVLyuixHh1-49" vertex="1">
          <mxGeometry y="104" width="160" height="26" as="geometry" />
        </mxCell>
        <mxCell id="NxPwZrn8tIDm6cM4T6ja-18" value="" style="shape=link;html=1;rounded=0;entryX=0.995;entryY=-0.023;entryDx=0;entryDy=0;entryPerimeter=0;strokeColor=#000000;strokeWidth=3;" parent="V8HqpkSFx4EVLyuixHh1-49" edge="1">
          <mxGeometry width="100" relative="1" as="geometry">
            <mxPoint y="131" as="sourcePoint" />
            <mxPoint x="159" y="130" as="targetPoint" />
          </mxGeometry>
        </mxCell>
        <mxCell id="V8HqpkSFx4EVLyuixHh1-54" value="- user.firstName (string)" style="text;html=1;strokeColor=none;fillColor=none;align=left;verticalAlign=top;spacingLeft=4;spacingRight=4;whiteSpace=wrap;overflow=hidden;rotatable=0;points=[[0,0.5],[1,0.5]];portConstraint=eastwest;" parent="V8HqpkSFx4EVLyuixHh1-49" vertex="1">
          <mxGeometry y="130" width="160" height="26" as="geometry" />
        </mxCell>
        <mxCell id="V8HqpkSFx4EVLyuixHh1-56" value="- user.lastName (string)" style="text;html=1;strokeColor=none;fillColor=none;align=left;verticalAlign=top;spacingLeft=4;spacingRight=4;whiteSpace=wrap;overflow=hidden;rotatable=0;points=[[0,0.5],[1,0.5]];portConstraint=eastwest;" parent="V8HqpkSFx4EVLyuixHh1-49" vertex="1">
          <mxGeometry y="156" width="160" height="26" as="geometry" />
        </mxCell>
        <mxCell id="V8HqpkSFx4EVLyuixHh1-57" value="- user.userID (string)" style="text;html=1;strokeColor=none;fillColor=none;align=left;verticalAlign=top;spacingLeft=4;spacingRight=4;whiteSpace=wrap;overflow=hidden;rotatable=0;points=[[0,0.5],[1,0.5]];portConstraint=eastwest;" parent="V8HqpkSFx4EVLyuixHh1-49" vertex="1">
          <mxGeometry y="182" width="160" height="26" as="geometry" />
        </mxCell>
        <mxCell id="V8HqpkSFx4EVLyuixHh1-55" value="- user.mobile (int)" style="text;html=1;strokeColor=none;fillColor=none;align=left;verticalAlign=top;spacingLeft=4;spacingRight=4;whiteSpace=wrap;overflow=hidden;rotatable=0;points=[[0,0.5],[1,0.5]];portConstraint=eastwest;" parent="V8HqpkSFx4EVLyuixHh1-49" vertex="1">
          <mxGeometry y="208" width="160" height="26" as="geometry" />
        </mxCell>
        <mxCell id="V8HqpkSFx4EVLyuixHh1-59" value="FOOD CATEGORY" style="swimlane;html=1;fontStyle=1;align=center;verticalAlign=top;childLayout=stackLayout;horizontal=1;startSize=26;horizontalStack=0;resizeParent=1;resizeLast=0;collapsible=1;marginBottom=0;swimlaneFillColor=#ffffff;rounded=0;shadow=0;comic=0;labelBackgroundColor=none;strokeWidth=1;fillColor=none;fontFamily=Verdana;fontSize=12" parent="1" vertex="1">
          <mxGeometry x="600" y="-720" width="160" height="130" as="geometry">
            <mxRectangle x="510" y="260" width="80" height="30" as="alternateBounds" />
          </mxGeometry>
        </mxCell>
        <mxCell id="V8HqpkSFx4EVLyuixHh1-60" value="&lt;span style=&quot;text-align: center;&quot;&gt;- Category ID&lt;/span&gt;" style="text;html=1;strokeColor=none;fillColor=none;align=left;verticalAlign=top;spacingLeft=4;spacingRight=4;whiteSpace=wrap;overflow=hidden;rotatable=0;points=[[0,0.5],[1,0.5]];portConstraint=eastwest;" parent="V8HqpkSFx4EVLyuixHh1-59" vertex="1">
          <mxGeometry y="26" width="160" height="24" as="geometry" />
        </mxCell>
        <mxCell id="V8HqpkSFx4EVLyuixHh1-61" value="&lt;span style=&quot;text-align: center;&quot;&gt;- Name&lt;/span&gt;" style="text;html=1;strokeColor=none;fillColor=none;align=left;verticalAlign=top;spacingLeft=4;spacingRight=4;whiteSpace=wrap;overflow=hidden;rotatable=0;points=[[0,0.5],[1,0.5]];portConstraint=eastwest;" parent="V8HqpkSFx4EVLyuixHh1-59" vertex="1">
          <mxGeometry y="50" width="160" height="24" as="geometry" />
        </mxCell>
        <mxCell id="NxPwZrn8tIDm6cM4T6ja-21" value="" style="shape=link;html=1;rounded=0;entryX=0.995;entryY=-0.023;entryDx=0;entryDy=0;entryPerimeter=0;strokeColor=#000000;strokeWidth=3;" parent="V8HqpkSFx4EVLyuixHh1-59" edge="1">
          <mxGeometry width="100" relative="1" as="geometry">
            <mxPoint y="75" as="sourcePoint" />
            <mxPoint x="159" y="74" as="targetPoint" />
          </mxGeometry>
        </mxCell>
        <mxCell id="V8HqpkSFx4EVLyuixHh1-64" value="&lt;span style=&quot;text-align: center;&quot;&gt;- foodName (string)&lt;/span&gt;" style="text;html=1;strokeColor=none;fillColor=none;align=left;verticalAlign=top;spacingLeft=4;spacingRight=4;whiteSpace=wrap;overflow=hidden;rotatable=0;points=[[0,0.5],[1,0.5]];portConstraint=eastwest;" parent="V8HqpkSFx4EVLyuixHh1-59" vertex="1">
          <mxGeometry y="74" width="160" height="24" as="geometry" />
        </mxCell>
        <mxCell id="V8HqpkSFx4EVLyuixHh1-63" value="&lt;span style=&quot;text-align: center;&quot;&gt;- categoryID (string)&lt;/span&gt;" style="text;html=1;strokeColor=none;fillColor=none;align=left;verticalAlign=top;spacingLeft=4;spacingRight=4;whiteSpace=wrap;overflow=hidden;rotatable=0;points=[[0,0.5],[1,0.5]];portConstraint=eastwest;" parent="V8HqpkSFx4EVLyuixHh1-59" vertex="1">
          <mxGeometry y="98" width="160" height="24" as="geometry" />
        </mxCell>
        <mxCell id="5gyPYeoW1LZMkjKKsvoC-3" value="ORDER / BASKET" style="swimlane;html=1;fontStyle=1;align=center;verticalAlign=top;childLayout=stackLayout;horizontal=1;startSize=26;horizontalStack=0;resizeParent=1;resizeLast=0;collapsible=1;marginBottom=0;swimlaneFillColor=#ffffff;rounded=0;shadow=0;comic=0;labelBackgroundColor=none;strokeWidth=1;fillColor=none;fontFamily=Verdana;fontSize=12" parent="1" vertex="1">
          <mxGeometry x="1140" y="-720" width="160" height="290" as="geometry">
            <mxRectangle x="510" y="60" width="90" height="30" as="alternateBounds" />
          </mxGeometry>
        </mxCell>
        <mxCell id="5gyPYeoW1LZMkjKKsvoC-4" value="- Arrive hour" style="text;html=1;strokeColor=none;fillColor=none;align=left;verticalAlign=top;spacingLeft=4;spacingRight=4;whiteSpace=wrap;overflow=hidden;rotatable=0;points=[[0,0.5],[1,0.5]];portConstraint=eastwest;" parent="5gyPYeoW1LZMkjKKsvoC-3" vertex="1">
          <mxGeometry y="26" width="160" height="26" as="geometry" />
        </mxCell>
        <mxCell id="5gyPYeoW1LZMkjKKsvoC-5" value="- Completed status" style="text;html=1;strokeColor=none;fillColor=none;align=left;verticalAlign=top;spacingLeft=4;spacingRight=4;whiteSpace=wrap;overflow=hidden;rotatable=0;points=[[0,0.5],[1,0.5]];portConstraint=eastwest;" parent="5gyPYeoW1LZMkjKKsvoC-3" vertex="1">
          <mxGeometry y="52" width="160" height="26" as="geometry" />
        </mxCell>
        <mxCell id="5gyPYeoW1LZMkjKKsvoC-6" value="- Order ID" style="text;html=1;strokeColor=none;fillColor=none;align=left;verticalAlign=top;spacingLeft=4;spacingRight=4;whiteSpace=wrap;overflow=hidden;rotatable=0;points=[[0,0.5],[1,0.5]];portConstraint=eastwest;" parent="5gyPYeoW1LZMkjKKsvoC-3" vertex="1">
          <mxGeometry y="78" width="160" height="26" as="geometry" />
        </mxCell>
        <mxCell id="5gyPYeoW1LZMkjKKsvoC-7" value="- Delivered status" style="text;html=1;strokeColor=none;fillColor=none;align=left;verticalAlign=top;spacingLeft=4;spacingRight=4;whiteSpace=wrap;overflow=hidden;rotatable=0;points=[[0,0.5],[1,0.5]];portConstraint=eastwest;" parent="5gyPYeoW1LZMkjKKsvoC-3" vertex="1">
          <mxGeometry y="104" width="160" height="26" as="geometry" />
        </mxCell>
        <mxCell id="5gyPYeoW1LZMkjKKsvoC-8" value="- Turn ID" style="text;html=1;strokeColor=none;fillColor=none;align=left;verticalAlign=top;spacingLeft=4;spacingRight=4;whiteSpace=wrap;overflow=hidden;rotatable=0;points=[[0,0.5],[1,0.5]];portConstraint=eastwest;" parent="5gyPYeoW1LZMkjKKsvoC-3" vertex="1">
          <mxGeometry y="130" width="160" height="26" as="geometry" />
        </mxCell>
        <mxCell id="5gyPYeoW1LZMkjKKsvoC-17" value="" style="shape=link;html=1;rounded=0;entryX=0.995;entryY=-0.023;entryDx=0;entryDy=0;entryPerimeter=0;strokeColor=#000000;strokeWidth=3;" parent="5gyPYeoW1LZMkjKKsvoC-3" target="5gyPYeoW1LZMkjKKsvoC-9" edge="1">
          <mxGeometry width="100" relative="1" as="geometry">
            <mxPoint y="156" as="sourcePoint" />
            <mxPoint x="100" y="156" as="targetPoint" />
          </mxGeometry>
        </mxCell>
        <mxCell id="5gyPYeoW1LZMkjKKsvoC-9" value="- arrive.hour (int)" style="text;html=1;strokeColor=none;fillColor=none;align=left;verticalAlign=top;spacingLeft=4;spacingRight=4;whiteSpace=wrap;overflow=hidden;rotatable=0;points=[[0,0.5],[1,0.5]];portConstraint=eastwest;" parent="5gyPYeoW1LZMkjKKsvoC-3" vertex="1">
          <mxGeometry y="156" width="160" height="26" as="geometry" />
        </mxCell>
        <mxCell id="5gyPYeoW1LZMkjKKsvoC-10" value="-completed.status (string)" style="text;html=1;strokeColor=none;fillColor=none;align=left;verticalAlign=top;spacingLeft=4;spacingRight=4;whiteSpace=wrap;overflow=hidden;rotatable=0;points=[[0,0.5],[1,0.5]];portConstraint=eastwest;" parent="5gyPYeoW1LZMkjKKsvoC-3" vertex="1">
          <mxGeometry y="182" width="160" height="26" as="geometry" />
        </mxCell>
        <mxCell id="5gyPYeoW1LZMkjKKsvoC-11" value="-order.ID (int)" style="text;html=1;strokeColor=none;fillColor=none;align=left;verticalAlign=top;spacingLeft=4;spacingRight=4;whiteSpace=wrap;overflow=hidden;rotatable=0;points=[[0,0.5],[1,0.5]];portConstraint=eastwest;" parent="5gyPYeoW1LZMkjKKsvoC-3" vertex="1">
          <mxGeometry y="208" width="160" height="26" as="geometry" />
        </mxCell>
        <mxCell id="5gyPYeoW1LZMkjKKsvoC-12" value="-delivered.status (string)" style="text;html=1;strokeColor=none;fillColor=none;align=left;verticalAlign=top;spacingLeft=4;spacingRight=4;whiteSpace=wrap;overflow=hidden;rotatable=0;points=[[0,0.5],[1,0.5]];portConstraint=eastwest;" parent="5gyPYeoW1LZMkjKKsvoC-3" vertex="1">
          <mxGeometry y="234" width="160" height="26" as="geometry" />
        </mxCell>
        <mxCell id="5gyPYeoW1LZMkjKKsvoC-13" value="-turn.ID (int)" style="text;html=1;strokeColor=none;fillColor=none;align=left;verticalAlign=top;spacingLeft=4;spacingRight=4;whiteSpace=wrap;overflow=hidden;rotatable=0;points=[[0,0.5],[1,0.5]];portConstraint=eastwest;" parent="5gyPYeoW1LZMkjKKsvoC-3" vertex="1">
          <mxGeometry y="260" width="160" height="26" as="geometry" />
        </mxCell>
        <mxCell id="5gyPYeoW1LZMkjKKsvoC-18" value="FOOD" style="swimlane;html=1;fontStyle=1;align=center;verticalAlign=top;childLayout=stackLayout;horizontal=1;startSize=26;horizontalStack=0;resizeParent=1;resizeLast=0;collapsible=1;marginBottom=0;swimlaneFillColor=#ffffff;rounded=0;shadow=0;comic=0;labelBackgroundColor=none;strokeWidth=1;fillColor=none;fontFamily=Verdana;fontSize=12" parent="1" vertex="1">
          <mxGeometry x="880" y="-720" width="160" height="338" as="geometry" />
        </mxCell>
        <mxCell id="5gyPYeoW1LZMkjKKsvoC-20" value="- Name" style="text;html=1;strokeColor=none;fillColor=none;align=left;verticalAlign=top;spacingLeft=4;spacingRight=4;whiteSpace=wrap;overflow=hidden;rotatable=0;points=[[0,0.5],[1,0.5]];portConstraint=eastwest;" parent="5gyPYeoW1LZMkjKKsvoC-18" vertex="1">
          <mxGeometry y="26" width="160" height="26" as="geometry" />
        </mxCell>
        <mxCell id="5gyPYeoW1LZMkjKKsvoC-21" value="- Category" style="text;html=1;strokeColor=none;fillColor=none;align=left;verticalAlign=top;spacingLeft=4;spacingRight=4;whiteSpace=wrap;overflow=hidden;rotatable=0;points=[[0,0.5],[1,0.5]];portConstraint=eastwest;" parent="5gyPYeoW1LZMkjKKsvoC-18" vertex="1">
          <mxGeometry y="52" width="160" height="26" as="geometry" />
        </mxCell>
        <mxCell id="5gyPYeoW1LZMkjKKsvoC-22" value="- Price" style="text;html=1;strokeColor=none;fillColor=none;align=left;verticalAlign=top;spacingLeft=4;spacingRight=4;whiteSpace=wrap;overflow=hidden;rotatable=0;points=[[0,0.5],[1,0.5]];portConstraint=eastwest;" parent="5gyPYeoW1LZMkjKKsvoC-18" vertex="1">
          <mxGeometry y="78" width="160" height="26" as="geometry" />
        </mxCell>
        <mxCell id="5gyPYeoW1LZMkjKKsvoC-23" value="- Food Information" style="text;html=1;strokeColor=none;fillColor=none;align=left;verticalAlign=top;spacingLeft=4;spacingRight=4;whiteSpace=wrap;overflow=hidden;rotatable=0;points=[[0,0.5],[1,0.5]];portConstraint=eastwest;" parent="5gyPYeoW1LZMkjKKsvoC-18" vertex="1">
          <mxGeometry y="104" width="160" height="26" as="geometry" />
        </mxCell>
        <mxCell id="5gyPYeoW1LZMkjKKsvoC-24" value="- Quantity" style="text;html=1;strokeColor=none;fillColor=none;align=left;verticalAlign=top;spacingLeft=4;spacingRight=4;whiteSpace=wrap;overflow=hidden;rotatable=0;points=[[0,0.5],[1,0.5]];portConstraint=eastwest;" parent="5gyPYeoW1LZMkjKKsvoC-18" vertex="1">
          <mxGeometry y="130" width="160" height="26" as="geometry" />
        </mxCell>
        <mxCell id="NxPwZrn8tIDm6cM4T6ja-20" value="" style="shape=link;html=1;rounded=0;entryX=0.995;entryY=-0.023;entryDx=0;entryDy=0;entryPerimeter=0;strokeColor=#000000;strokeWidth=3;" parent="5gyPYeoW1LZMkjKKsvoC-18" edge="1">
          <mxGeometry width="100" relative="1" as="geometry">
            <mxPoint x="1" y="182" as="sourcePoint" />
            <mxPoint x="160" y="181" as="targetPoint" />
          </mxGeometry>
        </mxCell>
        <mxCell id="5gyPYeoW1LZMkjKKsvoC-33" value="-food.id (int)" style="text;html=1;strokeColor=none;fillColor=none;align=left;verticalAlign=top;spacingLeft=4;spacingRight=4;whiteSpace=wrap;overflow=hidden;rotatable=0;points=[[0,0.5],[1,0.5]];portConstraint=eastwest;strokeWidth=3;" parent="5gyPYeoW1LZMkjKKsvoC-18" vertex="1">
          <mxGeometry y="156" width="160" height="26" as="geometry" />
        </mxCell>
        <mxCell id="5gyPYeoW1LZMkjKKsvoC-34" value="-name.food (string)" style="text;html=1;strokeColor=none;fillColor=none;align=left;verticalAlign=top;spacingLeft=4;spacingRight=4;whiteSpace=wrap;overflow=hidden;rotatable=0;points=[[0,0.5],[1,0.5]];portConstraint=eastwest;" parent="5gyPYeoW1LZMkjKKsvoC-18" vertex="1">
          <mxGeometry y="182" width="160" height="26" as="geometry" />
        </mxCell>
        <mxCell id="5gyPYeoW1LZMkjKKsvoC-35" value="-category.ID (int)" style="text;html=1;strokeColor=none;fillColor=none;align=left;verticalAlign=top;spacingLeft=4;spacingRight=4;whiteSpace=wrap;overflow=hidden;rotatable=0;points=[[0,0.5],[1,0.5]];portConstraint=eastwest;" parent="5gyPYeoW1LZMkjKKsvoC-18" vertex="1">
          <mxGeometry y="208" width="160" height="26" as="geometry" />
        </mxCell>
        <mxCell id="5gyPYeoW1LZMkjKKsvoC-36" value="-price (float)" style="text;html=1;strokeColor=none;fillColor=none;align=left;verticalAlign=top;spacingLeft=4;spacingRight=4;whiteSpace=wrap;overflow=hidden;rotatable=0;points=[[0,0.5],[1,0.5]];portConstraint=eastwest;" parent="5gyPYeoW1LZMkjKKsvoC-18" vertex="1">
          <mxGeometry y="234" width="160" height="26" as="geometry" />
        </mxCell>
        <mxCell id="5gyPYeoW1LZMkjKKsvoC-37" value="-food.info (string)" style="text;html=1;strokeColor=none;fillColor=none;align=left;verticalAlign=top;spacingLeft=4;spacingRight=4;whiteSpace=wrap;overflow=hidden;rotatable=0;points=[[0,0.5],[1,0.5]];portConstraint=eastwest;" parent="5gyPYeoW1LZMkjKKsvoC-18" vertex="1">
          <mxGeometry y="260" width="160" height="26" as="geometry" />
        </mxCell>
        <mxCell id="5gyPYeoW1LZMkjKKsvoC-38" value="-quantity (float)" style="text;html=1;strokeColor=none;fillColor=none;align=left;verticalAlign=top;spacingLeft=4;spacingRight=4;whiteSpace=wrap;overflow=hidden;rotatable=0;points=[[0,0.5],[1,0.5]];portConstraint=eastwest;" parent="5gyPYeoW1LZMkjKKsvoC-18" vertex="1">
          <mxGeometry y="286" width="160" height="26" as="geometry" />
        </mxCell>
        <mxCell id="5gyPYeoW1LZMkjKKsvoC-39" value="" style="endArrow=none;html=1;rounded=0;entryX=1.008;entryY=0.091;entryDx=0;entryDy=0;exitX=0;exitY=0.5;exitDx=0;exitDy=0;entryPerimeter=0;" parent="1" source="zHtz_uePAP4qwq8h1fUO-2" target="V8HqpkSFx4EVLyuixHh1-1" edge="1">
          <mxGeometry width="50" height="50" relative="1" as="geometry">
            <mxPoint x="390" y="480" as="sourcePoint" />
            <mxPoint x="309.9999999999998" y="499.73000000000025" as="targetPoint" />
          </mxGeometry>
        </mxCell>
        <mxCell id="zHtz_uePAP4qwq8h1fUO-2" value="" style="rhombus;whiteSpace=wrap;html=1;fillColor=default;rotation=-15;" parent="1" vertex="1">
          <mxGeometry x="410" y="370" width="30" height="20" as="geometry" />
        </mxCell>
        <mxCell id="NxPwZrn8tIDm6cM4T6ja-1" value="" style="endArrow=none;html=1;rounded=0;exitX=1;exitY=0.5;exitDx=0;exitDy=0;entryX=0;entryY=0.5;entryDx=0;entryDy=0;" parent="1" source="V8HqpkSFx4EVLyuixHh1-10" target="I0qqI5XusfE8nYUbzfX7-49" edge="1">
          <mxGeometry width="50" height="50" relative="1" as="geometry">
            <mxPoint x="810" y="610" as="sourcePoint" />
            <mxPoint x="860" y="560" as="targetPoint" />
          </mxGeometry>
        </mxCell>
        <mxCell id="NxPwZrn8tIDm6cM4T6ja-2" value="" style="endArrow=none;html=1;rounded=0;entryX=0.5;entryY=1;entryDx=0;entryDy=0;exitX=0.5;exitY=0;exitDx=0;exitDy=0;" parent="1" source="V8HqpkSFx4EVLyuixHh1-21" target="I0qqI5XusfE8nYUbzfX7-45" edge="1">
          <mxGeometry width="50" height="50" relative="1" as="geometry">
            <mxPoint x="780" y="790" as="sourcePoint" />
            <mxPoint x="830" y="740" as="targetPoint" />
          </mxGeometry>
        </mxCell>
        <mxCell id="NxPwZrn8tIDm6cM4T6ja-3" value="" style="endArrow=none;html=1;rounded=0;entryX=0.5;entryY=1;entryDx=0;entryDy=0;exitX=0.5;exitY=0;exitDx=0;exitDy=0;" parent="1" source="I0qqI5XusfE8nYUbzfX7-13" target="V8HqpkSFx4EVLyuixHh1-21" edge="1">
          <mxGeometry width="50" height="50" relative="1" as="geometry">
            <mxPoint x="850" y="600" as="sourcePoint" />
            <mxPoint x="850" y="550" as="targetPoint" />
          </mxGeometry>
        </mxCell>
        <mxCell id="NxPwZrn8tIDm6cM4T6ja-4" value="" style="endArrow=none;html=1;rounded=0;entryX=0;entryY=0.5;entryDx=0;entryDy=0;exitX=1;exitY=0.5;exitDx=0;exitDy=0;" parent="1" source="V8HqpkSFx4EVLyuixHh1-24" target="I0qqI5XusfE8nYUbzfX7-54" edge="1">
          <mxGeometry width="50" height="50" relative="1" as="geometry">
            <mxPoint x="700" y="900" as="sourcePoint" />
            <mxPoint x="660" y="850" as="targetPoint" />
          </mxGeometry>
        </mxCell>
        <mxCell id="NxPwZrn8tIDm6cM4T6ja-5" value="" style="endArrow=none;html=1;rounded=0;entryX=1;entryY=0.5;entryDx=0;entryDy=0;exitX=0;exitY=0.5;exitDx=0;exitDy=0;" parent="1" source="V8HqpkSFx4EVLyuixHh1-24" target="V8HqpkSFx4EVLyuixHh1-14" edge="1">
          <mxGeometry width="50" height="50" relative="1" as="geometry">
            <mxPoint x="710" y="910" as="sourcePoint" />
            <mxPoint x="770" y="881" as="targetPoint" />
          </mxGeometry>
        </mxCell>
        <mxCell id="NxPwZrn8tIDm6cM4T6ja-23" value="USER AUTHENTICATION" style="swimlane;html=1;fontStyle=1;align=center;verticalAlign=top;childLayout=stackLayout;horizontal=1;startSize=26;horizontalStack=0;resizeParent=1;resizeLast=0;collapsible=1;marginBottom=0;swimlaneFillColor=#ffffff;rounded=0;shadow=0;comic=0;labelBackgroundColor=none;strokeWidth=1;fillColor=none;fontFamily=Verdana;fontSize=12" parent="1" vertex="1">
          <mxGeometry x="305" y="-720" width="195" height="130" as="geometry">
            <mxRectangle x="510" y="260" width="80" height="30" as="alternateBounds" />
          </mxGeometry>
        </mxCell>
        <mxCell id="NxPwZrn8tIDm6cM4T6ja-24" value="&lt;span style=&quot;text-align: center;&quot;&gt;- User ID&lt;/span&gt;" style="text;html=1;strokeColor=none;fillColor=none;align=left;verticalAlign=top;spacingLeft=4;spacingRight=4;whiteSpace=wrap;overflow=hidden;rotatable=0;points=[[0,0.5],[1,0.5]];portConstraint=eastwest;" parent="NxPwZrn8tIDm6cM4T6ja-23" vertex="1">
          <mxGeometry y="26" width="195" height="24" as="geometry" />
        </mxCell>
        <mxCell id="NxPwZrn8tIDm6cM4T6ja-25" value="&lt;span style=&quot;text-align: center;&quot;&gt;- Password&lt;/span&gt;" style="text;html=1;strokeColor=none;fillColor=none;align=left;verticalAlign=top;spacingLeft=4;spacingRight=4;whiteSpace=wrap;overflow=hidden;rotatable=0;points=[[0,0.5],[1,0.5]];portConstraint=eastwest;" parent="NxPwZrn8tIDm6cM4T6ja-23" vertex="1">
          <mxGeometry y="50" width="195" height="24" as="geometry" />
        </mxCell>
        <mxCell id="NxPwZrn8tIDm6cM4T6ja-26" value="" style="shape=link;html=1;rounded=0;entryX=1.011;entryY=-0.017;entryDx=0;entryDy=0;entryPerimeter=0;strokeColor=#000000;strokeWidth=3;" parent="NxPwZrn8tIDm6cM4T6ja-23" target="NxPwZrn8tIDm6cM4T6ja-27" edge="1">
          <mxGeometry width="100" relative="1" as="geometry">
            <mxPoint y="75" as="sourcePoint" />
            <mxPoint x="159" y="74" as="targetPoint" />
          </mxGeometry>
        </mxCell>
        <mxCell id="NxPwZrn8tIDm6cM4T6ja-27" value="&lt;span style=&quot;text-align: center;&quot;&gt;- user.userID (string)&lt;/span&gt;" style="text;html=1;strokeColor=none;fillColor=none;align=left;verticalAlign=top;spacingLeft=4;spacingRight=4;whiteSpace=wrap;overflow=hidden;rotatable=0;points=[[0,0.5],[1,0.5]];portConstraint=eastwest;" parent="NxPwZrn8tIDm6cM4T6ja-23" vertex="1">
          <mxGeometry y="74" width="195" height="24" as="geometry" />
        </mxCell>
        <mxCell id="NxPwZrn8tIDm6cM4T6ja-28" value="&lt;span style=&quot;text-align: center;&quot;&gt;- user.password (string)&lt;/span&gt;" style="text;html=1;strokeColor=none;fillColor=none;align=left;verticalAlign=top;spacingLeft=4;spacingRight=4;whiteSpace=wrap;overflow=hidden;rotatable=0;points=[[0,0.5],[1,0.5]];portConstraint=eastwest;" parent="NxPwZrn8tIDm6cM4T6ja-23" vertex="1">
          <mxGeometry y="98" width="195" height="24" as="geometry" />
        </mxCell>
        <mxCell id="NxPwZrn8tIDm6cM4T6ja-29" value="USER ADMINISTRATION" style="swimlane;html=1;fontStyle=1;align=center;verticalAlign=top;childLayout=stackLayout;horizontal=1;startSize=26;horizontalStack=0;resizeParent=1;resizeLast=0;collapsible=1;marginBottom=0;swimlaneFillColor=#ffffff;rounded=0;shadow=0;comic=0;labelBackgroundColor=none;strokeWidth=1;fillColor=none;fontFamily=Verdana;fontSize=12" parent="1" vertex="1">
          <mxGeometry x="280" y="-460" width="195" height="122" as="geometry">
            <mxRectangle x="280" y="-470" width="80" height="30" as="alternateBounds" />
          </mxGeometry>
        </mxCell>
        <mxCell id="NxPwZrn8tIDm6cM4T6ja-30" value="&lt;div style=&quot;text-align: center;&quot;&gt;&lt;span style=&quot;background-color: initial;&quot;&gt;- User&lt;/span&gt;&lt;/div&gt;" style="text;html=1;strokeColor=none;fillColor=none;align=left;verticalAlign=top;spacingLeft=4;spacingRight=4;whiteSpace=wrap;overflow=hidden;rotatable=0;points=[[0,0.5],[1,0.5]];portConstraint=eastwest;" parent="NxPwZrn8tIDm6cM4T6ja-29" vertex="1">
          <mxGeometry y="26" width="195" height="24" as="geometry" />
        </mxCell>
        <mxCell id="NxPwZrn8tIDm6cM4T6ja-31" value="&lt;span style=&quot;text-align: center;&quot;&gt;- Restore.User.password&lt;/span&gt;" style="text;html=1;strokeColor=none;fillColor=none;align=left;verticalAlign=top;spacingLeft=4;spacingRight=4;whiteSpace=wrap;overflow=hidden;rotatable=0;points=[[0,0.5],[1,0.5]];portConstraint=eastwest;" parent="NxPwZrn8tIDm6cM4T6ja-29" vertex="1">
          <mxGeometry y="50" width="195" height="24" as="geometry" />
        </mxCell>
        <mxCell id="NxPwZrn8tIDm6cM4T6ja-34" value="&lt;span style=&quot;text-align: center;&quot;&gt;- Add.User&lt;/span&gt;" style="text;html=1;strokeColor=none;fillColor=none;align=left;verticalAlign=top;spacingLeft=4;spacingRight=4;whiteSpace=wrap;overflow=hidden;rotatable=0;points=[[0,0.5],[1,0.5]];portConstraint=eastwest;" parent="NxPwZrn8tIDm6cM4T6ja-29" vertex="1">
          <mxGeometry y="74" width="195" height="24" as="geometry" />
        </mxCell>
        <mxCell id="NxPwZrn8tIDm6cM4T6ja-33" value="&lt;span style=&quot;text-align: center;&quot;&gt;- Remove. User&lt;/span&gt;" style="text;html=1;strokeColor=none;fillColor=none;align=left;verticalAlign=top;spacingLeft=4;spacingRight=4;whiteSpace=wrap;overflow=hidden;rotatable=0;points=[[0,0.5],[1,0.5]];portConstraint=eastwest;" parent="NxPwZrn8tIDm6cM4T6ja-29" vertex="1">
          <mxGeometry y="98" width="195" height="24" as="geometry" />
        </mxCell>
        <mxCell id="NxPwZrn8tIDm6cM4T6ja-44" value="" style="endArrow=none;html=1;rounded=0;exitX=0.995;exitY=0.045;exitDx=0;exitDy=0;exitPerimeter=0;entryX=-0.006;entryY=0.03;entryDx=0;entryDy=0;entryPerimeter=0;" parent="1" source="V8HqpkSFx4EVLyuixHh1-29" target="NxPwZrn8tIDm6cM4T6ja-29" edge="1">
          <mxGeometry width="50" height="50" relative="1" as="geometry">
            <mxPoint x="390" y="-420" as="sourcePoint" />
            <mxPoint x="440" y="-470" as="targetPoint" />
            <Array as="points">
              <mxPoint x="230" y="-655" />
              <mxPoint x="230" y="-456" />
            </Array>
          </mxGeometry>
        </mxCell>
        <mxCell id="NxPwZrn8tIDm6cM4T6ja-45" value="" style="endArrow=none;html=1;rounded=0;exitX=0.995;exitY=0.046;exitDx=0;exitDy=0;exitPerimeter=0;entryX=0;entryY=0.07;entryDx=0;entryDy=0;entryPerimeter=0;" parent="1" source="V8HqpkSFx4EVLyuixHh1-29" target="NxPwZrn8tIDm6cM4T6ja-23" edge="1">
          <mxGeometry width="50" height="50" relative="1" as="geometry">
            <mxPoint x="230" y="-650" as="sourcePoint" />
            <mxPoint x="280" y="-670" as="targetPoint" />
            <Array as="points">
              <mxPoint x="230" y="-654" />
              <mxPoint x="230" y="-710" />
            </Array>
          </mxGeometry>
        </mxCell>
        <mxCell id="NxPwZrn8tIDm6cM4T6ja-55" value="FOOD ADMINISTRATION" style="swimlane;html=1;fontStyle=1;align=center;verticalAlign=top;childLayout=stackLayout;horizontal=1;startSize=26;horizontalStack=0;resizeParent=1;resizeLast=0;collapsible=1;marginBottom=0;swimlaneFillColor=#ffffff;rounded=0;shadow=0;comic=0;labelBackgroundColor=none;strokeWidth=1;fillColor=none;fontFamily=Verdana;fontSize=12" parent="1" vertex="1">
          <mxGeometry x="880" y="-330" width="180" height="130" as="geometry">
            <mxRectangle x="510" y="260" width="80" height="30" as="alternateBounds" />
          </mxGeometry>
        </mxCell>
        <mxCell id="NxPwZrn8tIDm6cM4T6ja-56" value="&lt;div style=&quot;text-align: center;&quot;&gt;&lt;span style=&quot;background-color: initial;&quot;&gt;- Food&lt;/span&gt;&lt;/div&gt;" style="text;html=1;strokeColor=none;fillColor=none;align=left;verticalAlign=top;spacingLeft=4;spacingRight=4;whiteSpace=wrap;overflow=hidden;rotatable=0;points=[[0,0.5],[1,0.5]];portConstraint=eastwest;" parent="NxPwZrn8tIDm6cM4T6ja-55" vertex="1">
          <mxGeometry y="26" width="180" height="24" as="geometry" />
        </mxCell>
        <mxCell id="NxPwZrn8tIDm6cM4T6ja-57" value="&lt;span style=&quot;text-align: center;&quot;&gt;- Add.Food&lt;/span&gt;" style="text;html=1;strokeColor=none;fillColor=none;align=left;verticalAlign=top;spacingLeft=4;spacingRight=4;whiteSpace=wrap;overflow=hidden;rotatable=0;points=[[0,0.5],[1,0.5]];portConstraint=eastwest;" parent="NxPwZrn8tIDm6cM4T6ja-55" vertex="1">
          <mxGeometry y="50" width="180" height="24" as="geometry" />
        </mxCell>
        <mxCell id="NxPwZrn8tIDm6cM4T6ja-61" value="&lt;span style=&quot;text-align: center;&quot;&gt;- Remove.Food&lt;/span&gt;" style="text;html=1;strokeColor=none;fillColor=none;align=left;verticalAlign=top;spacingLeft=4;spacingRight=4;whiteSpace=wrap;overflow=hidden;rotatable=0;points=[[0,0.5],[1,0.5]];portConstraint=eastwest;" parent="NxPwZrn8tIDm6cM4T6ja-55" vertex="1">
          <mxGeometry y="74" width="180" height="26" as="geometry" />
        </mxCell>
        <mxCell id="1gaYcO7zTgsK8Uvr2uTy-44" value="&lt;span style=&quot;text-align: center;&quot;&gt;- Edit.Food&lt;/span&gt;" style="text;html=1;strokeColor=none;fillColor=none;align=left;verticalAlign=top;spacingLeft=4;spacingRight=4;whiteSpace=wrap;overflow=hidden;rotatable=0;points=[[0,0.5],[1,0.5]];portConstraint=eastwest;" parent="NxPwZrn8tIDm6cM4T6ja-55" vertex="1">
          <mxGeometry y="100" width="180" height="24" as="geometry" />
        </mxCell>
        <mxCell id="1gaYcO7zTgsK8Uvr2uTy-21" value="ORDER ADMINSTRATION" style="swimlane;html=1;fontStyle=1;align=center;verticalAlign=top;childLayout=stackLayout;horizontal=1;startSize=26;horizontalStack=0;resizeParent=1;resizeLast=0;collapsible=1;marginBottom=0;swimlaneFillColor=#ffffff;rounded=0;shadow=0;comic=0;labelBackgroundColor=none;strokeWidth=1;fillColor=none;fontFamily=Verdana;fontSize=12" parent="1" vertex="1">
          <mxGeometry x="1140" y="-370" width="190" height="110" as="geometry">
            <mxRectangle x="510" y="60" width="90" height="30" as="alternateBounds" />
          </mxGeometry>
        </mxCell>
        <mxCell id="1gaYcO7zTgsK8Uvr2uTy-22" value="- Make orderStatus = cooking" style="text;html=1;strokeColor=none;fillColor=none;align=left;verticalAlign=top;spacingLeft=4;spacingRight=4;whiteSpace=wrap;overflow=hidden;rotatable=0;points=[[0,0.5],[1,0.5]];portConstraint=eastwest;" parent="1gaYcO7zTgsK8Uvr2uTy-21" vertex="1">
          <mxGeometry y="26" width="190" height="26" as="geometry" />
        </mxCell>
        <mxCell id="1gaYcO7zTgsK8Uvr2uTy-33" value="- Make orderStatus = finished" style="text;html=1;strokeColor=none;fillColor=none;align=left;verticalAlign=top;spacingLeft=4;spacingRight=4;whiteSpace=wrap;overflow=hidden;rotatable=0;points=[[0,0.5],[1,0.5]];portConstraint=eastwest;" parent="1gaYcO7zTgsK8Uvr2uTy-21" vertex="1">
          <mxGeometry y="52" width="190" height="26" as="geometry" />
        </mxCell>
        <mxCell id="1gaYcO7zTgsK8Uvr2uTy-34" value="- Make delivertedStatus = true" style="text;html=1;strokeColor=none;fillColor=none;align=left;verticalAlign=top;spacingLeft=4;spacingRight=4;whiteSpace=wrap;overflow=hidden;rotatable=0;points=[[0,0.5],[1,0.5]];portConstraint=eastwest;" parent="1gaYcO7zTgsK8Uvr2uTy-21" vertex="1">
          <mxGeometry y="78" width="190" height="22" as="geometry" />
        </mxCell>
        <mxCell id="1gaYcO7zTgsK8Uvr2uTy-37" value="FOOD CATEGORY ADMINISTRATION" style="swimlane;html=1;fontStyle=1;align=center;verticalAlign=top;childLayout=stackLayout;horizontal=1;startSize=26;horizontalStack=0;resizeParent=1;resizeLast=0;collapsible=1;marginBottom=0;swimlaneFillColor=#ffffff;rounded=0;shadow=0;comic=0;labelBackgroundColor=none;strokeWidth=1;fillColor=none;fontFamily=Verdana;fontSize=12" parent="1" vertex="1">
          <mxGeometry x="550" y="-330" width="260" height="130" as="geometry">
            <mxRectangle x="510" y="260" width="80" height="30" as="alternateBounds" />
          </mxGeometry>
        </mxCell>
        <mxCell id="1gaYcO7zTgsK8Uvr2uTy-38" value="&lt;div style=&quot;text-align: center;&quot;&gt;&lt;span style=&quot;background-color: initial;&quot;&gt;- Add.category&lt;/span&gt;&lt;/div&gt;" style="text;html=1;strokeColor=none;fillColor=none;align=left;verticalAlign=top;spacingLeft=4;spacingRight=4;whiteSpace=wrap;overflow=hidden;rotatable=0;points=[[0,0.5],[1,0.5]];portConstraint=eastwest;" parent="1gaYcO7zTgsK8Uvr2uTy-37" vertex="1">
          <mxGeometry y="26" width="260" height="24" as="geometry" />
        </mxCell>
        <mxCell id="1gaYcO7zTgsK8Uvr2uTy-39" value="&lt;span style=&quot;text-align: center;&quot;&gt;- Remove.category&lt;/span&gt;" style="text;html=1;strokeColor=none;fillColor=none;align=left;verticalAlign=top;spacingLeft=4;spacingRight=4;whiteSpace=wrap;overflow=hidden;rotatable=0;points=[[0,0.5],[1,0.5]];portConstraint=eastwest;" parent="1gaYcO7zTgsK8Uvr2uTy-37" vertex="1">
          <mxGeometry y="50" width="260" height="24" as="geometry" />
        </mxCell>
        <mxCell id="1gaYcO7zTgsK8Uvr2uTy-43" value="&lt;span style=&quot;text-align: center;&quot;&gt;- Edit.category&lt;/span&gt;" style="text;html=1;strokeColor=none;fillColor=none;align=left;verticalAlign=top;spacingLeft=4;spacingRight=4;whiteSpace=wrap;overflow=hidden;rotatable=0;points=[[0,0.5],[1,0.5]];portConstraint=eastwest;" parent="1gaYcO7zTgsK8Uvr2uTy-37" vertex="1">
          <mxGeometry y="74" width="260" height="24" as="geometry" />
        </mxCell>
        <mxCell id="1gaYcO7zTgsK8Uvr2uTy-45" value="" style="endArrow=none;html=1;rounded=0;entryX=-0.001;entryY=0.038;entryDx=0;entryDy=0;entryPerimeter=0;exitX=1.021;exitY=0.084;exitDx=0;exitDy=0;exitPerimeter=0;" parent="1" source="V8HqpkSFx4EVLyuixHh1-59" target="5gyPYeoW1LZMkjKKsvoC-18" edge="1">
          <mxGeometry width="50" height="50" relative="1" as="geometry">
            <mxPoint x="620" y="-530" as="sourcePoint" />
            <mxPoint x="670" y="-580" as="targetPoint" />
          </mxGeometry>
        </mxCell>
        <mxCell id="1gaYcO7zTgsK8Uvr2uTy-46" value="" style="endArrow=none;html=1;rounded=0;entryX=0.5;entryY=1;entryDx=0;entryDy=0;exitX=0.5;exitY=0;exitDx=0;exitDy=0;" parent="1" source="1gaYcO7zTgsK8Uvr2uTy-37" target="V8HqpkSFx4EVLyuixHh1-59" edge="1">
          <mxGeometry width="50" height="50" relative="1" as="geometry">
            <mxPoint x="620" y="-530" as="sourcePoint" />
            <mxPoint x="670" y="-580" as="targetPoint" />
          </mxGeometry>
        </mxCell>
        <mxCell id="1gaYcO7zTgsK8Uvr2uTy-48" value="" style="endArrow=none;html=1;rounded=0;exitX=0.443;exitY=-0.006;exitDx=0;exitDy=0;exitPerimeter=0;" parent="1" source="NxPwZrn8tIDm6cM4T6ja-55" edge="1">
          <mxGeometry width="50" height="50" relative="1" as="geometry">
            <mxPoint x="620" y="-340" as="sourcePoint" />
            <mxPoint x="960" y="-380" as="targetPoint" />
          </mxGeometry>
        </mxCell>
        <mxCell id="1gaYcO7zTgsK8Uvr2uTy-49" value="" style="endArrow=none;html=1;rounded=0;exitX=1.004;exitY=0.036;exitDx=0;exitDy=0;exitPerimeter=0;entryX=-0.022;entryY=0.043;entryDx=0;entryDy=0;entryPerimeter=0;" parent="1" source="5gyPYeoW1LZMkjKKsvoC-18" target="5gyPYeoW1LZMkjKKsvoC-3" edge="1">
          <mxGeometry width="50" height="50" relative="1" as="geometry">
            <mxPoint x="1400" y="-610" as="sourcePoint" />
            <mxPoint x="1450" y="-660" as="targetPoint" />
          </mxGeometry>
        </mxCell>
        <mxCell id="1gaYcO7zTgsK8Uvr2uTy-50" value="" style="endArrow=none;html=1;rounded=0;exitX=0.989;exitY=0.048;exitDx=0;exitDy=0;exitPerimeter=0;entryX=-0.011;entryY=0.048;entryDx=0;entryDy=0;entryPerimeter=0;" parent="1" source="5gyPYeoW1LZMkjKKsvoC-3" target="V8HqpkSFx4EVLyuixHh1-49" edge="1">
          <mxGeometry width="50" height="50" relative="1" as="geometry">
            <mxPoint x="1400" y="-610" as="sourcePoint" />
            <mxPoint x="1450" y="-660" as="targetPoint" />
          </mxGeometry>
        </mxCell>
        <mxCell id="1gaYcO7zTgsK8Uvr2uTy-51" value="" style="endArrow=none;html=1;rounded=0;exitX=0.585;exitY=1.077;exitDx=0;exitDy=0;exitPerimeter=0;entryX=0.5;entryY=0;entryDx=0;entryDy=0;" parent="1" source="5gyPYeoW1LZMkjKKsvoC-13" target="1gaYcO7zTgsK8Uvr2uTy-21" edge="1">
          <mxGeometry width="50" height="50" relative="1" as="geometry">
            <mxPoint x="1400" y="-610" as="sourcePoint" />
            <mxPoint x="1450" y="-660" as="targetPoint" />
          </mxGeometry>
        </mxCell>
        <mxCell id="1gaYcO7zTgsK8Uvr2uTy-52" value="TURN ADMINISTRATION" style="swimlane;html=1;fontStyle=1;align=center;verticalAlign=top;childLayout=stackLayout;horizontal=1;startSize=26;horizontalStack=0;resizeParent=1;resizeLast=0;collapsible=1;marginBottom=0;swimlaneFillColor=#ffffff;rounded=0;shadow=0;comic=0;labelBackgroundColor=none;strokeWidth=1;fillColor=none;fontFamily=Verdana;fontSize=12" parent="1" vertex="1">
          <mxGeometry x="1620" y="-720" width="220" height="80" as="geometry">
            <mxRectangle x="1830" y="-540" width="80" height="30" as="alternateBounds" />
          </mxGeometry>
        </mxCell>
        <mxCell id="1gaYcO7zTgsK8Uvr2uTy-53" value="- Time.reset.turn.all" style="text;html=1;strokeColor=none;fillColor=none;align=left;verticalAlign=top;spacingLeft=4;spacingRight=4;whiteSpace=wrap;overflow=hidden;rotatable=0;points=[[0,0.5],[1,0.5]];portConstraint=eastwest;" parent="1gaYcO7zTgsK8Uvr2uTy-52" vertex="1">
          <mxGeometry y="26" width="220" height="26" as="geometry" />
        </mxCell>
        <mxCell id="1gaYcO7zTgsK8Uvr2uTy-55" value="- Delete.turn.user if(orderStatus==true)" style="text;html=1;strokeColor=none;fillColor=none;align=left;verticalAlign=top;spacingLeft=4;spacingRight=4;whiteSpace=wrap;overflow=hidden;rotatable=0;points=[[0,0.5],[1,0.5]];portConstraint=eastwest;" parent="1gaYcO7zTgsK8Uvr2uTy-52" vertex="1">
          <mxGeometry y="52" width="220" height="26" as="geometry" />
        </mxCell>
        <mxCell id="1gaYcO7zTgsK8Uvr2uTy-64" value="" style="endArrow=none;html=1;rounded=0;exitX=0.994;exitY=0.05;exitDx=0;exitDy=0;exitPerimeter=0;entryX=-0.009;entryY=0.128;entryDx=0;entryDy=0;entryPerimeter=0;" parent="1" source="V8HqpkSFx4EVLyuixHh1-49" target="1gaYcO7zTgsK8Uvr2uTy-52" edge="1">
          <mxGeometry width="50" height="50" relative="1" as="geometry">
            <mxPoint x="1970" y="-580" as="sourcePoint" />
            <mxPoint x="2020" y="-630" as="targetPoint" />
          </mxGeometry>
        </mxCell>
        <mxCell id="0b3EeHPLSl8qr2C3AWyC-3" value="Enter App" style="rounded=1;whiteSpace=wrap;html=1;" parent="1" vertex="1">
          <mxGeometry x="240" y="-1920" width="120" height="60" as="geometry" />
        </mxCell>
        <mxCell id="0b3EeHPLSl8qr2C3AWyC-4" value="ADMIN ORDER" style="rounded=1;whiteSpace=wrap;html=1;" parent="1" vertex="1">
          <mxGeometry x="440" y="-1920" width="120" height="60" as="geometry" />
        </mxCell>
        <mxCell id="0b3EeHPLSl8qr2C3AWyC-6" value="" style="endArrow=none;html=1;rounded=0;entryX=0.5;entryY=1;entryDx=0;entryDy=0;" parent="1" edge="1">
          <mxGeometry width="50" height="50" relative="1" as="geometry">
            <mxPoint x="110" y="-1380" as="sourcePoint" />
            <mxPoint x="110" y="-1860" as="targetPoint" />
          </mxGeometry>
        </mxCell>
        <mxCell id="0b3EeHPLSl8qr2C3AWyC-7" value="" style="endArrow=none;html=1;rounded=0;entryX=0.5;entryY=1;entryDx=0;entryDy=0;" parent="1" target="0b3EeHPLSl8qr2C3AWyC-3" edge="1">
          <mxGeometry width="50" height="50" relative="1" as="geometry">
            <mxPoint x="300" y="-1390" as="sourcePoint" />
            <mxPoint x="500" y="-1700" as="targetPoint" />
          </mxGeometry>
        </mxCell>
        <mxCell id="0b3EeHPLSl8qr2C3AWyC-8" value="" style="endArrow=none;html=1;rounded=0;entryX=0.5;entryY=1;entryDx=0;entryDy=0;" parent="1" target="0b3EeHPLSl8qr2C3AWyC-4" edge="1">
          <mxGeometry width="50" height="50" relative="1" as="geometry">
            <mxPoint x="500" y="-1390" as="sourcePoint" />
            <mxPoint x="500" y="-1700" as="targetPoint" />
          </mxGeometry>
        </mxCell>
        <mxCell id="0b3EeHPLSl8qr2C3AWyC-11" value="" style="endArrow=classic;html=1;rounded=0;" parent="1" edge="1">
          <mxGeometry relative="1" as="geometry">
            <mxPoint x="110" y="-1800" as="sourcePoint" />
            <mxPoint x="300" y="-1800" as="targetPoint" />
          </mxGeometry>
        </mxCell>
        <mxCell id="0b3EeHPLSl8qr2C3AWyC-12" value="Check info" style="edgeLabel;resizable=0;html=1;align=center;verticalAlign=middle;" parent="0b3EeHPLSl8qr2C3AWyC-11" connectable="0" vertex="1">
          <mxGeometry relative="1" as="geometry" />
        </mxCell>
        <mxCell id="0b3EeHPLSl8qr2C3AWyC-13" value="Log in" style="edgeLabel;resizable=0;html=1;align=left;verticalAlign=bottom;" parent="0b3EeHPLSl8qr2C3AWyC-11" connectable="0" vertex="1">
          <mxGeometry x="-1" relative="1" as="geometry" />
        </mxCell>
        <mxCell id="0b3EeHPLSl8qr2C3AWyC-14" value="" style="endArrow=classic;html=1;rounded=0;" parent="1" edge="1">
          <mxGeometry relative="1" as="geometry">
            <mxPoint x="107.5" y="-1740" as="sourcePoint" />
            <mxPoint x="500" y="-1740" as="targetPoint" />
          </mxGeometry>
        </mxCell>
        <mxCell id="0b3EeHPLSl8qr2C3AWyC-15" value="Make order" style="edgeLabel;resizable=0;html=1;align=center;verticalAlign=middle;" parent="0b3EeHPLSl8qr2C3AWyC-14" connectable="0" vertex="1">
          <mxGeometry relative="1" as="geometry" />
        </mxCell>
        <mxCell id="0b3EeHPLSl8qr2C3AWyC-16" value="Choose food" style="edgeLabel;resizable=0;html=1;align=left;verticalAlign=bottom;" parent="0b3EeHPLSl8qr2C3AWyC-14" connectable="0" vertex="1">
          <mxGeometry x="-1" relative="1" as="geometry" />
        </mxCell>
        <mxCell id="0b3EeHPLSl8qr2C3AWyC-17" value="Basket" style="rounded=1;whiteSpace=wrap;html=1;" parent="1" vertex="1">
          <mxGeometry x="670" y="-1920" width="120" height="60" as="geometry" />
        </mxCell>
        <mxCell id="0b3EeHPLSl8qr2C3AWyC-18" value="" style="endArrow=classic;html=1;rounded=0;" parent="1" edge="1">
          <mxGeometry relative="1" as="geometry">
            <mxPoint x="500" y="-1720" as="sourcePoint" />
            <mxPoint x="740" y="-1720" as="targetPoint" />
          </mxGeometry>
        </mxCell>
        <mxCell id="0b3EeHPLSl8qr2C3AWyC-19" value="Make&amp;nbsp; users turn" style="edgeLabel;resizable=0;html=1;align=center;verticalAlign=middle;" parent="0b3EeHPLSl8qr2C3AWyC-18" connectable="0" vertex="1">
          <mxGeometry relative="1" as="geometry" />
        </mxCell>
        <mxCell id="0b3EeHPLSl8qr2C3AWyC-20" value="Recive order" style="edgeLabel;resizable=0;html=1;align=left;verticalAlign=bottom;" parent="0b3EeHPLSl8qr2C3AWyC-18" connectable="0" vertex="1">
          <mxGeometry x="-1" relative="1" as="geometry" />
        </mxCell>
        <mxCell id="0b3EeHPLSl8qr2C3AWyC-21" value="" style="endArrow=none;html=1;rounded=0;entryX=0.5;entryY=1;entryDx=0;entryDy=0;" parent="1" edge="1">
          <mxGeometry width="50" height="50" relative="1" as="geometry">
            <mxPoint x="740" y="-1390" as="sourcePoint" />
            <mxPoint x="740" y="-1860" as="targetPoint" />
          </mxGeometry>
        </mxCell>
        <mxCell id="0b3EeHPLSl8qr2C3AWyC-22" value="" style="endArrow=none;html=1;rounded=0;entryX=0.5;entryY=1;entryDx=0;entryDy=0;" parent="1" edge="1">
          <mxGeometry width="50" height="50" relative="1" as="geometry">
            <mxPoint x="939.5999999999999" y="-1400" as="sourcePoint" />
            <mxPoint x="939.5999999999999" y="-1870" as="targetPoint" />
          </mxGeometry>
        </mxCell>
        <mxCell id="0b3EeHPLSl8qr2C3AWyC-24" value="" style="endArrow=none;html=1;rounded=0;entryX=0.5;entryY=1;entryDx=0;entryDy=0;" parent="1" edge="1">
          <mxGeometry width="50" height="50" relative="1" as="geometry">
            <mxPoint x="1129.6" y="-1400" as="sourcePoint" />
            <mxPoint x="1129.6" y="-1870" as="targetPoint" />
          </mxGeometry>
        </mxCell>
        <mxCell id="0b3EeHPLSl8qr2C3AWyC-26" value="" style="endArrow=classic;html=1;rounded=0;" parent="1" edge="1">
          <mxGeometry relative="1" as="geometry">
            <mxPoint x="740" y="-1700" as="sourcePoint" />
            <mxPoint x="940" y="-1700" as="targetPoint" />
          </mxGeometry>
        </mxCell>
        <mxCell id="0b3EeHPLSl8qr2C3AWyC-27" value="Link if table available" style="edgeLabel;resizable=0;html=1;align=center;verticalAlign=middle;" parent="0b3EeHPLSl8qr2C3AWyC-26" connectable="0" vertex="1">
          <mxGeometry relative="1" as="geometry" />
        </mxCell>
        <mxCell id="0b3EeHPLSl8qr2C3AWyC-28" value="Recive order" style="edgeLabel;resizable=0;html=1;align=left;verticalAlign=bottom;" parent="0b3EeHPLSl8qr2C3AWyC-26" connectable="0" vertex="1">
          <mxGeometry x="-1" relative="1" as="geometry" />
        </mxCell>
        <mxCell id="0b3EeHPLSl8qr2C3AWyC-29" value="" style="endArrow=classic;html=1;rounded=0;" parent="1" edge="1">
          <mxGeometry relative="1" as="geometry">
            <mxPoint x="945" y="-1680" as="sourcePoint" />
            <mxPoint x="1135" y="-1680" as="targetPoint" />
          </mxGeometry>
        </mxCell>
        <mxCell id="0b3EeHPLSl8qr2C3AWyC-30" value="Prepare users order" style="edgeLabel;resizable=0;html=1;align=center;verticalAlign=middle;" parent="0b3EeHPLSl8qr2C3AWyC-29" connectable="0" vertex="1">
          <mxGeometry relative="1" as="geometry" />
        </mxCell>
        <mxCell id="0b3EeHPLSl8qr2C3AWyC-31" value="Recive order" style="edgeLabel;resizable=0;html=1;align=left;verticalAlign=bottom;" parent="0b3EeHPLSl8qr2C3AWyC-29" connectable="0" vertex="1">
          <mxGeometry x="-1" relative="1" as="geometry" />
        </mxCell>
        <mxCell id="0b3EeHPLSl8qr2C3AWyC-32" value="" style="endArrow=classic;html=1;rounded=0;" parent="1" edge="1">
          <mxGeometry relative="1" as="geometry">
            <mxPoint x="1130" y="-1651" as="sourcePoint" />
            <mxPoint x="110" y="-1651" as="targetPoint" />
          </mxGeometry>
        </mxCell>
        <mxCell id="0b3EeHPLSl8qr2C3AWyC-33" value="Deliver order" style="edgeLabel;resizable=0;html=1;align=center;verticalAlign=middle;" parent="0b3EeHPLSl8qr2C3AWyC-32" connectable="0" vertex="1">
          <mxGeometry relative="1" as="geometry" />
        </mxCell>
        <mxCell id="0b3EeHPLSl8qr2C3AWyC-34" value="OrderStatus == finish" style="edgeLabel;resizable=0;html=1;align=left;verticalAlign=bottom;" parent="0b3EeHPLSl8qr2C3AWyC-32" connectable="0" vertex="1">
          <mxGeometry x="-1" relative="1" as="geometry">
            <mxPoint x="-110" as="offset" />
          </mxGeometry>
        </mxCell>
        <mxCell id="0b3EeHPLSl8qr2C3AWyC-35" value="" style="endArrow=classic;html=1;rounded=0;" parent="1" edge="1">
          <mxGeometry relative="1" as="geometry">
            <mxPoint x="110" y="-1600" as="sourcePoint" />
            <mxPoint x="300" y="-1600" as="targetPoint" />
          </mxGeometry>
        </mxCell>
        <mxCell id="0b3EeHPLSl8qr2C3AWyC-36" value="Check info" style="edgeLabel;resizable=0;html=1;align=center;verticalAlign=middle;" parent="0b3EeHPLSl8qr2C3AWyC-35" connectable="0" vertex="1">
          <mxGeometry relative="1" as="geometry" />
        </mxCell>
        <mxCell id="0b3EeHPLSl8qr2C3AWyC-37" value="Send iinfo" style="edgeLabel;resizable=0;html=1;align=left;verticalAlign=bottom;" parent="0b3EeHPLSl8qr2C3AWyC-35" connectable="0" vertex="1">
          <mxGeometry x="-1" relative="1" as="geometry" />
        </mxCell>
        <mxCell id="0b3EeHPLSl8qr2C3AWyC-38" value="" style="endArrow=classic;html=1;rounded=0;" parent="1" edge="1">
          <mxGeometry relative="1" as="geometry">
            <mxPoint x="110" y="-1570" as="sourcePoint" />
            <mxPoint x="505" y="-1570" as="targetPoint" />
          </mxGeometry>
        </mxCell>
        <mxCell id="0b3EeHPLSl8qr2C3AWyC-39" value="Make order" style="edgeLabel;resizable=0;html=1;align=center;verticalAlign=middle;" parent="0b3EeHPLSl8qr2C3AWyC-38" connectable="0" vertex="1">
          <mxGeometry relative="1" as="geometry" />
        </mxCell>
        <mxCell id="0b3EeHPLSl8qr2C3AWyC-40" value="Choose food" style="edgeLabel;resizable=0;html=1;align=left;verticalAlign=bottom;" parent="0b3EeHPLSl8qr2C3AWyC-38" connectable="0" vertex="1">
          <mxGeometry x="-1" relative="1" as="geometry" />
        </mxCell>
        <mxCell id="0b3EeHPLSl8qr2C3AWyC-41" value="" style="endArrow=classic;html=1;rounded=0;" parent="1" edge="1">
          <mxGeometry relative="1" as="geometry">
            <mxPoint x="500" y="-1550" as="sourcePoint" />
            <mxPoint x="740" y="-1550" as="targetPoint" />
          </mxGeometry>
        </mxCell>
        <mxCell id="0b3EeHPLSl8qr2C3AWyC-42" value="Make&amp;nbsp; users turn" style="edgeLabel;resizable=0;html=1;align=center;verticalAlign=middle;" parent="0b3EeHPLSl8qr2C3AWyC-41" connectable="0" vertex="1">
          <mxGeometry relative="1" as="geometry" />
        </mxCell>
        <mxCell id="0b3EeHPLSl8qr2C3AWyC-43" value="Recive order" style="edgeLabel;resizable=0;html=1;align=left;verticalAlign=bottom;" parent="0b3EeHPLSl8qr2C3AWyC-41" connectable="0" vertex="1">
          <mxGeometry x="-1" relative="1" as="geometry" />
        </mxCell>
        <mxCell id="0b3EeHPLSl8qr2C3AWyC-44" value="" style="endArrow=classic;html=1;rounded=0;" parent="1" edge="1">
          <mxGeometry relative="1" as="geometry">
            <mxPoint x="740" y="-1530" as="sourcePoint" />
            <mxPoint x="940" y="-1530" as="targetPoint" />
          </mxGeometry>
        </mxCell>
        <mxCell id="0b3EeHPLSl8qr2C3AWyC-45" value="Link if for deliver" style="edgeLabel;resizable=0;html=1;align=center;verticalAlign=middle;" parent="0b3EeHPLSl8qr2C3AWyC-44" connectable="0" vertex="1">
          <mxGeometry relative="1" as="geometry" />
        </mxCell>
        <mxCell id="0b3EeHPLSl8qr2C3AWyC-46" value="Recive order" style="edgeLabel;resizable=0;html=1;align=left;verticalAlign=bottom;" parent="0b3EeHPLSl8qr2C3AWyC-44" connectable="0" vertex="1">
          <mxGeometry x="-1" relative="1" as="geometry" />
        </mxCell>
        <mxCell id="0b3EeHPLSl8qr2C3AWyC-47" value="" style="endArrow=classic;html=1;rounded=0;" parent="1" edge="1">
          <mxGeometry relative="1" as="geometry">
            <mxPoint x="940" y="-1500" as="sourcePoint" />
            <mxPoint x="1130" y="-1500" as="targetPoint" />
          </mxGeometry>
        </mxCell>
        <mxCell id="0b3EeHPLSl8qr2C3AWyC-48" value="Prepare users order" style="edgeLabel;resizable=0;html=1;align=center;verticalAlign=middle;" parent="0b3EeHPLSl8qr2C3AWyC-47" connectable="0" vertex="1">
          <mxGeometry relative="1" as="geometry" />
        </mxCell>
        <mxCell id="0b3EeHPLSl8qr2C3AWyC-49" value="Recive order" style="edgeLabel;resizable=0;html=1;align=left;verticalAlign=bottom;" parent="0b3EeHPLSl8qr2C3AWyC-47" connectable="0" vertex="1">
          <mxGeometry x="-1" relative="1" as="geometry" />
        </mxCell>
        <mxCell id="0b3EeHPLSl8qr2C3AWyC-50" value="" style="endArrow=classic;html=1;rounded=0;" parent="1" edge="1">
          <mxGeometry relative="1" as="geometry">
            <mxPoint x="1130" y="-1470" as="sourcePoint" />
            <mxPoint x="110" y="-1470" as="targetPoint" />
          </mxGeometry>
        </mxCell>
        <mxCell id="0b3EeHPLSl8qr2C3AWyC-51" value="Deliver order" style="edgeLabel;resizable=0;html=1;align=center;verticalAlign=middle;" parent="0b3EeHPLSl8qr2C3AWyC-50" connectable="0" vertex="1">
          <mxGeometry relative="1" as="geometry" />
        </mxCell>
        <mxCell id="0b3EeHPLSl8qr2C3AWyC-52" value="OrderStatus == finish &amp;amp;&amp;amp; deliverTime == OnTime" style="edgeLabel;resizable=0;html=1;align=left;verticalAlign=bottom;" parent="0b3EeHPLSl8qr2C3AWyC-50" connectable="0" vertex="1">
          <mxGeometry x="-1" relative="1" as="geometry">
            <mxPoint x="-250" as="offset" />
          </mxGeometry>
        </mxCell>
        <mxCell id="0b3EeHPLSl8qr2C3AWyC-54" value="" style="rounded=0;whiteSpace=wrap;html=1;fillColor=none;strokeWidth=3;" parent="1" vertex="1">
          <mxGeometry x="540" y="-340" width="530" height="150" as="geometry" />
        </mxCell>
        <mxCell id="0b3EeHPLSl8qr2C3AWyC-70" value="" style="endArrow=none;html=1;rounded=0;entryX=0.545;entryY=-0.02;entryDx=0;entryDy=0;entryPerimeter=0;" parent="1" source="V8HqpkSFx4EVLyuixHh1-29" target="V8HqpkSFx4EVLyuixHh1-49" edge="1">
          <mxGeometry width="50" height="50" relative="1" as="geometry">
            <mxPoint x="1330" y="-450" as="sourcePoint" />
            <mxPoint x="1380" y="-500" as="targetPoint" />
            <Array as="points">
              <mxPoint x="120" y="-760" />
              <mxPoint x="1477" y="-760" />
            </Array>
          </mxGeometry>
        </mxCell>
        <mxCell id="0b3EeHPLSl8qr2C3AWyC-71" value="" style="endArrow=classic;html=1;rounded=0;" parent="1" edge="1">
          <mxGeometry relative="1" as="geometry">
            <mxPoint x="300" y="-1770" as="sourcePoint" />
            <mxPoint x="110" y="-1770" as="targetPoint" />
          </mxGeometry>
        </mxCell>
        <mxCell id="0b3EeHPLSl8qr2C3AWyC-72" value="Return info" style="edgeLabel;resizable=0;html=1;align=center;verticalAlign=middle;" parent="0b3EeHPLSl8qr2C3AWyC-71" connectable="0" vertex="1">
          <mxGeometry relative="1" as="geometry" />
        </mxCell>
        <mxCell id="0b3EeHPLSl8qr2C3AWyC-73" value="Loged" style="edgeLabel;resizable=0;html=1;align=left;verticalAlign=bottom;" parent="0b3EeHPLSl8qr2C3AWyC-71" connectable="0" vertex="1">
          <mxGeometry x="-1" relative="1" as="geometry">
            <mxPoint x="-40" y="20" as="offset" />
          </mxGeometry>
        </mxCell>
        <mxCell id="0b3EeHPLSl8qr2C3AWyC-74" value="KITCHEN" style="shape=umlActor;verticalLabelPosition=bottom;verticalAlign=top;html=1;outlineConnect=0;" parent="1" vertex="1">
          <mxGeometry x="1110" y="-1950" width="30" height="60" as="geometry" />
        </mxCell>
        <mxCell id="0b3EeHPLSl8qr2C3AWyC-76" value="RECEPTIONIST" style="shape=umlActor;verticalLabelPosition=bottom;verticalAlign=top;html=1;outlineConnect=0;" parent="1" vertex="1">
          <mxGeometry x="930" y="-1940" width="30" height="60" as="geometry" />
        </mxCell>
        <mxCell id="T0YR8MX-vg3qSfp54hWT-2" value="USER" style="shape=umlActor;verticalLabelPosition=bottom;verticalAlign=top;html=1;outlineConnect=0;" parent="1" vertex="1">
          <mxGeometry x="2740" y="-1930" width="30" height="60" as="geometry" />
        </mxCell>
        <mxCell id="T0YR8MX-vg3qSfp54hWT-4" value="FOOD ADMIN" style="rounded=1;whiteSpace=wrap;html=1;" parent="1" vertex="1">
          <mxGeometry x="2850" y="-1920" width="120" height="60" as="geometry" />
        </mxCell>
        <mxCell id="T0YR8MX-vg3qSfp54hWT-5" value="FOOD" style="rounded=1;whiteSpace=wrap;html=1;" parent="1" vertex="1">
          <mxGeometry x="3050" y="-1920" width="120" height="60" as="geometry" />
        </mxCell>
        <mxCell id="T0YR8MX-vg3qSfp54hWT-7" value="" style="endArrow=none;html=1;rounded=0;" parent="1" edge="1">
          <mxGeometry width="50" height="50" relative="1" as="geometry">
            <mxPoint x="2740" y="-1300" as="sourcePoint" />
            <mxPoint x="2744.6875" y="-1870" as="targetPoint" />
          </mxGeometry>
        </mxCell>
        <mxCell id="T0YR8MX-vg3qSfp54hWT-8" value="" style="endArrow=none;html=1;rounded=0;entryX=0.5;entryY=1;entryDx=0;entryDy=0;" parent="1" target="T0YR8MX-vg3qSfp54hWT-4" edge="1">
          <mxGeometry width="50" height="50" relative="1" as="geometry">
            <mxPoint x="2910" y="-1300" as="sourcePoint" />
            <mxPoint x="2930" y="-1710" as="targetPoint" />
          </mxGeometry>
        </mxCell>
        <mxCell id="T0YR8MX-vg3qSfp54hWT-9" value="" style="endArrow=none;html=1;rounded=0;entryX=0.5;entryY=1;entryDx=0;entryDy=0;" parent="1" target="T0YR8MX-vg3qSfp54hWT-5" edge="1">
          <mxGeometry width="50" height="50" relative="1" as="geometry">
            <mxPoint x="3110" y="-1300" as="sourcePoint" />
            <mxPoint x="2930" y="-1710" as="targetPoint" />
          </mxGeometry>
        </mxCell>
        <mxCell id="T0YR8MX-vg3qSfp54hWT-10" value="" style="endArrow=classic;html=1;rounded=0;" parent="1" edge="1">
          <mxGeometry relative="1" as="geometry">
            <mxPoint x="2750" y="-1820" as="sourcePoint" />
            <mxPoint x="2910" y="-1820" as="targetPoint" />
          </mxGeometry>
        </mxCell>
        <mxCell id="T0YR8MX-vg3qSfp54hWT-11" value="Label" style="edgeLabel;resizable=0;html=1;align=center;verticalAlign=middle;" parent="T0YR8MX-vg3qSfp54hWT-10" connectable="0" vertex="1">
          <mxGeometry relative="1" as="geometry" />
        </mxCell>
        <mxCell id="T0YR8MX-vg3qSfp54hWT-12" value="Search &quot;food&quot;" style="edgeLabel;resizable=0;html=1;align=left;verticalAlign=bottom;" parent="T0YR8MX-vg3qSfp54hWT-10" connectable="0" vertex="1">
          <mxGeometry x="-1" relative="1" as="geometry" />
        </mxCell>
        <mxCell id="T0YR8MX-vg3qSfp54hWT-13" value="string == food" style="edgeLabel;html=1;align=center;verticalAlign=middle;resizable=0;points=[];" parent="T0YR8MX-vg3qSfp54hWT-10" vertex="1" connectable="0">
          <mxGeometry x="0.0138" y="-2" relative="1" as="geometry">
            <mxPoint as="offset" />
          </mxGeometry>
        </mxCell>
        <mxCell id="T0YR8MX-vg3qSfp54hWT-14" value="" style="endArrow=classic;html=1;rounded=0;" parent="1" edge="1">
          <mxGeometry relative="1" as="geometry">
            <mxPoint x="2910" y="-1800" as="sourcePoint" />
            <mxPoint x="3110" y="-1800" as="targetPoint" />
          </mxGeometry>
        </mxCell>
        <mxCell id="T0YR8MX-vg3qSfp54hWT-15" value="Label" style="edgeLabel;resizable=0;html=1;align=center;verticalAlign=middle;" parent="T0YR8MX-vg3qSfp54hWT-14" connectable="0" vertex="1">
          <mxGeometry relative="1" as="geometry" />
        </mxCell>
        <mxCell id="T0YR8MX-vg3qSfp54hWT-16" value="Search &quot;food&quot;" style="edgeLabel;resizable=0;html=1;align=left;verticalAlign=bottom;" parent="T0YR8MX-vg3qSfp54hWT-14" connectable="0" vertex="1">
          <mxGeometry x="-1" relative="1" as="geometry" />
        </mxCell>
        <mxCell id="T0YR8MX-vg3qSfp54hWT-17" value="string == food" style="edgeLabel;html=1;align=center;verticalAlign=middle;resizable=0;points=[];" parent="T0YR8MX-vg3qSfp54hWT-14" vertex="1" connectable="0">
          <mxGeometry x="0.0138" y="-2" relative="1" as="geometry">
            <mxPoint as="offset" />
          </mxGeometry>
        </mxCell>
        <mxCell id="T0YR8MX-vg3qSfp54hWT-18" value="DB" style="shape=cylinder3;whiteSpace=wrap;html=1;boundedLbl=1;backgroundOutline=1;size=15;" parent="1" vertex="1">
          <mxGeometry x="3240" y="-1920" width="60" height="80" as="geometry" />
        </mxCell>
        <mxCell id="T0YR8MX-vg3qSfp54hWT-19" value="" style="endArrow=none;html=1;rounded=0;entryX=0.5;entryY=1;entryDx=0;entryDy=0;entryPerimeter=0;" parent="1" target="T0YR8MX-vg3qSfp54hWT-18" edge="1">
          <mxGeometry width="50" height="50" relative="1" as="geometry">
            <mxPoint x="3270" y="-1300" as="sourcePoint" />
            <mxPoint x="3220" y="-1690" as="targetPoint" />
          </mxGeometry>
        </mxCell>
        <mxCell id="T0YR8MX-vg3qSfp54hWT-20" value="" style="endArrow=classic;html=1;rounded=0;" parent="1" edge="1">
          <mxGeometry relative="1" as="geometry">
            <mxPoint x="3110" y="-1780" as="sourcePoint" />
            <mxPoint x="3270" y="-1780" as="targetPoint" />
          </mxGeometry>
        </mxCell>
        <mxCell id="T0YR8MX-vg3qSfp54hWT-21" value="Label" style="edgeLabel;resizable=0;html=1;align=center;verticalAlign=middle;" parent="T0YR8MX-vg3qSfp54hWT-20" connectable="0" vertex="1">
          <mxGeometry relative="1" as="geometry" />
        </mxCell>
        <mxCell id="T0YR8MX-vg3qSfp54hWT-22" value="Search &quot;food&quot;" style="edgeLabel;resizable=0;html=1;align=left;verticalAlign=bottom;" parent="T0YR8MX-vg3qSfp54hWT-20" connectable="0" vertex="1">
          <mxGeometry x="-1" relative="1" as="geometry" />
        </mxCell>
        <mxCell id="T0YR8MX-vg3qSfp54hWT-23" value="string == food" style="edgeLabel;html=1;align=center;verticalAlign=middle;resizable=0;points=[];" parent="T0YR8MX-vg3qSfp54hWT-20" vertex="1" connectable="0">
          <mxGeometry x="0.0138" y="-2" relative="1" as="geometry">
            <mxPoint as="offset" />
          </mxGeometry>
        </mxCell>
        <mxCell id="T0YR8MX-vg3qSfp54hWT-24" value="" style="endArrow=classic;html=1;rounded=0;" parent="1" edge="1">
          <mxGeometry relative="1" as="geometry">
            <mxPoint x="3270" y="-1760" as="sourcePoint" />
            <mxPoint x="3110" y="-1760" as="targetPoint" />
          </mxGeometry>
        </mxCell>
        <mxCell id="T0YR8MX-vg3qSfp54hWT-25" value="Label" style="edgeLabel;resizable=0;html=1;align=center;verticalAlign=middle;" parent="T0YR8MX-vg3qSfp54hWT-24" connectable="0" vertex="1">
          <mxGeometry relative="1" as="geometry" />
        </mxCell>
        <mxCell id="T0YR8MX-vg3qSfp54hWT-26" value="Return list food" style="edgeLabel;resizable=0;html=1;align=left;verticalAlign=bottom;" parent="T0YR8MX-vg3qSfp54hWT-24" connectable="0" vertex="1">
          <mxGeometry x="-1" relative="1" as="geometry">
            <mxPoint x="-80" y="20" as="offset" />
          </mxGeometry>
        </mxCell>
        <mxCell id="T0YR8MX-vg3qSfp54hWT-27" value="string == food" style="edgeLabel;html=1;align=center;verticalAlign=middle;resizable=0;points=[];" parent="T0YR8MX-vg3qSfp54hWT-24" vertex="1" connectable="0">
          <mxGeometry x="0.0138" y="-2" relative="1" as="geometry">
            <mxPoint as="offset" />
          </mxGeometry>
        </mxCell>
        <mxCell id="T0YR8MX-vg3qSfp54hWT-28" value="" style="endArrow=classic;html=1;rounded=0;" parent="1" edge="1">
          <mxGeometry relative="1" as="geometry">
            <mxPoint x="3110" y="-1738" as="sourcePoint" />
            <mxPoint x="2910" y="-1738" as="targetPoint" />
          </mxGeometry>
        </mxCell>
        <mxCell id="T0YR8MX-vg3qSfp54hWT-29" value="Label" style="edgeLabel;resizable=0;html=1;align=center;verticalAlign=middle;" parent="T0YR8MX-vg3qSfp54hWT-28" connectable="0" vertex="1">
          <mxGeometry relative="1" as="geometry" />
        </mxCell>
        <mxCell id="T0YR8MX-vg3qSfp54hWT-30" value="Return list food" style="edgeLabel;resizable=0;html=1;align=left;verticalAlign=bottom;" parent="T0YR8MX-vg3qSfp54hWT-28" connectable="0" vertex="1">
          <mxGeometry x="-1" relative="1" as="geometry">
            <mxPoint x="-80" y="20" as="offset" />
          </mxGeometry>
        </mxCell>
        <mxCell id="T0YR8MX-vg3qSfp54hWT-31" value="string == food" style="edgeLabel;html=1;align=center;verticalAlign=middle;resizable=0;points=[];" parent="T0YR8MX-vg3qSfp54hWT-28" vertex="1" connectable="0">
          <mxGeometry x="0.0138" y="-2" relative="1" as="geometry">
            <mxPoint as="offset" />
          </mxGeometry>
        </mxCell>
        <mxCell id="T0YR8MX-vg3qSfp54hWT-32" value="" style="endArrow=classic;html=1;rounded=0;" parent="1" edge="1">
          <mxGeometry relative="1" as="geometry">
            <mxPoint x="2910" y="-1720" as="sourcePoint" />
            <mxPoint x="2750" y="-1720" as="targetPoint" />
          </mxGeometry>
        </mxCell>
        <mxCell id="T0YR8MX-vg3qSfp54hWT-33" value="Label" style="edgeLabel;resizable=0;html=1;align=center;verticalAlign=middle;" parent="T0YR8MX-vg3qSfp54hWT-32" connectable="0" vertex="1">
          <mxGeometry relative="1" as="geometry" />
        </mxCell>
        <mxCell id="T0YR8MX-vg3qSfp54hWT-34" value="Return list food" style="edgeLabel;resizable=0;html=1;align=left;verticalAlign=bottom;" parent="T0YR8MX-vg3qSfp54hWT-32" connectable="0" vertex="1">
          <mxGeometry x="-1" relative="1" as="geometry">
            <mxPoint x="-80" y="20" as="offset" />
          </mxGeometry>
        </mxCell>
        <mxCell id="T0YR8MX-vg3qSfp54hWT-35" value="string == food" style="edgeLabel;html=1;align=center;verticalAlign=middle;resizable=0;points=[];" parent="T0YR8MX-vg3qSfp54hWT-32" vertex="1" connectable="0">
          <mxGeometry x="0.0138" y="-2" relative="1" as="geometry">
            <mxPoint as="offset" />
          </mxGeometry>
        </mxCell>
        <mxCell id="T0YR8MX-vg3qSfp54hWT-40" value="" style="endArrow=classic;html=1;rounded=0;" parent="1" edge="1">
          <mxGeometry relative="1" as="geometry">
            <mxPoint x="2750" y="-1680" as="sourcePoint" />
            <mxPoint x="2910" y="-1680" as="targetPoint" />
          </mxGeometry>
        </mxCell>
        <mxCell id="T0YR8MX-vg3qSfp54hWT-41" value="id = &quot; &quot;" style="edgeLabel;resizable=0;html=1;align=center;verticalAlign=middle;" parent="T0YR8MX-vg3qSfp54hWT-40" connectable="0" vertex="1">
          <mxGeometry relative="1" as="geometry" />
        </mxCell>
        <mxCell id="T0YR8MX-vg3qSfp54hWT-42" value="Select foodID" style="edgeLabel;resizable=0;html=1;align=left;verticalAlign=bottom;" parent="T0YR8MX-vg3qSfp54hWT-40" connectable="0" vertex="1">
          <mxGeometry x="-1" relative="1" as="geometry" />
        </mxCell>
        <mxCell id="T0YR8MX-vg3qSfp54hWT-43" value="" style="endArrow=classic;html=1;rounded=0;" parent="1" edge="1">
          <mxGeometry relative="1" as="geometry">
            <mxPoint x="2910" y="-1660" as="sourcePoint" />
            <mxPoint x="3110" y="-1660" as="targetPoint" />
          </mxGeometry>
        </mxCell>
        <mxCell id="T0YR8MX-vg3qSfp54hWT-44" value="id = &quot; &quot;" style="edgeLabel;resizable=0;html=1;align=center;verticalAlign=middle;" parent="T0YR8MX-vg3qSfp54hWT-43" connectable="0" vertex="1">
          <mxGeometry relative="1" as="geometry" />
        </mxCell>
        <mxCell id="T0YR8MX-vg3qSfp54hWT-45" value="Get foodID" style="edgeLabel;resizable=0;html=1;align=left;verticalAlign=bottom;" parent="T0YR8MX-vg3qSfp54hWT-43" connectable="0" vertex="1">
          <mxGeometry x="-1" relative="1" as="geometry" />
        </mxCell>
        <mxCell id="T0YR8MX-vg3qSfp54hWT-46" value="" style="endArrow=classic;html=1;rounded=0;" parent="1" edge="1">
          <mxGeometry relative="1" as="geometry">
            <mxPoint x="3110" y="-1640" as="sourcePoint" />
            <mxPoint x="3270" y="-1640" as="targetPoint" />
          </mxGeometry>
        </mxCell>
        <mxCell id="T0YR8MX-vg3qSfp54hWT-47" value="id = &quot; &quot;" style="edgeLabel;resizable=0;html=1;align=center;verticalAlign=middle;" parent="T0YR8MX-vg3qSfp54hWT-46" connectable="0" vertex="1">
          <mxGeometry relative="1" as="geometry" />
        </mxCell>
        <mxCell id="T0YR8MX-vg3qSfp54hWT-48" value="Get foodID" style="edgeLabel;resizable=0;html=1;align=left;verticalAlign=bottom;" parent="T0YR8MX-vg3qSfp54hWT-46" connectable="0" vertex="1">
          <mxGeometry x="-1" relative="1" as="geometry" />
        </mxCell>
        <mxCell id="T0YR8MX-vg3qSfp54hWT-49" value="" style="endArrow=classic;html=1;rounded=0;" parent="1" edge="1">
          <mxGeometry relative="1" as="geometry">
            <mxPoint x="3270" y="-1620" as="sourcePoint" />
            <mxPoint x="3110" y="-1620" as="targetPoint" />
          </mxGeometry>
        </mxCell>
        <mxCell id="T0YR8MX-vg3qSfp54hWT-50" value="id = &quot; &quot;" style="edgeLabel;resizable=0;html=1;align=center;verticalAlign=middle;" parent="T0YR8MX-vg3qSfp54hWT-49" connectable="0" vertex="1">
          <mxGeometry relative="1" as="geometry" />
        </mxCell>
        <mxCell id="T0YR8MX-vg3qSfp54hWT-51" value="Food" style="edgeLabel;resizable=0;html=1;align=left;verticalAlign=bottom;" parent="T0YR8MX-vg3qSfp54hWT-49" connectable="0" vertex="1">
          <mxGeometry x="-1" relative="1" as="geometry">
            <mxPoint x="-30" y="20" as="offset" />
          </mxGeometry>
        </mxCell>
        <mxCell id="T0YR8MX-vg3qSfp54hWT-52" value="" style="endArrow=classic;html=1;rounded=0;" parent="1" edge="1">
          <mxGeometry relative="1" as="geometry">
            <mxPoint x="3110" y="-1610" as="sourcePoint" />
            <mxPoint x="2910" y="-1610" as="targetPoint" />
          </mxGeometry>
        </mxCell>
        <mxCell id="T0YR8MX-vg3qSfp54hWT-53" value="id = &quot; &quot;" style="edgeLabel;resizable=0;html=1;align=center;verticalAlign=middle;" parent="T0YR8MX-vg3qSfp54hWT-52" connectable="0" vertex="1">
          <mxGeometry relative="1" as="geometry" />
        </mxCell>
        <mxCell id="T0YR8MX-vg3qSfp54hWT-54" value="Food" style="edgeLabel;resizable=0;html=1;align=left;verticalAlign=bottom;" parent="T0YR8MX-vg3qSfp54hWT-52" connectable="0" vertex="1">
          <mxGeometry x="-1" relative="1" as="geometry">
            <mxPoint x="-30" y="20" as="offset" />
          </mxGeometry>
        </mxCell>
        <mxCell id="T0YR8MX-vg3qSfp54hWT-55" value="" style="endArrow=classic;html=1;rounded=0;" parent="1" edge="1">
          <mxGeometry relative="1" as="geometry">
            <mxPoint x="2910" y="-1590" as="sourcePoint" />
            <mxPoint x="2740" y="-1590" as="targetPoint" />
          </mxGeometry>
        </mxCell>
        <mxCell id="T0YR8MX-vg3qSfp54hWT-56" value="id = &quot; &quot;" style="edgeLabel;resizable=0;html=1;align=center;verticalAlign=middle;" parent="T0YR8MX-vg3qSfp54hWT-55" connectable="0" vertex="1">
          <mxGeometry relative="1" as="geometry" />
        </mxCell>
        <mxCell id="T0YR8MX-vg3qSfp54hWT-57" value="Food" style="edgeLabel;resizable=0;html=1;align=left;verticalAlign=bottom;" parent="T0YR8MX-vg3qSfp54hWT-55" connectable="0" vertex="1">
          <mxGeometry x="-1" relative="1" as="geometry">
            <mxPoint x="-30" y="20" as="offset" />
          </mxGeometry>
        </mxCell>
        <mxCell id="T0YR8MX-vg3qSfp54hWT-58" value="" style="endArrow=classic;html=1;rounded=0;" parent="1" edge="1">
          <mxGeometry relative="1" as="geometry">
            <mxPoint x="2740" y="-1550" as="sourcePoint" />
            <mxPoint x="2910" y="-1550" as="targetPoint" />
          </mxGeometry>
        </mxCell>
        <mxCell id="T0YR8MX-vg3qSfp54hWT-59" value="food.ID.details" style="edgeLabel;resizable=0;html=1;align=center;verticalAlign=middle;" parent="T0YR8MX-vg3qSfp54hWT-58" connectable="0" vertex="1">
          <mxGeometry relative="1" as="geometry">
            <mxPoint x="5" as="offset" />
          </mxGeometry>
        </mxCell>
        <mxCell id="T0YR8MX-vg3qSfp54hWT-60" value="See food details" style="edgeLabel;resizable=0;html=1;align=left;verticalAlign=bottom;" parent="T0YR8MX-vg3qSfp54hWT-58" connectable="0" vertex="1">
          <mxGeometry x="-1" relative="1" as="geometry">
            <mxPoint y="-10" as="offset" />
          </mxGeometry>
        </mxCell>
        <mxCell id="T0YR8MX-vg3qSfp54hWT-61" value="" style="endArrow=classic;html=1;rounded=0;" parent="1" edge="1">
          <mxGeometry relative="1" as="geometry">
            <mxPoint x="2910" y="-1530" as="sourcePoint" />
            <mxPoint x="3110" y="-1530" as="targetPoint" />
          </mxGeometry>
        </mxCell>
        <mxCell id="T0YR8MX-vg3qSfp54hWT-62" value="food.ID.details" style="edgeLabel;resizable=0;html=1;align=center;verticalAlign=middle;" parent="T0YR8MX-vg3qSfp54hWT-61" connectable="0" vertex="1">
          <mxGeometry relative="1" as="geometry">
            <mxPoint x="5" as="offset" />
          </mxGeometry>
        </mxCell>
        <mxCell id="T0YR8MX-vg3qSfp54hWT-63" value="Get food details" style="edgeLabel;resizable=0;html=1;align=left;verticalAlign=bottom;" parent="T0YR8MX-vg3qSfp54hWT-61" connectable="0" vertex="1">
          <mxGeometry x="-1" relative="1" as="geometry">
            <mxPoint y="-10" as="offset" />
          </mxGeometry>
        </mxCell>
        <mxCell id="T0YR8MX-vg3qSfp54hWT-64" value="" style="endArrow=classic;html=1;rounded=0;" parent="1" edge="1">
          <mxGeometry relative="1" as="geometry">
            <mxPoint x="3110" y="-1510" as="sourcePoint" />
            <mxPoint x="3270" y="-1510" as="targetPoint" />
          </mxGeometry>
        </mxCell>
        <mxCell id="T0YR8MX-vg3qSfp54hWT-65" value="food.ID.details" style="edgeLabel;resizable=0;html=1;align=center;verticalAlign=middle;" parent="T0YR8MX-vg3qSfp54hWT-64" connectable="0" vertex="1">
          <mxGeometry relative="1" as="geometry">
            <mxPoint x="5" as="offset" />
          </mxGeometry>
        </mxCell>
        <mxCell id="T0YR8MX-vg3qSfp54hWT-66" value="Get food details" style="edgeLabel;resizable=0;html=1;align=left;verticalAlign=bottom;" parent="T0YR8MX-vg3qSfp54hWT-64" connectable="0" vertex="1">
          <mxGeometry x="-1" relative="1" as="geometry">
            <mxPoint y="-10" as="offset" />
          </mxGeometry>
        </mxCell>
        <mxCell id="T0YR8MX-vg3qSfp54hWT-67" value="" style="endArrow=classic;html=1;rounded=0;" parent="1" edge="1">
          <mxGeometry relative="1" as="geometry">
            <mxPoint x="3270" y="-1490" as="sourcePoint" />
            <mxPoint x="3110" y="-1490" as="targetPoint" />
          </mxGeometry>
        </mxCell>
        <mxCell id="T0YR8MX-vg3qSfp54hWT-68" value="food.ID.details" style="edgeLabel;resizable=0;html=1;align=center;verticalAlign=middle;" parent="T0YR8MX-vg3qSfp54hWT-67" connectable="0" vertex="1">
          <mxGeometry relative="1" as="geometry">
            <mxPoint x="5" as="offset" />
          </mxGeometry>
        </mxCell>
        <mxCell id="T0YR8MX-vg3qSfp54hWT-69" value="food details" style="edgeLabel;resizable=0;html=1;align=left;verticalAlign=bottom;" parent="T0YR8MX-vg3qSfp54hWT-67" connectable="0" vertex="1">
          <mxGeometry x="-1" relative="1" as="geometry">
            <mxPoint x="-60" y="20" as="offset" />
          </mxGeometry>
        </mxCell>
        <mxCell id="T0YR8MX-vg3qSfp54hWT-70" value="" style="endArrow=classic;html=1;rounded=0;" parent="1" edge="1">
          <mxGeometry relative="1" as="geometry">
            <mxPoint x="3110" y="-1480" as="sourcePoint" />
            <mxPoint x="2910" y="-1480" as="targetPoint" />
          </mxGeometry>
        </mxCell>
        <mxCell id="T0YR8MX-vg3qSfp54hWT-71" value="food.ID.details" style="edgeLabel;resizable=0;html=1;align=center;verticalAlign=middle;" parent="T0YR8MX-vg3qSfp54hWT-70" connectable="0" vertex="1">
          <mxGeometry relative="1" as="geometry">
            <mxPoint x="5" as="offset" />
          </mxGeometry>
        </mxCell>
        <mxCell id="T0YR8MX-vg3qSfp54hWT-72" value="food details" style="edgeLabel;resizable=0;html=1;align=left;verticalAlign=bottom;" parent="T0YR8MX-vg3qSfp54hWT-70" connectable="0" vertex="1">
          <mxGeometry x="-1" relative="1" as="geometry">
            <mxPoint x="-60" y="20" as="offset" />
          </mxGeometry>
        </mxCell>
        <mxCell id="T0YR8MX-vg3qSfp54hWT-73" value="" style="endArrow=classic;html=1;rounded=0;" parent="1" edge="1">
          <mxGeometry relative="1" as="geometry">
            <mxPoint x="2910" y="-1470" as="sourcePoint" />
            <mxPoint x="2740" y="-1470" as="targetPoint" />
          </mxGeometry>
        </mxCell>
        <mxCell id="T0YR8MX-vg3qSfp54hWT-74" value="food.ID.details" style="edgeLabel;resizable=0;html=1;align=center;verticalAlign=middle;" parent="T0YR8MX-vg3qSfp54hWT-73" connectable="0" vertex="1">
          <mxGeometry relative="1" as="geometry">
            <mxPoint x="5" as="offset" />
          </mxGeometry>
        </mxCell>
        <mxCell id="T0YR8MX-vg3qSfp54hWT-75" value="food details" style="edgeLabel;resizable=0;html=1;align=left;verticalAlign=bottom;" parent="T0YR8MX-vg3qSfp54hWT-73" connectable="0" vertex="1">
          <mxGeometry x="-1" relative="1" as="geometry">
            <mxPoint x="-60" y="20" as="offset" />
          </mxGeometry>
        </mxCell>
        <mxCell id="T0YR8MX-vg3qSfp54hWT-76" value="" style="endArrow=classic;html=1;rounded=0;" parent="1" edge="1">
          <mxGeometry relative="1" as="geometry">
            <mxPoint x="2740" y="-1420" as="sourcePoint" />
            <mxPoint x="2910" y="-1420" as="targetPoint" />
          </mxGeometry>
        </mxCell>
        <mxCell id="T0YR8MX-vg3qSfp54hWT-77" value="Add(food.ID to basket)" style="edgeLabel;resizable=0;html=1;align=center;verticalAlign=middle;" parent="T0YR8MX-vg3qSfp54hWT-76" connectable="0" vertex="1">
          <mxGeometry relative="1" as="geometry" />
        </mxCell>
        <mxCell id="T0YR8MX-vg3qSfp54hWT-78" value="Add food to basket" style="edgeLabel;resizable=0;html=1;align=left;verticalAlign=bottom;" parent="T0YR8MX-vg3qSfp54hWT-76" connectable="0" vertex="1">
          <mxGeometry x="-1" relative="1" as="geometry">
            <mxPoint y="-10" as="offset" />
          </mxGeometry>
        </mxCell>
        <mxCell id="T0YR8MX-vg3qSfp54hWT-79" value="" style="endArrow=classic;html=1;rounded=0;" parent="1" edge="1">
          <mxGeometry relative="1" as="geometry">
            <mxPoint x="2910" y="-1400" as="sourcePoint" />
            <mxPoint x="3110" y="-1400" as="targetPoint" />
          </mxGeometry>
        </mxCell>
        <mxCell id="T0YR8MX-vg3qSfp54hWT-80" value="Add(food.ID to basket)" style="edgeLabel;resizable=0;html=1;align=center;verticalAlign=middle;" parent="T0YR8MX-vg3qSfp54hWT-79" connectable="0" vertex="1">
          <mxGeometry relative="1" as="geometry" />
        </mxCell>
        <mxCell id="T0YR8MX-vg3qSfp54hWT-81" value="Add food to basket" style="edgeLabel;resizable=0;html=1;align=left;verticalAlign=bottom;" parent="T0YR8MX-vg3qSfp54hWT-79" connectable="0" vertex="1">
          <mxGeometry x="-1" relative="1" as="geometry">
            <mxPoint y="-10" as="offset" />
          </mxGeometry>
        </mxCell>
        <mxCell id="T0YR8MX-vg3qSfp54hWT-82" value="" style="endArrow=classic;html=1;rounded=0;" parent="1" edge="1">
          <mxGeometry relative="1" as="geometry">
            <mxPoint x="3110" y="-1380" as="sourcePoint" />
            <mxPoint x="3270" y="-1380" as="targetPoint" />
          </mxGeometry>
        </mxCell>
        <mxCell id="T0YR8MX-vg3qSfp54hWT-83" value="Add(food.ID to basket)" style="edgeLabel;resizable=0;html=1;align=center;verticalAlign=middle;" parent="T0YR8MX-vg3qSfp54hWT-82" connectable="0" vertex="1">
          <mxGeometry relative="1" as="geometry" />
        </mxCell>
        <mxCell id="T0YR8MX-vg3qSfp54hWT-84" value="Add food to basket" style="edgeLabel;resizable=0;html=1;align=left;verticalAlign=bottom;" parent="T0YR8MX-vg3qSfp54hWT-82" connectable="0" vertex="1">
          <mxGeometry x="-1" relative="1" as="geometry">
            <mxPoint y="-10" as="offset" />
          </mxGeometry>
        </mxCell>
        <mxCell id="T0YR8MX-vg3qSfp54hWT-85" value="" style="endArrow=classic;html=1;rounded=0;" parent="1" edge="1">
          <mxGeometry relative="1" as="geometry">
            <mxPoint x="3270" y="-1360" as="sourcePoint" />
            <mxPoint x="3110" y="-1360" as="targetPoint" />
          </mxGeometry>
        </mxCell>
        <mxCell id="T0YR8MX-vg3qSfp54hWT-86" value="New item in basket" style="edgeLabel;resizable=0;html=1;align=center;verticalAlign=middle;" parent="T0YR8MX-vg3qSfp54hWT-85" connectable="0" vertex="1">
          <mxGeometry relative="1" as="geometry" />
        </mxCell>
        <mxCell id="T0YR8MX-vg3qSfp54hWT-87" value="New.food.ID in basket" style="edgeLabel;resizable=0;html=1;align=left;verticalAlign=bottom;" parent="T0YR8MX-vg3qSfp54hWT-85" connectable="0" vertex="1">
          <mxGeometry x="-1" relative="1" as="geometry">
            <mxPoint x="-110" y="20" as="offset" />
          </mxGeometry>
        </mxCell>
        <mxCell id="T0YR8MX-vg3qSfp54hWT-88" value="" style="endArrow=classic;html=1;rounded=0;" parent="1" edge="1">
          <mxGeometry relative="1" as="geometry">
            <mxPoint x="3110" y="-1350" as="sourcePoint" />
            <mxPoint x="2910" y="-1350" as="targetPoint" />
          </mxGeometry>
        </mxCell>
        <mxCell id="T0YR8MX-vg3qSfp54hWT-89" value="New item in basket" style="edgeLabel;resizable=0;html=1;align=center;verticalAlign=middle;" parent="T0YR8MX-vg3qSfp54hWT-88" connectable="0" vertex="1">
          <mxGeometry relative="1" as="geometry" />
        </mxCell>
        <mxCell id="T0YR8MX-vg3qSfp54hWT-90" value="New.food.ID in basket" style="edgeLabel;resizable=0;html=1;align=left;verticalAlign=bottom;" parent="T0YR8MX-vg3qSfp54hWT-88" connectable="0" vertex="1">
          <mxGeometry x="-1" relative="1" as="geometry">
            <mxPoint x="-110" y="20" as="offset" />
          </mxGeometry>
        </mxCell>
        <mxCell id="T0YR8MX-vg3qSfp54hWT-91" value="" style="endArrow=classic;html=1;rounded=0;" parent="1" edge="1">
          <mxGeometry relative="1" as="geometry">
            <mxPoint x="2910" y="-1340" as="sourcePoint" />
            <mxPoint x="2740" y="-1340" as="targetPoint" />
          </mxGeometry>
        </mxCell>
        <mxCell id="T0YR8MX-vg3qSfp54hWT-92" value="New item in basket" style="edgeLabel;resizable=0;html=1;align=center;verticalAlign=middle;" parent="T0YR8MX-vg3qSfp54hWT-91" connectable="0" vertex="1">
          <mxGeometry relative="1" as="geometry" />
        </mxCell>
        <mxCell id="T0YR8MX-vg3qSfp54hWT-93" value="New.food.ID in basket" style="edgeLabel;resizable=0;html=1;align=left;verticalAlign=bottom;" parent="T0YR8MX-vg3qSfp54hWT-91" connectable="0" vertex="1">
          <mxGeometry x="-1" relative="1" as="geometry">
            <mxPoint x="-110" y="20" as="offset" />
          </mxGeometry>
        </mxCell>
        <mxCell id="T0YR8MX-vg3qSfp54hWT-94" value="USER" style="shape=umlActor;verticalLabelPosition=bottom;verticalAlign=top;html=1;outlineConnect=0;" parent="1" vertex="1">
          <mxGeometry x="3390" y="-1920" width="30" height="60" as="geometry" />
        </mxCell>
        <mxCell id="T0YR8MX-vg3qSfp54hWT-95" value="ORDER ADMIN" style="rounded=1;whiteSpace=wrap;html=1;" parent="1" vertex="1">
          <mxGeometry x="3500" y="-1910" width="120" height="60" as="geometry" />
        </mxCell>
        <mxCell id="T0YR8MX-vg3qSfp54hWT-96" value="ORDER" style="rounded=1;whiteSpace=wrap;html=1;" parent="1" vertex="1">
          <mxGeometry x="3700" y="-1910" width="120" height="60" as="geometry" />
        </mxCell>
        <mxCell id="T0YR8MX-vg3qSfp54hWT-97" value="" style="endArrow=none;html=1;rounded=0;" parent="1" edge="1">
          <mxGeometry width="50" height="50" relative="1" as="geometry">
            <mxPoint x="3390" y="-1290" as="sourcePoint" />
            <mxPoint x="3394.6875" y="-1860" as="targetPoint" />
          </mxGeometry>
        </mxCell>
        <mxCell id="T0YR8MX-vg3qSfp54hWT-98" value="" style="endArrow=none;html=1;rounded=0;entryX=0.5;entryY=1;entryDx=0;entryDy=0;" parent="1" target="T0YR8MX-vg3qSfp54hWT-95" edge="1">
          <mxGeometry width="50" height="50" relative="1" as="geometry">
            <mxPoint x="3560" y="-1290" as="sourcePoint" />
            <mxPoint x="3580" y="-1700" as="targetPoint" />
          </mxGeometry>
        </mxCell>
        <mxCell id="T0YR8MX-vg3qSfp54hWT-99" value="" style="endArrow=none;html=1;rounded=0;entryX=0.5;entryY=1;entryDx=0;entryDy=0;" parent="1" target="T0YR8MX-vg3qSfp54hWT-96" edge="1">
          <mxGeometry width="50" height="50" relative="1" as="geometry">
            <mxPoint x="3760" y="-1290" as="sourcePoint" />
            <mxPoint x="3580" y="-1700" as="targetPoint" />
          </mxGeometry>
        </mxCell>
        <mxCell id="T0YR8MX-vg3qSfp54hWT-108" value="DB" style="shape=cylinder3;whiteSpace=wrap;html=1;boundedLbl=1;backgroundOutline=1;size=15;" parent="1" vertex="1">
          <mxGeometry x="3890" y="-1910" width="60" height="80" as="geometry" />
        </mxCell>
        <mxCell id="T0YR8MX-vg3qSfp54hWT-109" value="" style="endArrow=none;html=1;rounded=0;entryX=0.5;entryY=1;entryDx=0;entryDy=0;entryPerimeter=0;" parent="1" target="T0YR8MX-vg3qSfp54hWT-108" edge="1">
          <mxGeometry width="50" height="50" relative="1" as="geometry">
            <mxPoint x="3920" y="-1290" as="sourcePoint" />
            <mxPoint x="3870" y="-1680" as="targetPoint" />
          </mxGeometry>
        </mxCell>
        <mxCell id="T0YR8MX-vg3qSfp54hWT-162" value="" style="endArrow=classic;html=1;rounded=0;" parent="1" edge="1">
          <mxGeometry relative="1" as="geometry">
            <mxPoint x="3390" y="-1810" as="sourcePoint" />
            <mxPoint x="3560" y="-1810" as="targetPoint" />
          </mxGeometry>
        </mxCell>
        <mxCell id="T0YR8MX-vg3qSfp54hWT-163" value="Add(food.ID to basket)" style="edgeLabel;resizable=0;html=1;align=center;verticalAlign=middle;" parent="T0YR8MX-vg3qSfp54hWT-162" connectable="0" vertex="1">
          <mxGeometry relative="1" as="geometry" />
        </mxCell>
        <mxCell id="T0YR8MX-vg3qSfp54hWT-165" value="" style="endArrow=classic;html=1;rounded=0;" parent="1" edge="1">
          <mxGeometry relative="1" as="geometry">
            <mxPoint x="3560" y="-1790" as="sourcePoint" />
            <mxPoint x="3760" y="-1790" as="targetPoint" />
          </mxGeometry>
        </mxCell>
        <mxCell id="T0YR8MX-vg3qSfp54hWT-166" value="Add(food.ID to basket)" style="edgeLabel;resizable=0;html=1;align=center;verticalAlign=middle;" parent="T0YR8MX-vg3qSfp54hWT-165" connectable="0" vertex="1">
          <mxGeometry relative="1" as="geometry" />
        </mxCell>
        <mxCell id="T0YR8MX-vg3qSfp54hWT-167" value="Add food to basket" style="edgeLabel;resizable=0;html=1;align=left;verticalAlign=bottom;" parent="T0YR8MX-vg3qSfp54hWT-165" connectable="0" vertex="1">
          <mxGeometry x="-1" relative="1" as="geometry">
            <mxPoint y="-10" as="offset" />
          </mxGeometry>
        </mxCell>
        <mxCell id="T0YR8MX-vg3qSfp54hWT-168" value="" style="endArrow=classic;html=1;rounded=0;" parent="1" edge="1">
          <mxGeometry relative="1" as="geometry">
            <mxPoint x="3760" y="-1770" as="sourcePoint" />
            <mxPoint x="3920" y="-1770" as="targetPoint" />
          </mxGeometry>
        </mxCell>
        <mxCell id="T0YR8MX-vg3qSfp54hWT-169" value="Add(food.ID to basket)" style="edgeLabel;resizable=0;html=1;align=center;verticalAlign=middle;" parent="T0YR8MX-vg3qSfp54hWT-168" connectable="0" vertex="1">
          <mxGeometry relative="1" as="geometry" />
        </mxCell>
        <mxCell id="T0YR8MX-vg3qSfp54hWT-170" value="Add food to basket" style="edgeLabel;resizable=0;html=1;align=left;verticalAlign=bottom;" parent="T0YR8MX-vg3qSfp54hWT-168" connectable="0" vertex="1">
          <mxGeometry x="-1" relative="1" as="geometry">
            <mxPoint y="-10" as="offset" />
          </mxGeometry>
        </mxCell>
        <mxCell id="T0YR8MX-vg3qSfp54hWT-171" value="" style="endArrow=classic;html=1;rounded=0;" parent="1" edge="1">
          <mxGeometry relative="1" as="geometry">
            <mxPoint x="3920" y="-1750" as="sourcePoint" />
            <mxPoint x="3760" y="-1750" as="targetPoint" />
          </mxGeometry>
        </mxCell>
        <mxCell id="T0YR8MX-vg3qSfp54hWT-172" value="New item in basket" style="edgeLabel;resizable=0;html=1;align=center;verticalAlign=middle;" parent="T0YR8MX-vg3qSfp54hWT-171" connectable="0" vertex="1">
          <mxGeometry relative="1" as="geometry" />
        </mxCell>
        <mxCell id="T0YR8MX-vg3qSfp54hWT-173" value="New.food.ID in basket" style="edgeLabel;resizable=0;html=1;align=left;verticalAlign=bottom;" parent="T0YR8MX-vg3qSfp54hWT-171" connectable="0" vertex="1">
          <mxGeometry x="-1" relative="1" as="geometry">
            <mxPoint x="-110" y="20" as="offset" />
          </mxGeometry>
        </mxCell>
        <mxCell id="T0YR8MX-vg3qSfp54hWT-174" value="" style="endArrow=classic;html=1;rounded=0;" parent="1" edge="1">
          <mxGeometry relative="1" as="geometry">
            <mxPoint x="3760" y="-1740" as="sourcePoint" />
            <mxPoint x="3560" y="-1740" as="targetPoint" />
          </mxGeometry>
        </mxCell>
        <mxCell id="T0YR8MX-vg3qSfp54hWT-175" value="New item in basket" style="edgeLabel;resizable=0;html=1;align=center;verticalAlign=middle;" parent="T0YR8MX-vg3qSfp54hWT-174" connectable="0" vertex="1">
          <mxGeometry relative="1" as="geometry" />
        </mxCell>
        <mxCell id="T0YR8MX-vg3qSfp54hWT-176" value="New.food.ID in basket" style="edgeLabel;resizable=0;html=1;align=left;verticalAlign=bottom;" parent="T0YR8MX-vg3qSfp54hWT-174" connectable="0" vertex="1">
          <mxGeometry x="-1" relative="1" as="geometry">
            <mxPoint x="-110" y="20" as="offset" />
          </mxGeometry>
        </mxCell>
        <mxCell id="T0YR8MX-vg3qSfp54hWT-177" value="" style="endArrow=classic;html=1;rounded=0;" parent="1" edge="1">
          <mxGeometry relative="1" as="geometry">
            <mxPoint x="3560" y="-1730" as="sourcePoint" />
            <mxPoint x="3390" y="-1730" as="targetPoint" />
          </mxGeometry>
        </mxCell>
        <mxCell id="T0YR8MX-vg3qSfp54hWT-178" value="New item in basket" style="edgeLabel;resizable=0;html=1;align=center;verticalAlign=middle;" parent="T0YR8MX-vg3qSfp54hWT-177" connectable="0" vertex="1">
          <mxGeometry relative="1" as="geometry" />
        </mxCell>
        <mxCell id="T0YR8MX-vg3qSfp54hWT-179" value="New.food.ID in basket" style="edgeLabel;resizable=0;html=1;align=left;verticalAlign=bottom;" parent="T0YR8MX-vg3qSfp54hWT-177" connectable="0" vertex="1">
          <mxGeometry x="-1" relative="1" as="geometry">
            <mxPoint x="-110" y="20" as="offset" />
          </mxGeometry>
        </mxCell>
        <mxCell id="T0YR8MX-vg3qSfp54hWT-197" value="Add food to basket" style="edgeLabel;resizable=0;html=1;align=left;verticalAlign=bottom;" parent="1" connectable="0" vertex="1">
          <mxGeometry x="3400" y="-1820" as="geometry" />
        </mxCell>
        <mxCell id="T0YR8MX-vg3qSfp54hWT-198" value="" style="endArrow=classic;html=1;rounded=0;" parent="1" edge="1">
          <mxGeometry relative="1" as="geometry">
            <mxPoint x="3390" y="-1680" as="sourcePoint" />
            <mxPoint x="3560" y="-1680" as="targetPoint" />
          </mxGeometry>
        </mxCell>
        <mxCell id="T0YR8MX-vg3qSfp54hWT-199" value="Add(food.ID += quantity)" style="edgeLabel;resizable=0;html=1;align=center;verticalAlign=middle;" parent="T0YR8MX-vg3qSfp54hWT-198" connectable="0" vertex="1">
          <mxGeometry relative="1" as="geometry" />
        </mxCell>
        <mxCell id="T0YR8MX-vg3qSfp54hWT-206" value="" style="endArrow=classic;html=1;rounded=0;" parent="1" edge="1">
          <mxGeometry relative="1" as="geometry">
            <mxPoint x="3920" y="-1620" as="sourcePoint" />
            <mxPoint x="3760" y="-1620" as="targetPoint" />
          </mxGeometry>
        </mxCell>
        <mxCell id="T0YR8MX-vg3qSfp54hWT-207" value="New food quantity in basket" style="edgeLabel;resizable=0;html=1;align=center;verticalAlign=middle;" parent="T0YR8MX-vg3qSfp54hWT-206" connectable="0" vertex="1">
          <mxGeometry relative="1" as="geometry" />
        </mxCell>
        <mxCell id="T0YR8MX-vg3qSfp54hWT-208" value="New.food.ID.quantity" style="edgeLabel;resizable=0;html=1;align=left;verticalAlign=bottom;" parent="T0YR8MX-vg3qSfp54hWT-206" connectable="0" vertex="1">
          <mxGeometry x="-1" relative="1" as="geometry">
            <mxPoint x="-110" y="20" as="offset" />
          </mxGeometry>
        </mxCell>
        <mxCell id="T0YR8MX-vg3qSfp54hWT-215" value="Add more food quantity in basket" style="edgeLabel;resizable=0;html=1;align=left;verticalAlign=bottom;" parent="1" connectable="0" vertex="1">
          <mxGeometry x="3400" y="-1690" as="geometry" />
        </mxCell>
        <mxCell id="T0YR8MX-vg3qSfp54hWT-216" value="" style="curved=1;endArrow=classic;html=1;rounded=0;" parent="1" edge="1">
          <mxGeometry width="50" height="50" relative="1" as="geometry">
            <mxPoint x="2740" y="-1340" as="sourcePoint" />
            <mxPoint x="2740" y="-1420" as="targetPoint" />
            <Array as="points">
              <mxPoint x="2690" y="-1340" />
              <mxPoint x="2690" y="-1420" />
            </Array>
          </mxGeometry>
        </mxCell>
        <mxCell id="T0YR8MX-vg3qSfp54hWT-219" value="" style="endArrow=classic;html=1;rounded=0;" parent="1" edge="1">
          <mxGeometry relative="1" as="geometry">
            <mxPoint x="3560" y="-1660" as="sourcePoint" />
            <mxPoint x="3760" y="-1660" as="targetPoint" />
          </mxGeometry>
        </mxCell>
        <mxCell id="T0YR8MX-vg3qSfp54hWT-220" value="Add(food.ID += quantity)" style="edgeLabel;resizable=0;html=1;align=center;verticalAlign=middle;" parent="T0YR8MX-vg3qSfp54hWT-219" connectable="0" vertex="1">
          <mxGeometry relative="1" as="geometry" />
        </mxCell>
        <mxCell id="T0YR8MX-vg3qSfp54hWT-221" value="Add more food quantity in basket" style="edgeLabel;resizable=0;html=1;align=left;verticalAlign=bottom;" parent="1" connectable="0" vertex="1">
          <mxGeometry x="3570" y="-1670" as="geometry" />
        </mxCell>
        <mxCell id="T0YR8MX-vg3qSfp54hWT-222" value="" style="endArrow=classic;html=1;rounded=0;" parent="1" edge="1">
          <mxGeometry relative="1" as="geometry">
            <mxPoint x="3760" y="-1650" as="sourcePoint" />
            <mxPoint x="3920" y="-1650" as="targetPoint" />
          </mxGeometry>
        </mxCell>
        <mxCell id="T0YR8MX-vg3qSfp54hWT-223" value="Add(food.ID += quantity)" style="edgeLabel;resizable=0;html=1;align=center;verticalAlign=middle;" parent="T0YR8MX-vg3qSfp54hWT-222" connectable="0" vertex="1">
          <mxGeometry relative="1" as="geometry" />
        </mxCell>
        <mxCell id="T0YR8MX-vg3qSfp54hWT-224" value="Add more food quantity in basket" style="edgeLabel;resizable=0;html=1;align=left;verticalAlign=bottom;" parent="1" connectable="0" vertex="1">
          <mxGeometry x="3760" y="-1660" as="geometry" />
        </mxCell>
        <mxCell id="T0YR8MX-vg3qSfp54hWT-225" value="" style="endArrow=classic;html=1;rounded=0;" parent="1" edge="1">
          <mxGeometry relative="1" as="geometry">
            <mxPoint x="3760" y="-1610" as="sourcePoint" />
            <mxPoint x="3560" y="-1610" as="targetPoint" />
          </mxGeometry>
        </mxCell>
        <mxCell id="T0YR8MX-vg3qSfp54hWT-226" value="New food quantity in basket" style="edgeLabel;resizable=0;html=1;align=center;verticalAlign=middle;" parent="T0YR8MX-vg3qSfp54hWT-225" connectable="0" vertex="1">
          <mxGeometry relative="1" as="geometry" />
        </mxCell>
        <mxCell id="T0YR8MX-vg3qSfp54hWT-227" value="New.food.ID.quantity" style="edgeLabel;resizable=0;html=1;align=left;verticalAlign=bottom;" parent="T0YR8MX-vg3qSfp54hWT-225" connectable="0" vertex="1">
          <mxGeometry x="-1" relative="1" as="geometry">
            <mxPoint x="-110" y="20" as="offset" />
          </mxGeometry>
        </mxCell>
        <mxCell id="T0YR8MX-vg3qSfp54hWT-228" value="" style="endArrow=classic;html=1;rounded=0;" parent="1" edge="1">
          <mxGeometry relative="1" as="geometry">
            <mxPoint x="3560" y="-1600" as="sourcePoint" />
            <mxPoint x="3390" y="-1600" as="targetPoint" />
          </mxGeometry>
        </mxCell>
        <mxCell id="T0YR8MX-vg3qSfp54hWT-229" value="New food quantity in basket" style="edgeLabel;resizable=0;html=1;align=center;verticalAlign=middle;" parent="T0YR8MX-vg3qSfp54hWT-228" connectable="0" vertex="1">
          <mxGeometry relative="1" as="geometry" />
        </mxCell>
        <mxCell id="T0YR8MX-vg3qSfp54hWT-230" value="New.food.ID.quantity" style="edgeLabel;resizable=0;html=1;align=left;verticalAlign=bottom;" parent="T0YR8MX-vg3qSfp54hWT-228" connectable="0" vertex="1">
          <mxGeometry x="-1" relative="1" as="geometry">
            <mxPoint x="-110" y="20" as="offset" />
          </mxGeometry>
        </mxCell>
        <mxCell id="T0YR8MX-vg3qSfp54hWT-236" value="" style="endArrow=classic;html=1;rounded=0;" parent="1" edge="1">
          <mxGeometry relative="1" as="geometry">
            <mxPoint x="3390" y="-1540" as="sourcePoint" />
            <mxPoint x="3560" y="-1540" as="targetPoint" />
          </mxGeometry>
        </mxCell>
        <mxCell id="T0YR8MX-vg3qSfp54hWT-237" value="Remove(food.ID to basket)" style="edgeLabel;resizable=0;html=1;align=center;verticalAlign=middle;" parent="T0YR8MX-vg3qSfp54hWT-236" connectable="0" vertex="1">
          <mxGeometry relative="1" as="geometry" />
        </mxCell>
        <mxCell id="T0YR8MX-vg3qSfp54hWT-238" value="Remove food in basket" style="edgeLabel;resizable=0;html=1;align=left;verticalAlign=bottom;" parent="T0YR8MX-vg3qSfp54hWT-236" connectable="0" vertex="1">
          <mxGeometry x="-1" relative="1" as="geometry">
            <mxPoint y="-10" as="offset" />
          </mxGeometry>
        </mxCell>
        <mxCell id="T0YR8MX-vg3qSfp54hWT-239" value="" style="endArrow=classic;html=1;rounded=0;" parent="1" edge="1">
          <mxGeometry relative="1" as="geometry">
            <mxPoint x="3920" y="-1490" as="sourcePoint" />
            <mxPoint x="3760" y="-1490" as="targetPoint" />
          </mxGeometry>
        </mxCell>
        <mxCell id="T0YR8MX-vg3qSfp54hWT-240" value="# items in basket" style="edgeLabel;resizable=0;html=1;align=center;verticalAlign=middle;" parent="T0YR8MX-vg3qSfp54hWT-239" connectable="0" vertex="1">
          <mxGeometry relative="1" as="geometry" />
        </mxCell>
        <mxCell id="T0YR8MX-vg3qSfp54hWT-241" value="Basket with # items" style="edgeLabel;resizable=0;html=1;align=left;verticalAlign=bottom;" parent="T0YR8MX-vg3qSfp54hWT-239" connectable="0" vertex="1">
          <mxGeometry x="-1" relative="1" as="geometry">
            <mxPoint x="-110" y="20" as="offset" />
          </mxGeometry>
        </mxCell>
        <mxCell id="T0YR8MX-vg3qSfp54hWT-251" value="" style="endArrow=classic;html=1;rounded=0;" parent="1" edge="1">
          <mxGeometry relative="1" as="geometry">
            <mxPoint x="3560" y="-1530" as="sourcePoint" />
            <mxPoint x="3760" y="-1530" as="targetPoint" />
          </mxGeometry>
        </mxCell>
        <mxCell id="T0YR8MX-vg3qSfp54hWT-252" value="Remove(food.ID to basket)" style="edgeLabel;resizable=0;html=1;align=center;verticalAlign=middle;" parent="T0YR8MX-vg3qSfp54hWT-251" connectable="0" vertex="1">
          <mxGeometry relative="1" as="geometry" />
        </mxCell>
        <mxCell id="T0YR8MX-vg3qSfp54hWT-253" value="Remove food in basket" style="edgeLabel;resizable=0;html=1;align=left;verticalAlign=bottom;" parent="T0YR8MX-vg3qSfp54hWT-251" connectable="0" vertex="1">
          <mxGeometry x="-1" relative="1" as="geometry">
            <mxPoint y="-10" as="offset" />
          </mxGeometry>
        </mxCell>
        <mxCell id="T0YR8MX-vg3qSfp54hWT-254" value="" style="endArrow=classic;html=1;rounded=0;" parent="1" edge="1">
          <mxGeometry relative="1" as="geometry">
            <mxPoint x="3760" y="-1520" as="sourcePoint" />
            <mxPoint x="3920" y="-1520" as="targetPoint" />
          </mxGeometry>
        </mxCell>
        <mxCell id="T0YR8MX-vg3qSfp54hWT-255" value="Remove(food.ID to basket)" style="edgeLabel;resizable=0;html=1;align=center;verticalAlign=middle;" parent="T0YR8MX-vg3qSfp54hWT-254" connectable="0" vertex="1">
          <mxGeometry relative="1" as="geometry" />
        </mxCell>
        <mxCell id="T0YR8MX-vg3qSfp54hWT-256" value="Remove food in basket" style="edgeLabel;resizable=0;html=1;align=left;verticalAlign=bottom;" parent="T0YR8MX-vg3qSfp54hWT-254" connectable="0" vertex="1">
          <mxGeometry x="-1" relative="1" as="geometry">
            <mxPoint y="-10" as="offset" />
          </mxGeometry>
        </mxCell>
        <mxCell id="T0YR8MX-vg3qSfp54hWT-257" value="" style="endArrow=classic;html=1;rounded=0;" parent="1" edge="1">
          <mxGeometry relative="1" as="geometry">
            <mxPoint x="3760" y="-1480" as="sourcePoint" />
            <mxPoint x="3560" y="-1480" as="targetPoint" />
          </mxGeometry>
        </mxCell>
        <mxCell id="T0YR8MX-vg3qSfp54hWT-258" value="# items in basket" style="edgeLabel;resizable=0;html=1;align=center;verticalAlign=middle;" parent="T0YR8MX-vg3qSfp54hWT-257" connectable="0" vertex="1">
          <mxGeometry relative="1" as="geometry" />
        </mxCell>
        <mxCell id="T0YR8MX-vg3qSfp54hWT-259" value="Basket with # items" style="edgeLabel;resizable=0;html=1;align=left;verticalAlign=bottom;" parent="T0YR8MX-vg3qSfp54hWT-257" connectable="0" vertex="1">
          <mxGeometry x="-1" relative="1" as="geometry">
            <mxPoint x="-110" y="20" as="offset" />
          </mxGeometry>
        </mxCell>
        <mxCell id="T0YR8MX-vg3qSfp54hWT-260" value="" style="endArrow=classic;html=1;rounded=0;" parent="1" edge="1">
          <mxGeometry relative="1" as="geometry">
            <mxPoint x="3560" y="-1470" as="sourcePoint" />
            <mxPoint x="3390" y="-1470" as="targetPoint" />
          </mxGeometry>
        </mxCell>
        <mxCell id="T0YR8MX-vg3qSfp54hWT-261" value="# items in basket" style="edgeLabel;resizable=0;html=1;align=center;verticalAlign=middle;" parent="T0YR8MX-vg3qSfp54hWT-260" connectable="0" vertex="1">
          <mxGeometry relative="1" as="geometry" />
        </mxCell>
        <mxCell id="T0YR8MX-vg3qSfp54hWT-262" value="Basket with # items" style="edgeLabel;resizable=0;html=1;align=left;verticalAlign=bottom;" parent="T0YR8MX-vg3qSfp54hWT-260" connectable="0" vertex="1">
          <mxGeometry x="-1" relative="1" as="geometry">
            <mxPoint x="-110" y="20" as="offset" />
          </mxGeometry>
        </mxCell>
        <mxCell id="T0YR8MX-vg3qSfp54hWT-263" value="USER" style="shape=umlActor;verticalLabelPosition=bottom;verticalAlign=top;html=1;outlineConnect=0;" parent="1" vertex="1">
          <mxGeometry x="1520" y="-1940" width="30" height="60" as="geometry" />
        </mxCell>
        <mxCell id="T0YR8MX-vg3qSfp54hWT-264" value="USER AUTETIFICATION" style="rounded=1;whiteSpace=wrap;html=1;" parent="1" vertex="1">
          <mxGeometry x="1630" y="-1930" width="120" height="60" as="geometry" />
        </mxCell>
        <mxCell id="T0YR8MX-vg3qSfp54hWT-265" value="USER" style="rounded=1;whiteSpace=wrap;html=1;" parent="1" vertex="1">
          <mxGeometry x="1830" y="-1930" width="120" height="60" as="geometry" />
        </mxCell>
        <mxCell id="T0YR8MX-vg3qSfp54hWT-266" value="" style="endArrow=none;html=1;rounded=0;" parent="1" edge="1">
          <mxGeometry width="50" height="50" relative="1" as="geometry">
            <mxPoint x="1520" y="-1310" as="sourcePoint" />
            <mxPoint x="1524.6875" y="-1880" as="targetPoint" />
          </mxGeometry>
        </mxCell>
        <mxCell id="T0YR8MX-vg3qSfp54hWT-267" value="" style="endArrow=none;html=1;rounded=0;entryX=0.5;entryY=1;entryDx=0;entryDy=0;" parent="1" target="T0YR8MX-vg3qSfp54hWT-264" edge="1">
          <mxGeometry width="50" height="50" relative="1" as="geometry">
            <mxPoint x="1690" y="-1310" as="sourcePoint" />
            <mxPoint x="1710" y="-1720" as="targetPoint" />
          </mxGeometry>
        </mxCell>
        <mxCell id="T0YR8MX-vg3qSfp54hWT-268" value="" style="endArrow=none;html=1;rounded=0;entryX=0.5;entryY=1;entryDx=0;entryDy=0;" parent="1" target="T0YR8MX-vg3qSfp54hWT-265" edge="1">
          <mxGeometry width="50" height="50" relative="1" as="geometry">
            <mxPoint x="1890" y="-1310" as="sourcePoint" />
            <mxPoint x="1710" y="-1720" as="targetPoint" />
          </mxGeometry>
        </mxCell>
        <mxCell id="T0YR8MX-vg3qSfp54hWT-269" value="DB" style="shape=cylinder3;whiteSpace=wrap;html=1;boundedLbl=1;backgroundOutline=1;size=15;" parent="1" vertex="1">
          <mxGeometry x="2020" y="-1930" width="60" height="80" as="geometry" />
        </mxCell>
        <mxCell id="T0YR8MX-vg3qSfp54hWT-270" value="" style="endArrow=none;html=1;rounded=0;entryX=0.5;entryY=1;entryDx=0;entryDy=0;entryPerimeter=0;" parent="1" target="T0YR8MX-vg3qSfp54hWT-269" edge="1">
          <mxGeometry width="50" height="50" relative="1" as="geometry">
            <mxPoint x="2050" y="-1310" as="sourcePoint" />
            <mxPoint x="2000" y="-1700" as="targetPoint" />
          </mxGeometry>
        </mxCell>
        <mxCell id="T0YR8MX-vg3qSfp54hWT-271" value="" style="endArrow=classic;html=1;rounded=0;" parent="1" edge="1">
          <mxGeometry relative="1" as="geometry">
            <mxPoint x="1520" y="-1830" as="sourcePoint" />
            <mxPoint x="1690" y="-1830" as="targetPoint" />
          </mxGeometry>
        </mxCell>
        <mxCell id="T0YR8MX-vg3qSfp54hWT-272" value="username == user.userID" style="edgeLabel;resizable=0;html=1;align=center;verticalAlign=middle;" parent="T0YR8MX-vg3qSfp54hWT-271" connectable="0" vertex="1">
          <mxGeometry relative="1" as="geometry" />
        </mxCell>
        <mxCell id="T0YR8MX-vg3qSfp54hWT-288" value="Write &quot;username&quot;" style="edgeLabel;resizable=0;html=1;align=left;verticalAlign=bottom;" parent="1" connectable="0" vertex="1">
          <mxGeometry x="1530" y="-1840" as="geometry" />
        </mxCell>
        <mxCell id="T0YR8MX-vg3qSfp54hWT-327" value="" style="endArrow=classic;html=1;rounded=0;" parent="1" edge="1">
          <mxGeometry relative="1" as="geometry">
            <mxPoint x="1690" y="-1820" as="sourcePoint" />
            <mxPoint x="1890" y="-1820" as="targetPoint" />
          </mxGeometry>
        </mxCell>
        <mxCell id="T0YR8MX-vg3qSfp54hWT-328" value="username == user.userID" style="edgeLabel;resizable=0;html=1;align=center;verticalAlign=middle;" parent="T0YR8MX-vg3qSfp54hWT-327" connectable="0" vertex="1">
          <mxGeometry relative="1" as="geometry" />
        </mxCell>
        <mxCell id="T0YR8MX-vg3qSfp54hWT-329" value="Search &quot;username&quot;" style="edgeLabel;resizable=0;html=1;align=left;verticalAlign=bottom;" parent="T0YR8MX-vg3qSfp54hWT-327" connectable="0" vertex="1">
          <mxGeometry x="-1" relative="1" as="geometry" />
        </mxCell>
        <mxCell id="T0YR8MX-vg3qSfp54hWT-330" value="" style="endArrow=classic;html=1;rounded=0;" parent="1" edge="1">
          <mxGeometry relative="1" as="geometry">
            <mxPoint x="1890" y="-1810" as="sourcePoint" />
            <mxPoint x="2050" y="-1810" as="targetPoint" />
          </mxGeometry>
        </mxCell>
        <mxCell id="T0YR8MX-vg3qSfp54hWT-331" value="username == user.userID" style="edgeLabel;resizable=0;html=1;align=center;verticalAlign=middle;" parent="T0YR8MX-vg3qSfp54hWT-330" connectable="0" vertex="1">
          <mxGeometry relative="1" as="geometry" />
        </mxCell>
        <mxCell id="T0YR8MX-vg3qSfp54hWT-332" value="Search &quot;username&quot;" style="edgeLabel;resizable=0;html=1;align=left;verticalAlign=bottom;" parent="T0YR8MX-vg3qSfp54hWT-330" connectable="0" vertex="1">
          <mxGeometry x="-1" relative="1" as="geometry" />
        </mxCell>
        <mxCell id="T0YR8MX-vg3qSfp54hWT-334" value="" style="endArrow=classic;html=1;rounded=0;" parent="1" edge="1">
          <mxGeometry relative="1" as="geometry">
            <mxPoint x="2050" y="-1790" as="sourcePoint" />
            <mxPoint x="1890" y="-1790" as="targetPoint" />
          </mxGeometry>
        </mxCell>
        <mxCell id="T0YR8MX-vg3qSfp54hWT-335" value="username != user.userID" style="edgeLabel;resizable=0;html=1;align=center;verticalAlign=middle;" parent="T0YR8MX-vg3qSfp54hWT-334" connectable="0" vertex="1">
          <mxGeometry relative="1" as="geometry" />
        </mxCell>
        <mxCell id="T0YR8MX-vg3qSfp54hWT-336" value="Invalid username" style="edgeLabel;resizable=0;html=1;align=left;verticalAlign=bottom;" parent="T0YR8MX-vg3qSfp54hWT-334" connectable="0" vertex="1">
          <mxGeometry x="-1" relative="1" as="geometry">
            <mxPoint x="-100" y="20" as="offset" />
          </mxGeometry>
        </mxCell>
        <mxCell id="T0YR8MX-vg3qSfp54hWT-338" value="" style="endArrow=classic;html=1;rounded=0;" parent="1" edge="1">
          <mxGeometry relative="1" as="geometry">
            <mxPoint x="1890" y="-1780" as="sourcePoint" />
            <mxPoint x="1690" y="-1780" as="targetPoint" />
          </mxGeometry>
        </mxCell>
        <mxCell id="T0YR8MX-vg3qSfp54hWT-339" value="username != user.userID" style="edgeLabel;resizable=0;html=1;align=center;verticalAlign=middle;" parent="T0YR8MX-vg3qSfp54hWT-338" connectable="0" vertex="1">
          <mxGeometry relative="1" as="geometry" />
        </mxCell>
        <mxCell id="T0YR8MX-vg3qSfp54hWT-340" value="Invalid username" style="edgeLabel;resizable=0;html=1;align=left;verticalAlign=bottom;" parent="T0YR8MX-vg3qSfp54hWT-338" connectable="0" vertex="1">
          <mxGeometry x="-1" relative="1" as="geometry">
            <mxPoint x="-100" y="20" as="offset" />
          </mxGeometry>
        </mxCell>
        <mxCell id="T0YR8MX-vg3qSfp54hWT-341" value="" style="endArrow=classic;html=1;rounded=0;" parent="1" edge="1">
          <mxGeometry relative="1" as="geometry">
            <mxPoint x="1690" y="-1770" as="sourcePoint" />
            <mxPoint x="1520" y="-1770" as="targetPoint" />
          </mxGeometry>
        </mxCell>
        <mxCell id="T0YR8MX-vg3qSfp54hWT-342" value="username != user.userID" style="edgeLabel;resizable=0;html=1;align=center;verticalAlign=middle;" parent="T0YR8MX-vg3qSfp54hWT-341" connectable="0" vertex="1">
          <mxGeometry relative="1" as="geometry" />
        </mxCell>
        <mxCell id="T0YR8MX-vg3qSfp54hWT-343" value="Invalid username" style="edgeLabel;resizable=0;html=1;align=left;verticalAlign=bottom;" parent="T0YR8MX-vg3qSfp54hWT-341" connectable="0" vertex="1">
          <mxGeometry x="-1" relative="1" as="geometry">
            <mxPoint x="-100" y="20" as="offset" />
          </mxGeometry>
        </mxCell>
        <mxCell id="T0YR8MX-vg3qSfp54hWT-344" value="" style="endArrow=classic;html=1;rounded=0;" parent="1" edge="1">
          <mxGeometry relative="1" as="geometry">
            <mxPoint x="2050" y="-1750" as="sourcePoint" />
            <mxPoint x="1890" y="-1750" as="targetPoint" />
          </mxGeometry>
        </mxCell>
        <mxCell id="T0YR8MX-vg3qSfp54hWT-345" value="username == user.userID" style="edgeLabel;resizable=0;html=1;align=center;verticalAlign=middle;" parent="T0YR8MX-vg3qSfp54hWT-344" connectable="0" vertex="1">
          <mxGeometry relative="1" as="geometry" />
        </mxCell>
        <mxCell id="T0YR8MX-vg3qSfp54hWT-346" value="Correct username" style="edgeLabel;resizable=0;html=1;align=left;verticalAlign=bottom;" parent="T0YR8MX-vg3qSfp54hWT-344" connectable="0" vertex="1">
          <mxGeometry x="-1" relative="1" as="geometry">
            <mxPoint x="-100" y="20" as="offset" />
          </mxGeometry>
        </mxCell>
        <mxCell id="T0YR8MX-vg3qSfp54hWT-347" value="" style="curved=1;endArrow=classic;html=1;rounded=0;" parent="1" edge="1">
          <mxGeometry width="50" height="50" relative="1" as="geometry">
            <mxPoint x="2050" y="-1810" as="sourcePoint" />
            <mxPoint x="2050" y="-1790" as="targetPoint" />
            <Array as="points">
              <mxPoint x="2080" y="-1810" />
              <mxPoint x="2090" y="-1780" />
            </Array>
          </mxGeometry>
        </mxCell>
        <mxCell id="T0YR8MX-vg3qSfp54hWT-348" value="" style="curved=1;endArrow=classic;html=1;rounded=0;" parent="1" edge="1">
          <mxGeometry width="50" height="50" relative="1" as="geometry">
            <mxPoint x="2050" y="-1810" as="sourcePoint" />
            <mxPoint x="2050" y="-1750" as="targetPoint" />
            <Array as="points">
              <mxPoint x="2090" y="-1810" />
              <mxPoint x="2090" y="-1750" />
            </Array>
          </mxGeometry>
        </mxCell>
        <mxCell id="T0YR8MX-vg3qSfp54hWT-349" value="" style="endArrow=classic;html=1;rounded=0;" parent="1" edge="1">
          <mxGeometry relative="1" as="geometry">
            <mxPoint x="1890" y="-1740" as="sourcePoint" />
            <mxPoint x="1690" y="-1740" as="targetPoint" />
          </mxGeometry>
        </mxCell>
        <mxCell id="T0YR8MX-vg3qSfp54hWT-350" value="username == user.userID" style="edgeLabel;resizable=0;html=1;align=center;verticalAlign=middle;" parent="T0YR8MX-vg3qSfp54hWT-349" connectable="0" vertex="1">
          <mxGeometry relative="1" as="geometry" />
        </mxCell>
        <mxCell id="T0YR8MX-vg3qSfp54hWT-351" value="Correct username" style="edgeLabel;resizable=0;html=1;align=left;verticalAlign=bottom;" parent="T0YR8MX-vg3qSfp54hWT-349" connectable="0" vertex="1">
          <mxGeometry x="-1" relative="1" as="geometry">
            <mxPoint x="-100" y="20" as="offset" />
          </mxGeometry>
        </mxCell>
        <mxCell id="T0YR8MX-vg3qSfp54hWT-352" value="" style="endArrow=classic;html=1;rounded=0;" parent="1" edge="1">
          <mxGeometry relative="1" as="geometry">
            <mxPoint x="1690" y="-1730" as="sourcePoint" />
            <mxPoint x="1520" y="-1730" as="targetPoint" />
          </mxGeometry>
        </mxCell>
        <mxCell id="T0YR8MX-vg3qSfp54hWT-353" value="username == user.userID" style="edgeLabel;resizable=0;html=1;align=center;verticalAlign=middle;" parent="T0YR8MX-vg3qSfp54hWT-352" connectable="0" vertex="1">
          <mxGeometry relative="1" as="geometry" />
        </mxCell>
        <mxCell id="T0YR8MX-vg3qSfp54hWT-354" value="Correct username" style="edgeLabel;resizable=0;html=1;align=left;verticalAlign=bottom;" parent="T0YR8MX-vg3qSfp54hWT-352" connectable="0" vertex="1">
          <mxGeometry x="-1" relative="1" as="geometry">
            <mxPoint x="-100" y="20" as="offset" />
          </mxGeometry>
        </mxCell>
        <mxCell id="T0YR8MX-vg3qSfp54hWT-355" value="" style="endArrow=classic;html=1;rounded=0;" parent="1" edge="1">
          <mxGeometry relative="1" as="geometry">
            <mxPoint x="1520" y="-1690.83" as="sourcePoint" />
            <mxPoint x="1690" y="-1690" as="targetPoint" />
          </mxGeometry>
        </mxCell>
        <mxCell id="T0YR8MX-vg3qSfp54hWT-356" value="password== user.password" style="edgeLabel;resizable=0;html=1;align=center;verticalAlign=middle;" parent="T0YR8MX-vg3qSfp54hWT-355" connectable="0" vertex="1">
          <mxGeometry relative="1" as="geometry" />
        </mxCell>
        <mxCell id="T0YR8MX-vg3qSfp54hWT-357" value="Wirite &quot;password&quot;" style="edgeLabel;resizable=0;html=1;align=left;verticalAlign=bottom;" parent="T0YR8MX-vg3qSfp54hWT-355" connectable="0" vertex="1">
          <mxGeometry x="-1" relative="1" as="geometry" />
        </mxCell>
        <mxCell id="T0YR8MX-vg3qSfp54hWT-358" value="" style="endArrow=classic;html=1;rounded=0;" parent="1" edge="1">
          <mxGeometry relative="1" as="geometry">
            <mxPoint x="1690" y="-1680.83" as="sourcePoint" />
            <mxPoint x="1890" y="-1680" as="targetPoint" />
          </mxGeometry>
        </mxCell>
        <mxCell id="T0YR8MX-vg3qSfp54hWT-359" value="password== user.password" style="edgeLabel;resizable=0;html=1;align=center;verticalAlign=middle;" parent="T0YR8MX-vg3qSfp54hWT-358" connectable="0" vertex="1">
          <mxGeometry relative="1" as="geometry" />
        </mxCell>
        <mxCell id="T0YR8MX-vg3qSfp54hWT-360" value="Serach &quot;password&quot;" style="edgeLabel;resizable=0;html=1;align=left;verticalAlign=bottom;" parent="T0YR8MX-vg3qSfp54hWT-358" connectable="0" vertex="1">
          <mxGeometry x="-1" relative="1" as="geometry" />
        </mxCell>
        <mxCell id="T0YR8MX-vg3qSfp54hWT-361" value="" style="endArrow=classic;html=1;rounded=0;" parent="1" edge="1">
          <mxGeometry relative="1" as="geometry">
            <mxPoint x="1890" y="-1670" as="sourcePoint" />
            <mxPoint x="2050" y="-1670" as="targetPoint" />
          </mxGeometry>
        </mxCell>
        <mxCell id="T0YR8MX-vg3qSfp54hWT-362" value="password== user.password" style="edgeLabel;resizable=0;html=1;align=center;verticalAlign=middle;" parent="T0YR8MX-vg3qSfp54hWT-361" connectable="0" vertex="1">
          <mxGeometry relative="1" as="geometry" />
        </mxCell>
        <mxCell id="T0YR8MX-vg3qSfp54hWT-363" value="Search &quot;password&quot;" style="edgeLabel;resizable=0;html=1;align=left;verticalAlign=bottom;" parent="T0YR8MX-vg3qSfp54hWT-361" connectable="0" vertex="1">
          <mxGeometry x="-1" relative="1" as="geometry" />
        </mxCell>
        <mxCell id="T0YR8MX-vg3qSfp54hWT-364" value="" style="endArrow=classic;html=1;rounded=0;" parent="1" edge="1">
          <mxGeometry relative="1" as="geometry">
            <mxPoint x="2050" y="-1650" as="sourcePoint" />
            <mxPoint x="1890" y="-1650" as="targetPoint" />
          </mxGeometry>
        </mxCell>
        <mxCell id="T0YR8MX-vg3qSfp54hWT-365" value="password != user.password" style="edgeLabel;resizable=0;html=1;align=center;verticalAlign=middle;" parent="T0YR8MX-vg3qSfp54hWT-364" connectable="0" vertex="1">
          <mxGeometry relative="1" as="geometry" />
        </mxCell>
        <mxCell id="T0YR8MX-vg3qSfp54hWT-366" value="Invalid password" style="edgeLabel;resizable=0;html=1;align=left;verticalAlign=bottom;" parent="T0YR8MX-vg3qSfp54hWT-364" connectable="0" vertex="1">
          <mxGeometry x="-1" relative="1" as="geometry">
            <mxPoint x="-100" y="20" as="offset" />
          </mxGeometry>
        </mxCell>
        <mxCell id="T0YR8MX-vg3qSfp54hWT-367" value="" style="endArrow=classic;html=1;rounded=0;" parent="1" edge="1">
          <mxGeometry relative="1" as="geometry">
            <mxPoint x="1890" y="-1640" as="sourcePoint" />
            <mxPoint x="1690" y="-1640" as="targetPoint" />
          </mxGeometry>
        </mxCell>
        <mxCell id="T0YR8MX-vg3qSfp54hWT-368" value="password != user.password" style="edgeLabel;resizable=0;html=1;align=center;verticalAlign=middle;" parent="T0YR8MX-vg3qSfp54hWT-367" connectable="0" vertex="1">
          <mxGeometry relative="1" as="geometry" />
        </mxCell>
        <mxCell id="T0YR8MX-vg3qSfp54hWT-369" value="Invalid password" style="edgeLabel;resizable=0;html=1;align=left;verticalAlign=bottom;" parent="T0YR8MX-vg3qSfp54hWT-367" connectable="0" vertex="1">
          <mxGeometry x="-1" relative="1" as="geometry">
            <mxPoint x="-100" y="20" as="offset" />
          </mxGeometry>
        </mxCell>
        <mxCell id="T0YR8MX-vg3qSfp54hWT-370" value="" style="endArrow=classic;html=1;rounded=0;" parent="1" edge="1">
          <mxGeometry relative="1" as="geometry">
            <mxPoint x="1690" y="-1630" as="sourcePoint" />
            <mxPoint x="1520" y="-1630" as="targetPoint" />
          </mxGeometry>
        </mxCell>
        <mxCell id="T0YR8MX-vg3qSfp54hWT-371" value="password != user.password" style="edgeLabel;resizable=0;html=1;align=center;verticalAlign=middle;" parent="T0YR8MX-vg3qSfp54hWT-370" connectable="0" vertex="1">
          <mxGeometry relative="1" as="geometry" />
        </mxCell>
        <mxCell id="T0YR8MX-vg3qSfp54hWT-372" value="Invalid password" style="edgeLabel;resizable=0;html=1;align=left;verticalAlign=bottom;" parent="T0YR8MX-vg3qSfp54hWT-370" connectable="0" vertex="1">
          <mxGeometry x="-1" relative="1" as="geometry">
            <mxPoint x="-100" y="20" as="offset" />
          </mxGeometry>
        </mxCell>
        <mxCell id="T0YR8MX-vg3qSfp54hWT-373" value="" style="endArrow=classic;html=1;rounded=0;" parent="1" edge="1">
          <mxGeometry relative="1" as="geometry">
            <mxPoint x="2050" y="-1610" as="sourcePoint" />
            <mxPoint x="1890" y="-1610" as="targetPoint" />
          </mxGeometry>
        </mxCell>
        <mxCell id="T0YR8MX-vg3qSfp54hWT-374" value="password == user.password" style="edgeLabel;resizable=0;html=1;align=center;verticalAlign=middle;" parent="T0YR8MX-vg3qSfp54hWT-373" connectable="0" vertex="1">
          <mxGeometry relative="1" as="geometry" />
        </mxCell>
        <mxCell id="T0YR8MX-vg3qSfp54hWT-375" value="Correct password" style="edgeLabel;resizable=0;html=1;align=left;verticalAlign=bottom;" parent="T0YR8MX-vg3qSfp54hWT-373" connectable="0" vertex="1">
          <mxGeometry x="-1" relative="1" as="geometry">
            <mxPoint x="-100" y="20" as="offset" />
          </mxGeometry>
        </mxCell>
        <mxCell id="T0YR8MX-vg3qSfp54hWT-376" value="" style="endArrow=classic;html=1;rounded=0;" parent="1" edge="1">
          <mxGeometry relative="1" as="geometry">
            <mxPoint x="1890" y="-1600" as="sourcePoint" />
            <mxPoint x="1690" y="-1600" as="targetPoint" />
          </mxGeometry>
        </mxCell>
        <mxCell id="T0YR8MX-vg3qSfp54hWT-377" value="password == user.password" style="edgeLabel;resizable=0;html=1;align=center;verticalAlign=middle;" parent="T0YR8MX-vg3qSfp54hWT-376" connectable="0" vertex="1">
          <mxGeometry relative="1" as="geometry" />
        </mxCell>
        <mxCell id="T0YR8MX-vg3qSfp54hWT-378" value="Correct password" style="edgeLabel;resizable=0;html=1;align=left;verticalAlign=bottom;" parent="T0YR8MX-vg3qSfp54hWT-376" connectable="0" vertex="1">
          <mxGeometry x="-1" relative="1" as="geometry">
            <mxPoint x="-100" y="20" as="offset" />
          </mxGeometry>
        </mxCell>
        <mxCell id="T0YR8MX-vg3qSfp54hWT-379" value="" style="endArrow=classic;html=1;rounded=0;" parent="1" edge="1">
          <mxGeometry relative="1" as="geometry">
            <mxPoint x="1690" y="-1590" as="sourcePoint" />
            <mxPoint x="1520" y="-1590" as="targetPoint" />
          </mxGeometry>
        </mxCell>
        <mxCell id="T0YR8MX-vg3qSfp54hWT-380" value="password == user.password" style="edgeLabel;resizable=0;html=1;align=center;verticalAlign=middle;" parent="T0YR8MX-vg3qSfp54hWT-379" connectable="0" vertex="1">
          <mxGeometry relative="1" as="geometry" />
        </mxCell>
        <mxCell id="T0YR8MX-vg3qSfp54hWT-381" value="Correct password" style="edgeLabel;resizable=0;html=1;align=left;verticalAlign=bottom;" parent="T0YR8MX-vg3qSfp54hWT-379" connectable="0" vertex="1">
          <mxGeometry x="-1" relative="1" as="geometry">
            <mxPoint x="-100" y="20" as="offset" />
          </mxGeometry>
        </mxCell>
        <mxCell id="T0YR8MX-vg3qSfp54hWT-382" value="" style="curved=1;endArrow=classic;html=1;rounded=0;" parent="1" edge="1">
          <mxGeometry width="50" height="50" relative="1" as="geometry">
            <mxPoint x="2050" y="-1670" as="sourcePoint" />
            <mxPoint x="2050" y="-1650" as="targetPoint" />
            <Array as="points">
              <mxPoint x="2080" y="-1670" />
              <mxPoint x="2090" y="-1640" />
            </Array>
          </mxGeometry>
        </mxCell>
        <mxCell id="T0YR8MX-vg3qSfp54hWT-383" value="" style="curved=1;endArrow=classic;html=1;rounded=0;" parent="1" edge="1">
          <mxGeometry width="50" height="50" relative="1" as="geometry">
            <mxPoint x="2050" y="-1670" as="sourcePoint" />
            <mxPoint x="2050" y="-1610" as="targetPoint" />
            <Array as="points">
              <mxPoint x="2090" y="-1670" />
              <mxPoint x="2090" y="-1610" />
            </Array>
          </mxGeometry>
        </mxCell>
        <mxCell id="T0YR8MX-vg3qSfp54hWT-385" value="" style="endArrow=classic;html=1;rounded=0;" parent="1" edge="1">
          <mxGeometry relative="1" as="geometry">
            <mxPoint x="1520" y="-1550.83" as="sourcePoint" />
            <mxPoint x="1690" y="-1550" as="targetPoint" />
          </mxGeometry>
        </mxCell>
        <mxCell id="T0YR8MX-vg3qSfp54hWT-386" value="email == user.email" style="edgeLabel;resizable=0;html=1;align=center;verticalAlign=middle;" parent="T0YR8MX-vg3qSfp54hWT-385" connectable="0" vertex="1">
          <mxGeometry relative="1" as="geometry" />
        </mxCell>
        <mxCell id="T0YR8MX-vg3qSfp54hWT-387" value="Wirite &quot;email&quot;" style="edgeLabel;resizable=0;html=1;align=left;verticalAlign=bottom;" parent="T0YR8MX-vg3qSfp54hWT-385" connectable="0" vertex="1">
          <mxGeometry x="-1" relative="1" as="geometry" />
        </mxCell>
        <mxCell id="T0YR8MX-vg3qSfp54hWT-388" value="" style="endArrow=classic;html=1;rounded=0;" parent="1" edge="1">
          <mxGeometry relative="1" as="geometry">
            <mxPoint x="1690" y="-1540.83" as="sourcePoint" />
            <mxPoint x="1890" y="-1540" as="targetPoint" />
          </mxGeometry>
        </mxCell>
        <mxCell id="T0YR8MX-vg3qSfp54hWT-389" value="email == user.email" style="edgeLabel;resizable=0;html=1;align=center;verticalAlign=middle;" parent="T0YR8MX-vg3qSfp54hWT-388" connectable="0" vertex="1">
          <mxGeometry relative="1" as="geometry" />
        </mxCell>
        <mxCell id="T0YR8MX-vg3qSfp54hWT-390" value="Search &quot;email&quot;" style="edgeLabel;resizable=0;html=1;align=left;verticalAlign=bottom;" parent="T0YR8MX-vg3qSfp54hWT-388" connectable="0" vertex="1">
          <mxGeometry x="-1" relative="1" as="geometry" />
        </mxCell>
        <mxCell id="T0YR8MX-vg3qSfp54hWT-391" value="" style="endArrow=classic;html=1;rounded=0;" parent="1" edge="1">
          <mxGeometry relative="1" as="geometry">
            <mxPoint x="1890" y="-1530" as="sourcePoint" />
            <mxPoint x="2050" y="-1530" as="targetPoint" />
          </mxGeometry>
        </mxCell>
        <mxCell id="T0YR8MX-vg3qSfp54hWT-392" value="email == user.email" style="edgeLabel;resizable=0;html=1;align=center;verticalAlign=middle;" parent="T0YR8MX-vg3qSfp54hWT-391" connectable="0" vertex="1">
          <mxGeometry relative="1" as="geometry" />
        </mxCell>
        <mxCell id="T0YR8MX-vg3qSfp54hWT-393" value="Search &quot;email&quot;" style="edgeLabel;resizable=0;html=1;align=left;verticalAlign=bottom;" parent="T0YR8MX-vg3qSfp54hWT-391" connectable="0" vertex="1">
          <mxGeometry x="-1" relative="1" as="geometry" />
        </mxCell>
        <mxCell id="T0YR8MX-vg3qSfp54hWT-395" value="" style="curved=1;endArrow=classic;html=1;rounded=0;" parent="1" edge="1">
          <mxGeometry width="50" height="50" relative="1" as="geometry">
            <mxPoint x="1520" y="-1630" as="sourcePoint" />
            <mxPoint x="1520" y="-1550" as="targetPoint" />
            <Array as="points">
              <mxPoint x="1470" y="-1630" />
              <mxPoint x="1470" y="-1550" />
            </Array>
          </mxGeometry>
        </mxCell>
        <mxCell id="T0YR8MX-vg3qSfp54hWT-396" value="" style="endArrow=classic;html=1;rounded=0;" parent="1" edge="1">
          <mxGeometry relative="1" as="geometry">
            <mxPoint x="2050" y="-1510" as="sourcePoint" />
            <mxPoint x="1890" y="-1510" as="targetPoint" />
          </mxGeometry>
        </mxCell>
        <mxCell id="T0YR8MX-vg3qSfp54hWT-397" value="email != user.email" style="edgeLabel;resizable=0;html=1;align=center;verticalAlign=middle;" parent="T0YR8MX-vg3qSfp54hWT-396" connectable="0" vertex="1">
          <mxGeometry relative="1" as="geometry" />
        </mxCell>
        <mxCell id="T0YR8MX-vg3qSfp54hWT-398" value="Invalid email" style="edgeLabel;resizable=0;html=1;align=left;verticalAlign=bottom;" parent="T0YR8MX-vg3qSfp54hWT-396" connectable="0" vertex="1">
          <mxGeometry x="-1" relative="1" as="geometry">
            <mxPoint x="-100" y="20" as="offset" />
          </mxGeometry>
        </mxCell>
        <mxCell id="T0YR8MX-vg3qSfp54hWT-399" value="" style="endArrow=classic;html=1;rounded=0;" parent="1" edge="1">
          <mxGeometry relative="1" as="geometry">
            <mxPoint x="1890" y="-1500" as="sourcePoint" />
            <mxPoint x="1690" y="-1500" as="targetPoint" />
          </mxGeometry>
        </mxCell>
        <mxCell id="T0YR8MX-vg3qSfp54hWT-400" value="email != user.email" style="edgeLabel;resizable=0;html=1;align=center;verticalAlign=middle;" parent="T0YR8MX-vg3qSfp54hWT-399" connectable="0" vertex="1">
          <mxGeometry relative="1" as="geometry" />
        </mxCell>
        <mxCell id="T0YR8MX-vg3qSfp54hWT-401" value="Invalid email" style="edgeLabel;resizable=0;html=1;align=left;verticalAlign=bottom;" parent="T0YR8MX-vg3qSfp54hWT-399" connectable="0" vertex="1">
          <mxGeometry x="-1" relative="1" as="geometry">
            <mxPoint x="-100" y="20" as="offset" />
          </mxGeometry>
        </mxCell>
        <mxCell id="T0YR8MX-vg3qSfp54hWT-402" value="" style="endArrow=classic;html=1;rounded=0;" parent="1" edge="1">
          <mxGeometry relative="1" as="geometry">
            <mxPoint x="1690" y="-1490" as="sourcePoint" />
            <mxPoint x="1520" y="-1490" as="targetPoint" />
          </mxGeometry>
        </mxCell>
        <mxCell id="T0YR8MX-vg3qSfp54hWT-403" value="email != user.email" style="edgeLabel;resizable=0;html=1;align=center;verticalAlign=middle;" parent="T0YR8MX-vg3qSfp54hWT-402" connectable="0" vertex="1">
          <mxGeometry relative="1" as="geometry" />
        </mxCell>
        <mxCell id="T0YR8MX-vg3qSfp54hWT-404" value="Invalid email" style="edgeLabel;resizable=0;html=1;align=left;verticalAlign=bottom;" parent="T0YR8MX-vg3qSfp54hWT-402" connectable="0" vertex="1">
          <mxGeometry x="-1" relative="1" as="geometry">
            <mxPoint x="-100" y="20" as="offset" />
          </mxGeometry>
        </mxCell>
        <mxCell id="T0YR8MX-vg3qSfp54hWT-405" value="" style="endArrow=classic;html=1;rounded=0;" parent="1" edge="1">
          <mxGeometry relative="1" as="geometry">
            <mxPoint x="2050" y="-1470" as="sourcePoint" />
            <mxPoint x="1890" y="-1470" as="targetPoint" />
          </mxGeometry>
        </mxCell>
        <mxCell id="T0YR8MX-vg3qSfp54hWT-406" value="email == user.email" style="edgeLabel;resizable=0;html=1;align=center;verticalAlign=middle;" parent="T0YR8MX-vg3qSfp54hWT-405" connectable="0" vertex="1">
          <mxGeometry relative="1" as="geometry" />
        </mxCell>
        <mxCell id="T0YR8MX-vg3qSfp54hWT-407" value="Correct email" style="edgeLabel;resizable=0;html=1;align=left;verticalAlign=bottom;" parent="T0YR8MX-vg3qSfp54hWT-405" connectable="0" vertex="1">
          <mxGeometry x="-1" relative="1" as="geometry">
            <mxPoint x="-100" y="20" as="offset" />
          </mxGeometry>
        </mxCell>
        <mxCell id="T0YR8MX-vg3qSfp54hWT-408" value="" style="endArrow=classic;html=1;rounded=0;" parent="1" edge="1">
          <mxGeometry relative="1" as="geometry">
            <mxPoint x="1890" y="-1460" as="sourcePoint" />
            <mxPoint x="1690" y="-1460" as="targetPoint" />
          </mxGeometry>
        </mxCell>
        <mxCell id="T0YR8MX-vg3qSfp54hWT-409" value="email == user.email" style="edgeLabel;resizable=0;html=1;align=center;verticalAlign=middle;" parent="T0YR8MX-vg3qSfp54hWT-408" connectable="0" vertex="1">
          <mxGeometry relative="1" as="geometry" />
        </mxCell>
        <mxCell id="T0YR8MX-vg3qSfp54hWT-410" value="Correct email" style="edgeLabel;resizable=0;html=1;align=left;verticalAlign=bottom;" parent="T0YR8MX-vg3qSfp54hWT-408" connectable="0" vertex="1">
          <mxGeometry x="-1" relative="1" as="geometry">
            <mxPoint x="-100" y="20" as="offset" />
          </mxGeometry>
        </mxCell>
        <mxCell id="T0YR8MX-vg3qSfp54hWT-411" value="" style="endArrow=classic;html=1;rounded=0;" parent="1" edge="1">
          <mxGeometry relative="1" as="geometry">
            <mxPoint x="1690" y="-1450" as="sourcePoint" />
            <mxPoint x="1520" y="-1450" as="targetPoint" />
          </mxGeometry>
        </mxCell>
        <mxCell id="T0YR8MX-vg3qSfp54hWT-412" value="email == user.email" style="edgeLabel;resizable=0;html=1;align=center;verticalAlign=middle;" parent="T0YR8MX-vg3qSfp54hWT-411" connectable="0" vertex="1">
          <mxGeometry relative="1" as="geometry" />
        </mxCell>
        <mxCell id="T0YR8MX-vg3qSfp54hWT-413" value="Correct email" style="edgeLabel;resizable=0;html=1;align=left;verticalAlign=bottom;" parent="T0YR8MX-vg3qSfp54hWT-411" connectable="0" vertex="1">
          <mxGeometry x="-1" relative="1" as="geometry">
            <mxPoint x="-100" y="20" as="offset" />
          </mxGeometry>
        </mxCell>
        <mxCell id="T0YR8MX-vg3qSfp54hWT-414" value="" style="curved=1;endArrow=classic;html=1;rounded=0;" parent="1" edge="1">
          <mxGeometry width="50" height="50" relative="1" as="geometry">
            <mxPoint x="2050" y="-1530" as="sourcePoint" />
            <mxPoint x="2050" y="-1510" as="targetPoint" />
            <Array as="points">
              <mxPoint x="2080" y="-1530" />
              <mxPoint x="2090" y="-1500" />
            </Array>
          </mxGeometry>
        </mxCell>
        <mxCell id="T0YR8MX-vg3qSfp54hWT-415" value="" style="curved=1;endArrow=classic;html=1;rounded=0;" parent="1" edge="1">
          <mxGeometry width="50" height="50" relative="1" as="geometry">
            <mxPoint x="2050" y="-1530" as="sourcePoint" />
            <mxPoint x="2050" y="-1470" as="targetPoint" />
            <Array as="points">
              <mxPoint x="2090" y="-1530" />
              <mxPoint x="2090" y="-1470" />
            </Array>
          </mxGeometry>
        </mxCell>
        <mxCell id="T0YR8MX-vg3qSfp54hWT-417" value="" style="endArrow=classic;html=1;rounded=0;" parent="1" edge="1">
          <mxGeometry relative="1" as="geometry">
            <mxPoint x="1520" y="-1410.83" as="sourcePoint" />
            <mxPoint x="1690" y="-1410" as="targetPoint" />
          </mxGeometry>
        </mxCell>
        <mxCell id="T0YR8MX-vg3qSfp54hWT-418" value="password = New(user.password)" style="edgeLabel;resizable=0;html=1;align=center;verticalAlign=middle;" parent="T0YR8MX-vg3qSfp54hWT-417" connectable="0" vertex="1">
          <mxGeometry relative="1" as="geometry" />
        </mxCell>
        <mxCell id="T0YR8MX-vg3qSfp54hWT-419" value="Write new &quot;password&quot;" style="edgeLabel;resizable=0;html=1;align=left;verticalAlign=bottom;" parent="T0YR8MX-vg3qSfp54hWT-417" connectable="0" vertex="1">
          <mxGeometry x="-1" relative="1" as="geometry" />
        </mxCell>
        <mxCell id="T0YR8MX-vg3qSfp54hWT-420" value="" style="endArrow=classic;html=1;rounded=0;" parent="1" edge="1">
          <mxGeometry relative="1" as="geometry">
            <mxPoint x="1690" y="-1400.83" as="sourcePoint" />
            <mxPoint x="1890" y="-1400" as="targetPoint" />
          </mxGeometry>
        </mxCell>
        <mxCell id="T0YR8MX-vg3qSfp54hWT-421" value="password = New(user.password)" style="edgeLabel;resizable=0;html=1;align=center;verticalAlign=middle;" parent="T0YR8MX-vg3qSfp54hWT-420" connectable="0" vertex="1">
          <mxGeometry relative="1" as="geometry" />
        </mxCell>
        <mxCell id="T0YR8MX-vg3qSfp54hWT-422" value="Edit user password" style="edgeLabel;resizable=0;html=1;align=left;verticalAlign=bottom;" parent="T0YR8MX-vg3qSfp54hWT-420" connectable="0" vertex="1">
          <mxGeometry x="-1" relative="1" as="geometry" />
        </mxCell>
        <mxCell id="T0YR8MX-vg3qSfp54hWT-423" value="" style="endArrow=classic;html=1;rounded=0;" parent="1" edge="1">
          <mxGeometry relative="1" as="geometry">
            <mxPoint x="1890" y="-1390" as="sourcePoint" />
            <mxPoint x="2050" y="-1390" as="targetPoint" />
          </mxGeometry>
        </mxCell>
        <mxCell id="T0YR8MX-vg3qSfp54hWT-424" value="password = New(user.password)" style="edgeLabel;resizable=0;html=1;align=center;verticalAlign=middle;" parent="T0YR8MX-vg3qSfp54hWT-423" connectable="0" vertex="1">
          <mxGeometry relative="1" as="geometry" />
        </mxCell>
        <mxCell id="T0YR8MX-vg3qSfp54hWT-425" value="Edit user password" style="edgeLabel;resizable=0;html=1;align=left;verticalAlign=bottom;" parent="T0YR8MX-vg3qSfp54hWT-423" connectable="0" vertex="1">
          <mxGeometry x="-1" relative="1" as="geometry" />
        </mxCell>
        <mxCell id="T0YR8MX-vg3qSfp54hWT-426" value="" style="curved=1;endArrow=classic;html=1;rounded=0;" parent="1" edge="1">
          <mxGeometry width="50" height="50" relative="1" as="geometry">
            <mxPoint x="1520" y="-1450" as="sourcePoint" />
            <mxPoint x="1520" y="-1410" as="targetPoint" />
            <Array as="points">
              <mxPoint x="1470" y="-1450" />
              <mxPoint x="1470" y="-1410" />
            </Array>
          </mxGeometry>
        </mxCell>
        <mxCell id="T0YR8MX-vg3qSfp54hWT-427" value="USER" style="shape=umlActor;verticalLabelPosition=bottom;verticalAlign=top;html=1;outlineConnect=0;" parent="1" vertex="1">
          <mxGeometry x="2210" y="-1920" width="30" height="60" as="geometry" />
        </mxCell>
        <mxCell id="T0YR8MX-vg3qSfp54hWT-428" value="USER ADMIN" style="rounded=1;whiteSpace=wrap;html=1;" parent="1" vertex="1">
          <mxGeometry x="2320" y="-1910" width="120" height="60" as="geometry" />
        </mxCell>
        <mxCell id="T0YR8MX-vg3qSfp54hWT-430" value="" style="endArrow=none;html=1;rounded=0;" parent="1" edge="1">
          <mxGeometry width="50" height="50" relative="1" as="geometry">
            <mxPoint x="2210" y="-1290" as="sourcePoint" />
            <mxPoint x="2214.6875" y="-1860" as="targetPoint" />
          </mxGeometry>
        </mxCell>
        <mxCell id="T0YR8MX-vg3qSfp54hWT-431" value="" style="endArrow=none;html=1;rounded=0;entryX=0.5;entryY=1;entryDx=0;entryDy=0;" parent="1" target="T0YR8MX-vg3qSfp54hWT-428" edge="1">
          <mxGeometry width="50" height="50" relative="1" as="geometry">
            <mxPoint x="2380" y="-1290" as="sourcePoint" />
            <mxPoint x="2400" y="-1700" as="targetPoint" />
          </mxGeometry>
        </mxCell>
        <mxCell id="T0YR8MX-vg3qSfp54hWT-433" value="DB" style="shape=cylinder3;whiteSpace=wrap;html=1;boundedLbl=1;backgroundOutline=1;size=15;" parent="1" vertex="1">
          <mxGeometry x="2510" y="-1930" width="60" height="80" as="geometry" />
        </mxCell>
        <mxCell id="T0YR8MX-vg3qSfp54hWT-434" value="" style="endArrow=none;html=1;rounded=0;entryX=0.5;entryY=1;entryDx=0;entryDy=0;entryPerimeter=0;" parent="1" target="T0YR8MX-vg3qSfp54hWT-433" edge="1">
          <mxGeometry width="50" height="50" relative="1" as="geometry">
            <mxPoint x="2540" y="-1310" as="sourcePoint" />
            <mxPoint x="2490" y="-1700" as="targetPoint" />
          </mxGeometry>
        </mxCell>
        <mxCell id="T0YR8MX-vg3qSfp54hWT-489" value="" style="endArrow=classic;html=1;rounded=0;" parent="1" edge="1">
          <mxGeometry relative="1" as="geometry">
            <mxPoint x="2220" y="-1810" as="sourcePoint" />
            <mxPoint x="2380" y="-1810" as="targetPoint" />
          </mxGeometry>
        </mxCell>
        <mxCell id="T0YR8MX-vg3qSfp54hWT-490" value="New user.FirstName" style="edgeLabel;resizable=0;html=1;align=center;verticalAlign=middle;" parent="T0YR8MX-vg3qSfp54hWT-489" connectable="0" vertex="1">
          <mxGeometry relative="1" as="geometry" />
        </mxCell>
        <mxCell id="T0YR8MX-vg3qSfp54hWT-491" value="Write Firstname" style="edgeLabel;resizable=0;html=1;align=left;verticalAlign=bottom;" parent="T0YR8MX-vg3qSfp54hWT-489" connectable="0" vertex="1">
          <mxGeometry x="-1" relative="1" as="geometry" />
        </mxCell>
        <mxCell id="T0YR8MX-vg3qSfp54hWT-492" value="" style="endArrow=classic;html=1;rounded=0;" parent="1" edge="1">
          <mxGeometry relative="1" as="geometry">
            <mxPoint x="2380" y="-1800" as="sourcePoint" />
            <mxPoint x="2540" y="-1800" as="targetPoint" />
          </mxGeometry>
        </mxCell>
        <mxCell id="T0YR8MX-vg3qSfp54hWT-493" value="New user.FirstName" style="edgeLabel;resizable=0;html=1;align=center;verticalAlign=middle;" parent="T0YR8MX-vg3qSfp54hWT-492" connectable="0" vertex="1">
          <mxGeometry relative="1" as="geometry" />
        </mxCell>
        <mxCell id="T0YR8MX-vg3qSfp54hWT-494" value="Write Firstname" style="edgeLabel;resizable=0;html=1;align=left;verticalAlign=bottom;" parent="T0YR8MX-vg3qSfp54hWT-492" connectable="0" vertex="1">
          <mxGeometry x="-1" relative="1" as="geometry" />
        </mxCell>
        <mxCell id="T0YR8MX-vg3qSfp54hWT-495" value="" style="endArrow=classic;html=1;rounded=0;" parent="1" edge="1">
          <mxGeometry relative="1" as="geometry">
            <mxPoint x="2220" y="-1730" as="sourcePoint" />
            <mxPoint x="2380" y="-1730" as="targetPoint" />
          </mxGeometry>
        </mxCell>
        <mxCell id="T0YR8MX-vg3qSfp54hWT-496" value="New user.LastName" style="edgeLabel;resizable=0;html=1;align=center;verticalAlign=middle;" parent="T0YR8MX-vg3qSfp54hWT-495" connectable="0" vertex="1">
          <mxGeometry relative="1" as="geometry" />
        </mxCell>
        <mxCell id="T0YR8MX-vg3qSfp54hWT-497" value="Write Lastname" style="edgeLabel;resizable=0;html=1;align=left;verticalAlign=bottom;" parent="T0YR8MX-vg3qSfp54hWT-495" connectable="0" vertex="1">
          <mxGeometry x="-1" relative="1" as="geometry" />
        </mxCell>
        <mxCell id="T0YR8MX-vg3qSfp54hWT-498" value="" style="endArrow=classic;html=1;rounded=0;" parent="1" edge="1">
          <mxGeometry relative="1" as="geometry">
            <mxPoint x="2540" y="-1780" as="sourcePoint" />
            <mxPoint x="2380" y="-1780" as="targetPoint" />
          </mxGeometry>
        </mxCell>
        <mxCell id="T0YR8MX-vg3qSfp54hWT-499" value="New user.FirstName" style="edgeLabel;resizable=0;html=1;align=center;verticalAlign=middle;" parent="T0YR8MX-vg3qSfp54hWT-498" connectable="0" vertex="1">
          <mxGeometry relative="1" as="geometry" />
        </mxCell>
        <mxCell id="T0YR8MX-vg3qSfp54hWT-500" value="Registered Firstname" style="edgeLabel;resizable=0;html=1;align=left;verticalAlign=bottom;" parent="T0YR8MX-vg3qSfp54hWT-498" connectable="0" vertex="1">
          <mxGeometry x="-1" relative="1" as="geometry">
            <mxPoint x="-110" y="20" as="offset" />
          </mxGeometry>
        </mxCell>
        <mxCell id="T0YR8MX-vg3qSfp54hWT-501" value="" style="endArrow=classic;html=1;rounded=0;" parent="1" edge="1">
          <mxGeometry relative="1" as="geometry">
            <mxPoint x="2380" y="-1770" as="sourcePoint" />
            <mxPoint x="2220" y="-1770" as="targetPoint" />
          </mxGeometry>
        </mxCell>
        <mxCell id="T0YR8MX-vg3qSfp54hWT-502" value="New user.FirstName" style="edgeLabel;resizable=0;html=1;align=center;verticalAlign=middle;" parent="T0YR8MX-vg3qSfp54hWT-501" connectable="0" vertex="1">
          <mxGeometry relative="1" as="geometry" />
        </mxCell>
        <mxCell id="T0YR8MX-vg3qSfp54hWT-503" value="Registered Firstname" style="edgeLabel;resizable=0;html=1;align=left;verticalAlign=bottom;" parent="T0YR8MX-vg3qSfp54hWT-501" connectable="0" vertex="1">
          <mxGeometry x="-1" relative="1" as="geometry">
            <mxPoint x="-110" y="20" as="offset" />
          </mxGeometry>
        </mxCell>
        <mxCell id="T0YR8MX-vg3qSfp54hWT-504" value="" style="endArrow=classic;html=1;rounded=0;" parent="1" edge="1">
          <mxGeometry relative="1" as="geometry">
            <mxPoint x="2380" y="-1720" as="sourcePoint" />
            <mxPoint x="2540" y="-1720" as="targetPoint" />
          </mxGeometry>
        </mxCell>
        <mxCell id="T0YR8MX-vg3qSfp54hWT-505" value="New user.LastName" style="edgeLabel;resizable=0;html=1;align=center;verticalAlign=middle;" parent="T0YR8MX-vg3qSfp54hWT-504" connectable="0" vertex="1">
          <mxGeometry relative="1" as="geometry" />
        </mxCell>
        <mxCell id="T0YR8MX-vg3qSfp54hWT-506" value="Write Lastname" style="edgeLabel;resizable=0;html=1;align=left;verticalAlign=bottom;" parent="T0YR8MX-vg3qSfp54hWT-504" connectable="0" vertex="1">
          <mxGeometry x="-1" relative="1" as="geometry" />
        </mxCell>
        <mxCell id="T0YR8MX-vg3qSfp54hWT-513" value="" style="endArrow=classic;html=1;rounded=0;" parent="1" edge="1">
          <mxGeometry relative="1" as="geometry">
            <mxPoint x="2540" y="-1700.48" as="sourcePoint" />
            <mxPoint x="2380" y="-1700.48" as="targetPoint" />
          </mxGeometry>
        </mxCell>
        <mxCell id="T0YR8MX-vg3qSfp54hWT-514" value="New user.LastName" style="edgeLabel;resizable=0;html=1;align=center;verticalAlign=middle;" parent="T0YR8MX-vg3qSfp54hWT-513" connectable="0" vertex="1">
          <mxGeometry relative="1" as="geometry" />
        </mxCell>
        <mxCell id="T0YR8MX-vg3qSfp54hWT-515" value="Registered LastName" style="edgeLabel;resizable=0;html=1;align=left;verticalAlign=bottom;" parent="T0YR8MX-vg3qSfp54hWT-513" connectable="0" vertex="1">
          <mxGeometry x="-1" relative="1" as="geometry">
            <mxPoint x="-110" y="20" as="offset" />
          </mxGeometry>
        </mxCell>
        <mxCell id="T0YR8MX-vg3qSfp54hWT-516" value="" style="endArrow=classic;html=1;rounded=0;" parent="1" edge="1">
          <mxGeometry relative="1" as="geometry">
            <mxPoint x="2380" y="-1690.48" as="sourcePoint" />
            <mxPoint x="2220" y="-1690.48" as="targetPoint" />
          </mxGeometry>
        </mxCell>
        <mxCell id="T0YR8MX-vg3qSfp54hWT-517" value="New user.LastName" style="edgeLabel;resizable=0;html=1;align=center;verticalAlign=middle;" parent="T0YR8MX-vg3qSfp54hWT-516" connectable="0" vertex="1">
          <mxGeometry relative="1" as="geometry" />
        </mxCell>
        <mxCell id="T0YR8MX-vg3qSfp54hWT-518" value="Registered LastName" style="edgeLabel;resizable=0;html=1;align=left;verticalAlign=bottom;" parent="T0YR8MX-vg3qSfp54hWT-516" connectable="0" vertex="1">
          <mxGeometry x="-1" relative="1" as="geometry">
            <mxPoint x="-110" y="20" as="offset" />
          </mxGeometry>
        </mxCell>
        <mxCell id="T0YR8MX-vg3qSfp54hWT-519" value="" style="endArrow=classic;html=1;rounded=0;" parent="1" edge="1">
          <mxGeometry relative="1" as="geometry">
            <mxPoint x="2220" y="-1650" as="sourcePoint" />
            <mxPoint x="2380" y="-1650" as="targetPoint" />
          </mxGeometry>
        </mxCell>
        <mxCell id="T0YR8MX-vg3qSfp54hWT-520" value="New user.userID" style="edgeLabel;resizable=0;html=1;align=center;verticalAlign=middle;" parent="T0YR8MX-vg3qSfp54hWT-519" connectable="0" vertex="1">
          <mxGeometry relative="1" as="geometry" />
        </mxCell>
        <mxCell id="T0YR8MX-vg3qSfp54hWT-521" value="Write username" style="edgeLabel;resizable=0;html=1;align=left;verticalAlign=bottom;" parent="T0YR8MX-vg3qSfp54hWT-519" connectable="0" vertex="1">
          <mxGeometry x="-1" relative="1" as="geometry" />
        </mxCell>
        <mxCell id="T0YR8MX-vg3qSfp54hWT-522" value="" style="endArrow=classic;html=1;rounded=0;" parent="1" edge="1">
          <mxGeometry relative="1" as="geometry">
            <mxPoint x="2380" y="-1640" as="sourcePoint" />
            <mxPoint x="2540" y="-1640" as="targetPoint" />
          </mxGeometry>
        </mxCell>
        <mxCell id="T0YR8MX-vg3qSfp54hWT-523" value="New user.userID" style="edgeLabel;resizable=0;html=1;align=center;verticalAlign=middle;" parent="T0YR8MX-vg3qSfp54hWT-522" connectable="0" vertex="1">
          <mxGeometry relative="1" as="geometry" />
        </mxCell>
        <mxCell id="T0YR8MX-vg3qSfp54hWT-524" value="Write username" style="edgeLabel;resizable=0;html=1;align=left;verticalAlign=bottom;" parent="T0YR8MX-vg3qSfp54hWT-522" connectable="0" vertex="1">
          <mxGeometry x="-1" relative="1" as="geometry" />
        </mxCell>
        <mxCell id="T0YR8MX-vg3qSfp54hWT-525" value="" style="endArrow=classic;html=1;rounded=0;" parent="1" edge="1">
          <mxGeometry relative="1" as="geometry">
            <mxPoint x="2540" y="-1620" as="sourcePoint" />
            <mxPoint x="2380" y="-1620" as="targetPoint" />
          </mxGeometry>
        </mxCell>
        <mxCell id="T0YR8MX-vg3qSfp54hWT-526" value="New user.userID" style="edgeLabel;resizable=0;html=1;align=center;verticalAlign=middle;" parent="T0YR8MX-vg3qSfp54hWT-525" connectable="0" vertex="1">
          <mxGeometry relative="1" as="geometry" />
        </mxCell>
        <mxCell id="T0YR8MX-vg3qSfp54hWT-527" value="Registered username" style="edgeLabel;resizable=0;html=1;align=left;verticalAlign=bottom;" parent="T0YR8MX-vg3qSfp54hWT-525" connectable="0" vertex="1">
          <mxGeometry x="-1" relative="1" as="geometry">
            <mxPoint x="-110" y="20" as="offset" />
          </mxGeometry>
        </mxCell>
        <mxCell id="T0YR8MX-vg3qSfp54hWT-528" value="" style="endArrow=classic;html=1;rounded=0;" parent="1" edge="1">
          <mxGeometry relative="1" as="geometry">
            <mxPoint x="2380" y="-1610" as="sourcePoint" />
            <mxPoint x="2220" y="-1610" as="targetPoint" />
          </mxGeometry>
        </mxCell>
        <mxCell id="T0YR8MX-vg3qSfp54hWT-529" value="New user.userID" style="edgeLabel;resizable=0;html=1;align=center;verticalAlign=middle;" parent="T0YR8MX-vg3qSfp54hWT-528" connectable="0" vertex="1">
          <mxGeometry relative="1" as="geometry" />
        </mxCell>
        <mxCell id="T0YR8MX-vg3qSfp54hWT-532" value="" style="endArrow=classic;html=1;rounded=0;" parent="1" edge="1">
          <mxGeometry relative="1" as="geometry">
            <mxPoint x="2220" y="-1570" as="sourcePoint" />
            <mxPoint x="2380" y="-1570" as="targetPoint" />
          </mxGeometry>
        </mxCell>
        <mxCell id="T0YR8MX-vg3qSfp54hWT-533" value="New user.email" style="edgeLabel;resizable=0;html=1;align=center;verticalAlign=middle;" parent="T0YR8MX-vg3qSfp54hWT-532" connectable="0" vertex="1">
          <mxGeometry relative="1" as="geometry" />
        </mxCell>
        <mxCell id="T0YR8MX-vg3qSfp54hWT-534" value="Write email" style="edgeLabel;resizable=0;html=1;align=left;verticalAlign=bottom;" parent="T0YR8MX-vg3qSfp54hWT-532" connectable="0" vertex="1">
          <mxGeometry x="-1" relative="1" as="geometry" />
        </mxCell>
        <mxCell id="T0YR8MX-vg3qSfp54hWT-535" value="" style="endArrow=classic;html=1;rounded=0;" parent="1" edge="1">
          <mxGeometry relative="1" as="geometry">
            <mxPoint x="2380" y="-1559.52" as="sourcePoint" />
            <mxPoint x="2540" y="-1559.52" as="targetPoint" />
          </mxGeometry>
        </mxCell>
        <mxCell id="T0YR8MX-vg3qSfp54hWT-536" value="New user.email" style="edgeLabel;resizable=0;html=1;align=center;verticalAlign=middle;" parent="T0YR8MX-vg3qSfp54hWT-535" connectable="0" vertex="1">
          <mxGeometry relative="1" as="geometry">
            <mxPoint y="10" as="offset" />
          </mxGeometry>
        </mxCell>
        <mxCell id="T0YR8MX-vg3qSfp54hWT-537" value="Write email" style="edgeLabel;resizable=0;html=1;align=left;verticalAlign=bottom;" parent="T0YR8MX-vg3qSfp54hWT-535" connectable="0" vertex="1">
          <mxGeometry x="-1" relative="1" as="geometry">
            <mxPoint y="10" as="offset" />
          </mxGeometry>
        </mxCell>
        <mxCell id="T0YR8MX-vg3qSfp54hWT-538" value="" style="endArrow=classic;html=1;rounded=0;" parent="1" edge="1">
          <mxGeometry relative="1" as="geometry">
            <mxPoint x="2540" y="-1539.52" as="sourcePoint" />
            <mxPoint x="2380" y="-1539.52" as="targetPoint" />
          </mxGeometry>
        </mxCell>
        <mxCell id="T0YR8MX-vg3qSfp54hWT-539" value="New user.email" style="edgeLabel;resizable=0;html=1;align=center;verticalAlign=middle;" parent="T0YR8MX-vg3qSfp54hWT-538" connectable="0" vertex="1">
          <mxGeometry relative="1" as="geometry">
            <mxPoint y="10" as="offset" />
          </mxGeometry>
        </mxCell>
        <mxCell id="T0YR8MX-vg3qSfp54hWT-540" value="Registered email" style="edgeLabel;resizable=0;html=1;align=left;verticalAlign=bottom;" parent="T0YR8MX-vg3qSfp54hWT-538" connectable="0" vertex="1">
          <mxGeometry x="-1" relative="1" as="geometry">
            <mxPoint x="-110" y="30" as="offset" />
          </mxGeometry>
        </mxCell>
        <mxCell id="T0YR8MX-vg3qSfp54hWT-541" value="" style="endArrow=classic;html=1;rounded=0;" parent="1" edge="1">
          <mxGeometry relative="1" as="geometry">
            <mxPoint x="2380" y="-1519.52" as="sourcePoint" />
            <mxPoint x="2220" y="-1519.52" as="targetPoint" />
          </mxGeometry>
        </mxCell>
        <mxCell id="T0YR8MX-vg3qSfp54hWT-542" value="New user.email" style="edgeLabel;resizable=0;html=1;align=center;verticalAlign=middle;" parent="T0YR8MX-vg3qSfp54hWT-541" connectable="0" vertex="1">
          <mxGeometry relative="1" as="geometry" />
        </mxCell>
        <mxCell id="T0YR8MX-vg3qSfp54hWT-543" value="Registered email" style="edgeLabel;resizable=0;html=1;align=left;verticalAlign=bottom;" parent="T0YR8MX-vg3qSfp54hWT-541" connectable="0" vertex="1">
          <mxGeometry x="-1" relative="1" as="geometry">
            <mxPoint x="-110" y="20" as="offset" />
          </mxGeometry>
        </mxCell>
        <mxCell id="T0YR8MX-vg3qSfp54hWT-545" value="Registered username" style="edgeLabel;resizable=0;html=1;align=left;verticalAlign=bottom;" parent="1" connectable="0" vertex="1">
          <mxGeometry x="2270" y="-1590" as="geometry" />
        </mxCell>
        <mxCell id="T0YR8MX-vg3qSfp54hWT-546" value="" style="endArrow=classic;html=1;rounded=0;" parent="1" edge="1">
          <mxGeometry relative="1" as="geometry">
            <mxPoint x="2220" y="-1480" as="sourcePoint" />
            <mxPoint x="2380" y="-1480" as="targetPoint" />
          </mxGeometry>
        </mxCell>
        <mxCell id="T0YR8MX-vg3qSfp54hWT-547" value="New user.password" style="edgeLabel;resizable=0;html=1;align=center;verticalAlign=middle;" parent="T0YR8MX-vg3qSfp54hWT-546" connectable="0" vertex="1">
          <mxGeometry relative="1" as="geometry" />
        </mxCell>
        <mxCell id="T0YR8MX-vg3qSfp54hWT-548" value="Write password" style="edgeLabel;resizable=0;html=1;align=left;verticalAlign=bottom;" parent="T0YR8MX-vg3qSfp54hWT-546" connectable="0" vertex="1">
          <mxGeometry x="-1" relative="1" as="geometry" />
        </mxCell>
        <mxCell id="T0YR8MX-vg3qSfp54hWT-555" value="" style="endArrow=classic;html=1;rounded=0;" parent="1" edge="1">
          <mxGeometry relative="1" as="geometry">
            <mxPoint x="2540" y="-1450" as="sourcePoint" />
            <mxPoint x="2380" y="-1450" as="targetPoint" />
          </mxGeometry>
        </mxCell>
        <mxCell id="T0YR8MX-vg3qSfp54hWT-556" value="New user.password" style="edgeLabel;resizable=0;html=1;align=center;verticalAlign=middle;" parent="T0YR8MX-vg3qSfp54hWT-555" connectable="0" vertex="1">
          <mxGeometry relative="1" as="geometry" />
        </mxCell>
        <mxCell id="T0YR8MX-vg3qSfp54hWT-557" value="Registered password" style="edgeLabel;resizable=0;html=1;align=left;verticalAlign=bottom;" parent="T0YR8MX-vg3qSfp54hWT-555" connectable="0" vertex="1">
          <mxGeometry x="-1" relative="1" as="geometry">
            <mxPoint x="-110" y="20" as="offset" />
          </mxGeometry>
        </mxCell>
        <mxCell id="T0YR8MX-vg3qSfp54hWT-558" value="" style="endArrow=classic;html=1;rounded=0;" parent="1" edge="1">
          <mxGeometry relative="1" as="geometry">
            <mxPoint x="2380" y="-1470" as="sourcePoint" />
            <mxPoint x="2540" y="-1470" as="targetPoint" />
          </mxGeometry>
        </mxCell>
        <mxCell id="T0YR8MX-vg3qSfp54hWT-559" value="New user.password" style="edgeLabel;resizable=0;html=1;align=center;verticalAlign=middle;" parent="T0YR8MX-vg3qSfp54hWT-558" connectable="0" vertex="1">
          <mxGeometry relative="1" as="geometry" />
        </mxCell>
        <mxCell id="T0YR8MX-vg3qSfp54hWT-560" value="Write password" style="edgeLabel;resizable=0;html=1;align=left;verticalAlign=bottom;" parent="T0YR8MX-vg3qSfp54hWT-558" connectable="0" vertex="1">
          <mxGeometry x="-1" relative="1" as="geometry" />
        </mxCell>
        <mxCell id="T0YR8MX-vg3qSfp54hWT-561" value="" style="endArrow=classic;html=1;rounded=0;" parent="1" edge="1">
          <mxGeometry relative="1" as="geometry">
            <mxPoint x="2380" y="-1440" as="sourcePoint" />
            <mxPoint x="2220" y="-1440" as="targetPoint" />
          </mxGeometry>
        </mxCell>
        <mxCell id="T0YR8MX-vg3qSfp54hWT-562" value="New user.password" style="edgeLabel;resizable=0;html=1;align=center;verticalAlign=middle;" parent="T0YR8MX-vg3qSfp54hWT-561" connectable="0" vertex="1">
          <mxGeometry relative="1" as="geometry" />
        </mxCell>
        <mxCell id="T0YR8MX-vg3qSfp54hWT-563" value="Registered password" style="edgeLabel;resizable=0;html=1;align=left;verticalAlign=bottom;" parent="T0YR8MX-vg3qSfp54hWT-561" connectable="0" vertex="1">
          <mxGeometry x="-1" relative="1" as="geometry">
            <mxPoint x="-110" y="20" as="offset" />
          </mxGeometry>
        </mxCell>
        <mxCell id="T0YR8MX-vg3qSfp54hWT-564" value="" style="endArrow=classic;html=1;rounded=0;" parent="1" edge="1">
          <mxGeometry relative="1" as="geometry">
            <mxPoint x="2220" y="-1400" as="sourcePoint" />
            <mxPoint x="2380" y="-1400" as="targetPoint" />
          </mxGeometry>
        </mxCell>
        <mxCell id="T0YR8MX-vg3qSfp54hWT-565" value="password==user.password" style="edgeLabel;resizable=0;html=1;align=center;verticalAlign=middle;" parent="T0YR8MX-vg3qSfp54hWT-564" connectable="0" vertex="1">
          <mxGeometry relative="1" as="geometry" />
        </mxCell>
        <mxCell id="T0YR8MX-vg3qSfp54hWT-566" value="Confirm password" style="edgeLabel;resizable=0;html=1;align=left;verticalAlign=bottom;" parent="T0YR8MX-vg3qSfp54hWT-564" connectable="0" vertex="1">
          <mxGeometry x="-1" relative="1" as="geometry" />
        </mxCell>
        <mxCell id="T0YR8MX-vg3qSfp54hWT-567" value="" style="endArrow=classic;html=1;rounded=0;" parent="1" edge="1">
          <mxGeometry relative="1" as="geometry">
            <mxPoint x="2380" y="-1380" as="sourcePoint" />
            <mxPoint x="2540" y="-1380" as="targetPoint" />
          </mxGeometry>
        </mxCell>
        <mxCell id="T0YR8MX-vg3qSfp54hWT-568" value="password==user.password" style="edgeLabel;resizable=0;html=1;align=center;verticalAlign=middle;" parent="T0YR8MX-vg3qSfp54hWT-567" connectable="0" vertex="1">
          <mxGeometry relative="1" as="geometry" />
        </mxCell>
        <mxCell id="T0YR8MX-vg3qSfp54hWT-569" value="Confirm password" style="edgeLabel;resizable=0;html=1;align=left;verticalAlign=bottom;" parent="T0YR8MX-vg3qSfp54hWT-567" connectable="0" vertex="1">
          <mxGeometry x="-1" relative="1" as="geometry" />
        </mxCell>
        <mxCell id="T0YR8MX-vg3qSfp54hWT-570" value="" style="endArrow=classic;html=1;rounded=0;" parent="1" edge="1">
          <mxGeometry relative="1" as="geometry">
            <mxPoint x="2540" y="-1360" as="sourcePoint" />
            <mxPoint x="2380" y="-1360" as="targetPoint" />
          </mxGeometry>
        </mxCell>
        <mxCell id="T0YR8MX-vg3qSfp54hWT-571" value="password != user.password" style="edgeLabel;resizable=0;html=1;align=center;verticalAlign=middle;" parent="T0YR8MX-vg3qSfp54hWT-570" connectable="0" vertex="1">
          <mxGeometry relative="1" as="geometry" />
        </mxCell>
        <mxCell id="T0YR8MX-vg3qSfp54hWT-572" value="Passwords are different" style="edgeLabel;resizable=0;html=1;align=left;verticalAlign=bottom;" parent="T0YR8MX-vg3qSfp54hWT-570" connectable="0" vertex="1">
          <mxGeometry x="-1" relative="1" as="geometry">
            <mxPoint x="-120" y="20" as="offset" />
          </mxGeometry>
        </mxCell>
        <mxCell id="T0YR8MX-vg3qSfp54hWT-573" value="" style="endArrow=classic;html=1;rounded=0;" parent="1" edge="1">
          <mxGeometry relative="1" as="geometry">
            <mxPoint x="2380" y="-1350" as="sourcePoint" />
            <mxPoint x="2220" y="-1350" as="targetPoint" />
          </mxGeometry>
        </mxCell>
        <mxCell id="T0YR8MX-vg3qSfp54hWT-574" value="password != user.password" style="edgeLabel;resizable=0;html=1;align=center;verticalAlign=middle;" parent="T0YR8MX-vg3qSfp54hWT-573" connectable="0" vertex="1">
          <mxGeometry relative="1" as="geometry" />
        </mxCell>
        <mxCell id="T0YR8MX-vg3qSfp54hWT-575" value="Passwords are different" style="edgeLabel;resizable=0;html=1;align=left;verticalAlign=bottom;" parent="T0YR8MX-vg3qSfp54hWT-573" connectable="0" vertex="1">
          <mxGeometry x="-1" relative="1" as="geometry">
            <mxPoint x="-120" y="20" as="offset" />
          </mxGeometry>
        </mxCell>
        <mxCell id="T0YR8MX-vg3qSfp54hWT-576" value="" style="endArrow=classic;html=1;rounded=0;" parent="1" edge="1">
          <mxGeometry relative="1" as="geometry">
            <mxPoint x="2540" y="-1320" as="sourcePoint" />
            <mxPoint x="2380" y="-1320" as="targetPoint" />
          </mxGeometry>
        </mxCell>
        <mxCell id="T0YR8MX-vg3qSfp54hWT-577" value="password == user.password" style="edgeLabel;resizable=0;html=1;align=center;verticalAlign=middle;" parent="T0YR8MX-vg3qSfp54hWT-576" connectable="0" vertex="1">
          <mxGeometry relative="1" as="geometry" />
        </mxCell>
        <mxCell id="T0YR8MX-vg3qSfp54hWT-578" value="user.password == true" style="edgeLabel;resizable=0;html=1;align=left;verticalAlign=bottom;" parent="T0YR8MX-vg3qSfp54hWT-576" connectable="0" vertex="1">
          <mxGeometry x="-1" relative="1" as="geometry">
            <mxPoint x="-120" y="20" as="offset" />
          </mxGeometry>
        </mxCell>
        <mxCell id="T0YR8MX-vg3qSfp54hWT-579" value="" style="endArrow=classic;html=1;rounded=0;" parent="1" edge="1">
          <mxGeometry relative="1" as="geometry">
            <mxPoint x="2380" y="-1310" as="sourcePoint" />
            <mxPoint x="2220" y="-1310" as="targetPoint" />
          </mxGeometry>
        </mxCell>
        <mxCell id="T0YR8MX-vg3qSfp54hWT-580" value="password == user.password" style="edgeLabel;resizable=0;html=1;align=center;verticalAlign=middle;" parent="T0YR8MX-vg3qSfp54hWT-579" connectable="0" vertex="1">
          <mxGeometry relative="1" as="geometry" />
        </mxCell>
        <mxCell id="T0YR8MX-vg3qSfp54hWT-581" value="user.password == true" style="edgeLabel;resizable=0;html=1;align=left;verticalAlign=bottom;" parent="T0YR8MX-vg3qSfp54hWT-579" connectable="0" vertex="1">
          <mxGeometry x="-1" relative="1" as="geometry">
            <mxPoint x="-120" y="20" as="offset" />
          </mxGeometry>
        </mxCell>
        <mxCell id="xDdyAjnk54OKLn9NpYFp-1" value="USER" style="shape=umlActor;verticalLabelPosition=bottom;verticalAlign=top;html=1;outlineConnect=0;" vertex="1" parent="1">
          <mxGeometry x="95" y="-1950" width="30" height="60" as="geometry" />
        </mxCell>
      </root>
    </mxGraphModel>
  </diagram>
</mxfile>
